<svg xmlns="http://www.w3.org/2000/svg" xmlns:xlink="http://www.w3.org/1999/xlink" width="111.998" height="32" viewBox="0 0 111.998 32">
  <defs>
    <clipPath id="clip-path">
      <rect id="Rectangle_4046" data-name="Rectangle 4046" width="111.999" height="32" transform="translate(18172.641 2887.085)" fill="#fff"/>
    </clipPath>
  </defs>
  <g id="badge_App-Store" data-name="badge/App-Store" transform="translate(-18172.641 -2887.085)" clip-path="url(#clip-path)">
    <g id="Download_on_the_App_Store_Badge_US-UK_RGB_blk_092917" transform="translate(18180.773 2887.085)">
      <g id="Group_13533" data-name="Group 13533" transform="translate(0 0)">
        <g id="Group_13531" data-name="Group 13531">
          <path id="Path_9832" data-name="Path 9832" d="M88.108,0H7.628c-.293,0-.583,0-.876,0-.245,0-.488.006-.735.01a10.572,10.572,0,0,0-1.6.141,5.332,5.332,0,0,0-1.521.5A5.15,5.15,0,0,0,1.6,1.6a5.007,5.007,0,0,0-.943,1.3,5.281,5.281,0,0,0-.5,1.523,10.394,10.394,0,0,0-.143,1.6C0,6.264,0,6.51,0,6.755V25.247c0,.248,0,.489.012.738a10.394,10.394,0,0,0,.143,1.6,5.27,5.27,0,0,0,.5,1.523A4.966,4.966,0,0,0,1.6,30.4a5.02,5.02,0,0,0,1.295.943,5.361,5.361,0,0,0,1.521.5,10.763,10.763,0,0,0,1.6.141c.247.005.49.009.735.009.293,0,.582,0,.876,0h80.48c.288,0,.58,0,.867,0,.244,0,.494,0,.738-.009a10.622,10.622,0,0,0,1.6-.141,5.444,5.444,0,0,0,1.527-.5,5.022,5.022,0,0,0,1.294-.943,5.116,5.116,0,0,0,.945-1.291,5.283,5.283,0,0,0,.5-1.523,10.805,10.805,0,0,0,.148-1.6c0-.248,0-.489,0-.738.006-.291.006-.58.006-.875V7.629c0-.293,0-.584-.006-.873,0-.245,0-.491,0-.737a10.805,10.805,0,0,0-.148-1.6,5.294,5.294,0,0,0-.5-1.523A5.173,5.173,0,0,0,92.84.655a5.414,5.414,0,0,0-1.527-.5,10.435,10.435,0,0,0-1.6-.141c-.244,0-.494-.009-.738-.01-.288,0-.58,0-.867,0Z" transform="translate(0 0)" fill="#a6a6a6"/>
          <path id="Path_9833" data-name="Path 9833" d="M6.93,31.475c-.244,0-.482,0-.723-.009a10.15,10.15,0,0,1-1.5-.13A4.707,4.707,0,0,1,3.386,30.9a4.325,4.325,0,0,1-1.118-.813,4.257,4.257,0,0,1-.816-1.117,4.577,4.577,0,0,1-.434-1.326,9.931,9.931,0,0,1-.133-1.5c-.005-.169-.012-.73-.012-.73V6.93s.007-.553.012-.716a9.9,9.9,0,0,1,.132-1.5,4.6,4.6,0,0,1,.435-1.33,4.3,4.3,0,0,1,.812-1.118,4.452,4.452,0,0,1,1.122-.818,4.658,4.658,0,0,1,1.323-.435,10.069,10.069,0,0,1,1.5-.131l.722-.01H89.146l.73.01a9.908,9.908,0,0,1,1.487.13,4.751,4.751,0,0,1,1.337.438,4.475,4.475,0,0,1,1.932,1.936,4.61,4.61,0,0,1,.428,1.319,10.4,10.4,0,0,1,.139,1.51c0,.227,0,.47,0,.712.006.3.006.586.006.873V24.547c0,.291,0,.574-.006.86,0,.26,0,.5,0,.744a10.184,10.184,0,0,1-.137,1.483,4.591,4.591,0,0,1-.432,1.336,4.384,4.384,0,0,1-.812,1.109,4.33,4.33,0,0,1-1.12.818,4.689,4.689,0,0,1-1.334.44,10.034,10.034,0,0,1-1.5.13c-.234.005-.48.009-.718.009l-.867,0Z" transform="translate(-0.175 -0.175)"/>
        </g>
        <g id="_Group_" data-name="&lt;Group&gt;" transform="translate(7.977 6.976)">
          <g id="_Group_2" data-name="&lt;Group&gt;">
            <g id="_Group_3" data-name="&lt;Group&gt;">
              <path id="_Path_" data-name="&lt;Path&gt;" d="M21.809,19.035a3.959,3.959,0,0,1,1.885-3.322A4.053,4.053,0,0,0,20.5,13.987c-1.343-.141-2.646.8-3.33.8s-1.752-.79-2.887-.767a4.252,4.252,0,0,0-3.578,2.182c-1.547,2.679-.393,6.616,1.089,8.781.742,1.06,1.608,2.245,2.742,2.2,1.11-.046,1.524-.708,2.864-.708s1.716.708,2.873.681c1.191-.019,1.941-1.065,2.656-2.135a8.77,8.77,0,0,0,1.215-2.474A3.826,3.826,0,0,1,21.809,19.035Z" transform="translate(-9.972 -9.771)" fill="#fff"/>
              <path id="_Path_2" data-name="&lt;Path&gt;" d="M21.388,11.513A3.9,3.9,0,0,0,22.28,8.72a3.966,3.966,0,0,0-2.566,1.328,3.709,3.709,0,0,0-.915,2.689A3.279,3.279,0,0,0,21.388,11.513Z" transform="translate(-11.735 -8.72)" fill="#fff"/>
            </g>
          </g>
          <g id="Group_13532" data-name="Group 13532" transform="translate(19.565 7.321)">
            <path id="Path_9834" data-name="Path 9834" d="M40.727,25.327H36.941l-.909,2.685h-1.6l3.587-9.934H39.68l3.587,9.934H41.636Zm-3.395-1.239h3l-1.48-4.358h-.041Z" transform="translate(-34.427 -17.912)" fill="#fff"/>
            <path id="Path_9835" data-name="Path 9835" d="M53.454,25.045c0,2.251-1.2,3.7-3.023,3.7a2.455,2.455,0,0,1-2.279-1.267h-.034v3.588H46.631V21.423H48.07v1.2H48.1a2.569,2.569,0,0,1,2.306-1.28C52.242,21.347,53.454,22.8,53.454,25.045Zm-1.528,0c0-1.466-.758-2.43-1.914-2.43-1.136,0-1.9.984-1.9,2.43s.764,2.437,1.9,2.437C51.168,27.482,51.926,26.525,51.926,25.045Z" transform="translate(-36.868 -18.566)" fill="#fff"/>
            <path id="Path_9836" data-name="Path 9836" d="M63.419,25.045c0,2.251-1.2,3.7-3.023,3.7a2.455,2.455,0,0,1-2.279-1.267h-.034v3.588H56.6V21.423h1.439v1.2h.027a2.569,2.569,0,0,1,2.306-1.28C62.207,21.347,63.419,22.8,63.419,25.045Zm-1.528,0c0-1.466-.758-2.43-1.914-2.43-1.136,0-1.9.984-1.9,2.43s.764,2.437,1.9,2.437c1.156,0,1.914-.957,1.914-2.437Z" transform="translate(-38.861 -18.566)" fill="#fff"/>
            <path id="Path_9837" data-name="Path 9837" d="M71.33,25.2c.11.985,1.067,1.632,2.375,1.632,1.253,0,2.155-.647,2.155-1.535,0-.771-.544-1.233-1.831-1.549l-1.288-.31C70.917,23,70.07,22.147,70.07,20.762c0-1.714,1.494-2.891,3.615-2.891,2.1,0,3.538,1.177,3.587,2.891h-1.5c-.09-.991-.909-1.59-2.107-1.59s-2.017.605-2.017,1.487c0,.7.523,1.116,1.8,1.432l1.095.269c2.038.482,2.885,1.3,2.885,2.754,0,1.859-1.48,3.023-3.835,3.023-2.2,0-3.691-1.137-3.787-2.934Z" transform="translate(-41.503 -17.871)" fill="#fff"/>
            <path id="Path_9838" data-name="Path 9838" d="M82.71,19.3v1.714h1.377v1.177H82.71v3.993c0,.62.276.909.881.909a4.644,4.644,0,0,0,.489-.034v1.17a4.083,4.083,0,0,1-.826.069c-1.466,0-2.038-.551-2.038-1.955V22.191H80.163V21.014h1.053V19.3Z" transform="translate(-43.574 -18.157)" fill="#fff"/>
            <path id="Path_9839" data-name="Path 9839" d="M86.065,25.042c0-2.279,1.342-3.711,3.435-3.711s3.436,1.432,3.436,3.711-1.329,3.711-3.436,3.711S86.065,27.327,86.065,25.042Zm5.356,0c0-1.563-.716-2.486-1.921-2.486s-1.92.93-1.92,2.486.716,2.485,1.92,2.485,1.921-.916,1.921-2.485Z" transform="translate(-44.755 -18.563)" fill="#fff"/>
            <path id="Path_9840" data-name="Path 9840" d="M96.186,21.423H97.6v1.233h.034a1.728,1.728,0,0,1,1.742-1.309,2.293,2.293,0,0,1,.509.055v1.391a2.078,2.078,0,0,0-.668-.09,1.5,1.5,0,0,0-1.549,1.666v4.3H96.186Z" transform="translate(-46.779 -18.566)" fill="#fff"/>
            <path id="Path_9841" data-name="Path 9841" d="M107.751,26.536a2.907,2.907,0,0,1-3.119,2.217c-2.107,0-3.415-1.412-3.415-3.677s1.315-3.745,3.352-3.745c2,0,3.264,1.377,3.264,3.573v.509h-5.116v.09a1.886,1.886,0,0,0,1.948,2.052,1.639,1.639,0,0,0,1.673-1.019Zm-5.026-2.162h3.621a1.742,1.742,0,0,0-1.777-1.838,1.834,1.834,0,0,0-1.845,1.838Z" transform="translate(-47.785 -18.563)" fill="#fff"/>
          </g>
        </g>
      </g>
      <g id="_Group_4" data-name="&lt;Group&gt;" transform="translate(28.537 6.75)">
        <g id="Group_13534" data-name="Group 13534">
          <path id="Path_9842" data-name="Path 9842" d="M37.4,8.73A2.112,2.112,0,0,1,39.641,11.1,2.122,2.122,0,0,1,37.4,13.5H35.671V8.73Zm-.983,4.1h.9a1.5,1.5,0,0,0,1.574-1.717A1.5,1.5,0,0,0,37.312,9.4h-.9Z" transform="translate(-35.671 -8.494)" fill="#fff"/>
          <path id="Path_9843" data-name="Path 9843" d="M41.679,11.977a1.707,1.707,0,1,1,3.4,0,1.707,1.707,0,1,1-3.4,0Zm2.666,0c0-.781-.351-1.238-.966-1.238s-.966.457-.966,1.238.348,1.24.966,1.24.966-.456.966-1.24Z" transform="translate(-36.871 -8.771)" fill="#fff"/>
          <path id="Path_9844" data-name="Path 9844" d="M50.572,13.8h-.738l-.745-2.653h-.056L48.293,13.8h-.73l-.993-3.6h.721l.645,2.749h.053l.741-2.749h.682l.741,2.749h.056l.642-2.749h.711Z" transform="translate(-37.851 -8.789)" fill="#fff"/>
          <path id="Path_9845" data-name="Path 9845" d="M53.854,10.177h.684v.572h.053a1.078,1.078,0,0,1,1.075-.642,1.172,1.172,0,0,1,1.247,1.34v2.332H56.2V11.625c0-.579-.252-.867-.777-.867a.826.826,0,0,0-.86.913v2.107h-.711Z" transform="translate(-39.307 -8.77)" fill="#fff"/>
          <path id="Path_9846" data-name="Path 9846" d="M59.094,8.437H59.8v5.009h-.711Z" transform="translate(-40.355 -8.437)" fill="#fff"/>
          <path id="Path_9847" data-name="Path 9847" d="M61.216,11.977a1.707,1.707,0,1,1,3.4,0,1.707,1.707,0,1,1-3.4,0Zm2.666,0c0-.781-.351-1.238-.966-1.238s-.966.457-.966,1.238.348,1.24.966,1.24.966-.456.966-1.24Z" transform="translate(-40.778 -8.771)" fill="#fff"/>
          <path id="Path_9848" data-name="Path 9848" d="M66.4,12.761c0-.648.483-1.022,1.34-1.075l.976-.056v-.311c0-.38-.252-.6-.737-.6-.4,0-.672.146-.751.4H66.54c.073-.619.655-1.016,1.472-1.016.9,0,1.413.45,1.413,1.211V13.78H68.74v-.506h-.056a1.212,1.212,0,0,1-1.082.566,1.088,1.088,0,0,1-1.2-1.078Zm2.316-.308v-.3l-.88.056c-.5.033-.721.2-.721.52s.281.513.668.513a.849.849,0,0,0,.933-.788Z" transform="translate(-41.817 -8.771)" fill="#fff"/>
          <path id="Path_9849" data-name="Path 9849" d="M71.348,11.643c0-1.138.585-1.859,1.5-1.859a1.187,1.187,0,0,1,1.1.632H74V8.437h.711v5.009h-.681v-.569h-.056a1.25,1.25,0,0,1-1.131.629C71.927,13.505,71.348,12.784,71.348,11.643Zm.734,0c0,.764.36,1.224.963,1.224s.97-.466.97-1.221-.374-1.224-.97-1.224-.963.463-.963,1.221Z" transform="translate(-42.806 -8.437)" fill="#fff"/>
          <path id="Path_9850" data-name="Path 9850" d="M79.228,11.977a1.707,1.707,0,1,1,3.4,0,1.707,1.707,0,1,1-3.4,0Zm2.666,0c0-.781-.351-1.238-.966-1.238s-.966.457-.966,1.238.348,1.24.966,1.24S81.894,12.761,81.894,11.977Z" transform="translate(-44.381 -8.771)" fill="#fff"/>
          <path id="Path_9851" data-name="Path 9851" d="M84.669,10.177h.684v.572h.053a1.078,1.078,0,0,1,1.075-.642,1.172,1.172,0,0,1,1.247,1.34v2.332h-.711V11.625c0-.579-.252-.867-.777-.867a.826.826,0,0,0-.86.913v2.107h-.711Z" transform="translate(-45.47 -8.77)" fill="#fff"/>
          <path id="Path_9852" data-name="Path 9852" d="M93.194,9.074v.913h.78v.6h-.78v1.852c0,.377.155.543.509.543a2.373,2.373,0,0,0,.271-.016v.592a2.332,2.332,0,0,1-.387.036c-.791,0-1.105-.278-1.105-.973V10.586h-.572v-.6h.572V9.074Z" transform="translate(-46.919 -8.564)" fill="#fff"/>
          <path id="Path_9853" data-name="Path 9853" d="M95.7,8.437h.7v1.985h.056a1.109,1.109,0,0,1,1.1-.645A1.187,1.187,0,0,1,98.8,11.12v2.326h-.712V11.3c0-.575-.268-.867-.77-.867a.842.842,0,0,0-.907.913v2.1H95.7Z" transform="translate(-47.677 -8.437)" fill="#fff"/>
          <path id="Path_9854" data-name="Path 9854" d="M103.951,12.807a1.462,1.462,0,0,1-1.561,1.042,1.636,1.636,0,0,1-1.664-1.859,1.661,1.661,0,0,1,1.661-1.882c1,0,1.607.685,1.607,1.816v.248H101.45v.04a.952.952,0,0,0,.959,1.032.864.864,0,0,0,.857-.437Zm-2.5-1.161h1.82a.869.869,0,0,0-.887-.933.921.921,0,0,0-.933.933Z" transform="translate(-48.679 -8.771)" fill="#fff"/>
        </g>
      </g>
    </g>
  </g>
</svg>
