<svg xmlns="http://www.w3.org/2000/svg" xmlns:xlink="http://www.w3.org/1999/xlink" width="111.998" height="32" viewBox="0 0 111.998 32">
  <defs>
    <clipPath id="clip-path">
      <rect id="Rectangle_4047" data-name="Rectangle 4047" width="111.999" height="32" transform="translate(18172.641 2887.085)" fill="#fff"/>
    </clipPath>
  </defs>
  <g id="badge_google-play" data-name="badge/google-play" transform="translate(-18172.641 -2887.085)" clip-path="url(#clip-path)">
    <g id="Group_13535" data-name="Group 13535" transform="translate(18174.641 2857.789)">
      <path id="Path_9855" data-name="Path 9855" d="M104,61.3H4a4.012,4.012,0,0,1-4-4v-24a4.012,4.012,0,0,1,4-4H104a4.012,4.012,0,0,1,4,4v24a4.012,4.012,0,0,1-4,4Z" fill="#070203"/>
      <path id="Path_9856" data-name="Path 9856" d="M104,29.3H4a4.012,4.012,0,0,0-4,4v24a4.012,4.012,0,0,0,4,4H104a4.012,4.012,0,0,0,4-4v-24a4.012,4.012,0,0,0-4-4Zm0,.64a3.364,3.364,0,0,1,3.36,3.36v24a3.364,3.364,0,0,1-3.36,3.36H4A3.364,3.364,0,0,1,.64,57.3v-24A3.364,3.364,0,0,1,4,29.937H104" transform="translate(0 -0.001)" fill="#9f9c98"/>
      <path id="Path_9857" data-name="Path 9857" d="M201.259,156.187a7.24,7.24,0,0,0-.307-1.036l.461-.122a8.472,8.472,0,0,1,.333,1.017l-.487.141Zm-.927,3.691a19.959,19.959,0,0,0-.6-2.686l.473-.116a24.407,24.407,0,0,1,.634,2.68l-.506.122Zm3.652-3.147h-5.136v-.467h5.136v.467Zm.256,3.422v.473h-5.667v-.473h3.1a20.427,20.427,0,0,0,.947-3.077l.538.1a30.655,30.655,0,0,1-.973,2.974Z" transform="translate(-165.375 -104.713)" fill="#fff"/>
      <path id="Path_9858" data-name="Path 9858" d="M201.259,156.187a7.24,7.24,0,0,0-.307-1.036l.461-.122a8.472,8.472,0,0,1,.333,1.017l-.487.141Zm-.927,3.691a19.959,19.959,0,0,0-.6-2.686l.473-.116a24.407,24.407,0,0,1,.634,2.68l-.506.122Zm3.652-3.147h-5.136v-.467h5.136v.467Zm.256,3.422v.473h-5.667v-.473h3.1a20.427,20.427,0,0,0,.947-3.077l.538.1a30.655,30.655,0,0,1-.973,2.974Z" transform="translate(-165.375 -104.713)" fill="none"/>
      <path id="Path_9859" data-name="Path 9859" d="M243.465,160.908c0,.268-.058.4-.231.48a2.4,2.4,0,0,1-.927.083,1.622,1.622,0,0,0-.141-.454c.332.013.627.013.71.007s.121-.026.121-.115V157.7H241.84v5.021h-.466v-5.469h2.091v3.659Zm-3.147-1.126V158.9h-1.5v.883Zm-1.5-2.143v.832h1.5v-.832Zm1.247,2.9a13.74,13.74,0,0,1,.889,1.631l-.428.237c-.07-.173-.173-.4-.294-.639a10.2,10.2,0,0,0-1.957.761,2,2,0,0,0-.2-.486.426.426,0,0,0,.269-.4v-4.427h2.437v3h-1.963v1.567l1.215-.4c-.121-.224-.255-.454-.371-.652l.4-.192Z" transform="translate(-198.277 -106.53)" fill="#fff"/>
      <path id="Path_9860" data-name="Path 9860" d="M243.465,160.908c0,.268-.058.4-.231.48a2.4,2.4,0,0,1-.927.083,1.622,1.622,0,0,0-.141-.454c.332.013.627.013.71.007s.121-.026.121-.115V157.7H241.84v5.021h-.466v-5.469h2.091v3.659Zm-3.147-1.126V158.9h-1.5v.883Zm-1.5-2.143v.832h1.5v-.832Zm1.247,2.9a13.74,13.74,0,0,1,.889,1.631l-.428.237c-.07-.173-.173-.4-.294-.639a10.2,10.2,0,0,0-1.957.761,2,2,0,0,0-.2-.486.426.426,0,0,0,.269-.4v-4.427h2.437v3h-1.963v1.567l1.215-.4c-.121-.224-.255-.454-.371-.652l.4-.192Z" transform="translate(-198.277 -106.53)" fill="none"/>
      <path id="Path_9861" data-name="Path 9861" d="M279.693,158.488v1.138l.083-.1a15.775,15.775,0,0,1,2.27,1.324l-.332.429a14.571,14.571,0,0,0-2.021-1.273v3.365h-.506v-4.887h-2.444v-.473h5.648v.473Z" transform="translate(-230.477 -107.2)" fill="#fff"/>
      <path id="Path_9862" data-name="Path 9862" d="M279.693,158.488v1.138l.083-.1a15.775,15.775,0,0,1,2.27,1.324l-.332.429a14.571,14.571,0,0,0-2.021-1.273v3.365h-.506v-4.887h-2.444v-.473h5.648v.473Z" transform="translate(-230.477 -107.2)" fill="none"/>
      <path id="Path_9863" data-name="Path 9863" d="M320.891,156.4a5.462,5.462,0,0,0-.883-.9l.339-.23a4.772,4.772,0,0,1,.889.863l-.345.263Zm-2.52,2.629h-.812v.364h.812v-.364Zm0-.627h-.812v.358h.812V158.4Zm-1.969.991h.787v-.364H316.4v.364Zm0-.633h.787V158.4H316.4v.358Zm4.726-1.279a7.883,7.883,0,0,1-1.056,2.149c.2.6.455.934.755.934.166,0,.244-.307.282-1.094a1.024,1.024,0,0,0,.383.243c-.077,1.01-.243,1.311-.71,1.311s-.793-.358-1.042-.959a5.23,5.23,0,0,1-1.069.959,2.17,2.17,0,0,0-.339-.352,3.445,3.445,0,0,0,.4-.281h-1.151v.639h-.421v-.639h-1.369v-.371h1.369v-.345h-1.12v-1.555h1.113v-.345H315.89v-.358h1.267v-.4h.435v.4h1.285v.358h-1.285v.345h1.151v1.555h-1.158v.345H318.9v.23a4.767,4.767,0,0,0,.659-.691,12.973,12.973,0,0,1-.39-2.565h-3.453v-.4h1.439v-.512H316v-.384h1.152v-.512h.453v.512h1.152v.384h-1.152v.512h1.541c-.025-.448-.038-.914-.038-1.394h.48c-.006.486.006.953.026,1.394h1.792v.4h-1.772a14.429,14.429,0,0,0,.275,2.066,7.061,7.061,0,0,0,.787-1.721l.428.141Z" transform="translate(-262.935 -104.841)" fill="#fff"/>
      <path id="Path_9864" data-name="Path 9864" d="M320.891,156.4a5.462,5.462,0,0,0-.883-.9l.339-.23a4.772,4.772,0,0,1,.889.863l-.345.263Zm-2.52,2.629h-.812v.364h.812v-.364Zm0-.627h-.812v.358h.812V158.4Zm-1.969.991h.787v-.364H316.4v.364Zm0-.633h.787V158.4H316.4v.358Zm4.726-1.279a7.883,7.883,0,0,1-1.056,2.149c.2.6.455.934.755.934.166,0,.244-.307.282-1.094a1.024,1.024,0,0,0,.383.243c-.077,1.01-.243,1.311-.71,1.311s-.793-.358-1.042-.959a5.23,5.23,0,0,1-1.069.959,2.17,2.17,0,0,0-.339-.352,3.445,3.445,0,0,0,.4-.281h-1.151v.639h-.421v-.639h-1.369v-.371h1.369v-.345h-1.12v-1.555h1.113v-.345H315.89v-.358h1.267v-.4h.435v.4h1.285v.358h-1.285v.345h1.151v1.555h-1.158v.345H318.9v.23a4.767,4.767,0,0,0,.659-.691,12.973,12.973,0,0,1-.39-2.565h-3.453v-.4h1.439v-.512H316v-.384h1.152v-.512h.453v.512h1.152v.384h-1.152v.512h1.541c-.025-.448-.038-.914-.038-1.394h.48c-.006.486.006.953.026,1.394h1.792v.4h-1.772a14.429,14.429,0,0,0,.275,2.066,7.061,7.061,0,0,0,.787-1.721l.428.141Z" transform="translate(-262.935 -104.841)" fill="none"/>
      <path id="Path_9865" data-name="Path 9865" d="M249.107,73.381H250.6v-10h-1.493v10Zm13.446-6.4-1.711,4.336h-.051l-1.776-4.336h-1.608l2.663,6.06-1.518,3.371h1.557l4.1-9.431Zm-8.466,5.262c-.49,0-1.171-.244-1.171-.849,0-.772.849-1.068,1.582-1.068a2.662,2.662,0,0,1,1.364.335,1.809,1.809,0,0,1-1.775,1.583Zm.18-5.481A2.8,2.8,0,0,0,251.6,68.3l1.326.553a1.414,1.414,0,0,1,1.364-.733,1.437,1.437,0,0,1,1.57,1.287v.1a3.3,3.3,0,0,0-1.557-.386c-1.428,0-2.882.785-2.882,2.252a2.311,2.311,0,0,0,2.483,2.2,2.107,2.107,0,0,0,1.9-.978h.051v.772H257.3V69.53a2.743,2.743,0,0,0-3.036-2.766ZM245.042,68.2h-2.123V64.772h2.123a1.714,1.714,0,1,1,0,3.428ZM245,63.38h-3.577v10h1.492V69.592H245a3.111,3.111,0,1,0,0-6.212Zm-19.5,8.867a2.07,2.07,0,0,1,0-4.124,2.079,2.079,0,0,1,0,4.124Zm1.714-4.7h-.052a2.357,2.357,0,0,0-1.791-.76,3.406,3.406,0,0,0,0,6.8,2.318,2.318,0,0,0,1.791-.773h.052v.49c0,1.3-.7,2-1.817,2a1.883,1.883,0,0,1-1.714-1.211l-1.3.541a3.242,3.242,0,0,0,3.016,2.011c1.753,0,3.235-1.031,3.235-3.544V66.989h-1.418v.554Zm2.449,5.838h1.5v-10h-1.5v10Zm3.7-3.3a1.866,1.866,0,0,1,1.779-1.985,1.318,1.318,0,0,1,1.263.722l-3.042,1.263ZM238,68.948a3.163,3.163,0,0,0-2.913-2.165,3.234,3.234,0,0,0-3.209,3.4,3.33,3.33,0,0,0,3.377,3.4,3.384,3.384,0,0,0,2.835-1.508l-1.16-.773a1.943,1.943,0,0,1-1.675.941,1.731,1.731,0,0,1-1.65-1.031l4.55-1.882L238,68.948Zm-36.246-1.121V69.27h3.454a3.012,3.012,0,0,1-.786,1.817,3.536,3.536,0,0,1-2.668,1.057,3.841,3.841,0,0,1,0-7.681,3.682,3.682,0,0,1,2.6,1.031l1.018-1.018a5.036,5.036,0,0,0-3.622-1.456,5.285,5.285,0,1,0,0,10.568,4.831,4.831,0,0,0,3.686-1.482,4.77,4.77,0,0,0,1.25-3.377,4.713,4.713,0,0,0-.077-.9Zm8.863,4.421a2.067,2.067,0,1,1,1.92-2.062,1.968,1.968,0,0,1-1.92,2.062Zm0-5.465a3.4,3.4,0,1,0,3.415,3.4,3.354,3.354,0,0,0-3.415-3.4Zm7.45,5.465a2.067,2.067,0,1,1,1.92-2.062,1.968,1.968,0,0,1-1.92,2.062Zm0-5.465a3.4,3.4,0,1,0,3.415,3.4,3.354,3.354,0,0,0-3.415-3.4Z" transform="translate(-163.559 -28.085)" fill="#fff"/>
      <path id="Path_9866" data-name="Path 9866" d="M49.51,70.491l4.932,4.949a.861.861,0,0,1,0,1.215L49.5,81.691l.006-11.2Zm1.7-2.422,5.526,3.184,1.961,1.13L56.86,74.229a.855.855,0,0,1-1.211,0l-5.928-5.946a1.249,1.249,0,0,1,1.494-.215ZM50.6,84.137a1.187,1.187,0,0,1-.84-.361l5.893-5.91a.855.855,0,0,1,1.211,0l1.815,1.82L51.19,83.977a1.173,1.173,0,0,1-.594.159ZM63.177,77.05,60.211,78.8l-2.144-2.15a.861.861,0,0,1,0-1.215l2.168-2.174L63.187,75l.019.011a1.15,1.15,0,0,1,.605,1.009,1.163,1.163,0,0,1-.634,1.026Zm.932-3.527L52.075,66.589a2.9,2.9,0,0,0-1.479-.406,2.833,2.833,0,0,0-2.784,2.147,2.986,2.986,0,0,0-.092.717V83.015a4.678,4.678,0,0,0,.1.713,2.88,2.88,0,0,0,4.224,1.733l12.039-6.9a2.859,2.859,0,0,0,.025-5.034Z" transform="translate(-39.742 -30.72)" fill="#fff"/>
      <path id="Path_9867" data-name="Path 9867" d="M56.707,122.245l-8.517,9.04v.006a2.3,2.3,0,0,0,3.389,1.388l.027-.016,9.587-5.532-4.487-4.885Z" transform="translate(-40.134 -77.41)" fill="#dd231b"/>
      <path id="Path_9868" data-name="Path 9868" d="M106.789,101.056l-.008-.005-4.139-2.4-4.663,4.15,4.679,4.678,4.117-2.375a2.3,2.3,0,0,0,.014-4.048Z" transform="translate(-81.599 -57.76)" fill="#feb300"/>
      <path id="Path_9869" data-name="Path 9869" d="M47.8,73.69a2.259,2.259,0,0,0-.078.592V90.256a2.221,2.221,0,0,0,.079.591l8.81-8.808L47.8,73.69Z" transform="translate(-39.742 -36.972)" fill="#3568b0"/>
      <path id="Path_9870" data-name="Path 9870" d="M56.768,73.754l4.408-4.407L51.6,63.795a2.3,2.3,0,0,0-3.412,1.378v0l8.581,8.579Z" transform="translate(-40.131 -28.457)" fill="#2e9333"/>
    </g>
  </g>
</svg>
