<svg id="_icon_address" data-name=" icon_address" xmlns="http://www.w3.org/2000/svg" xmlns:xlink="http://www.w3.org/1999/xlink" width="20" height="20" viewBox="0 0 20 20">
  <defs>
    <clipPath id="clip-path">
      <rect id="Rectangle_9" data-name="Rectangle 9" width="20" height="20" fill="none"/>
    </clipPath>
  </defs>
  <g id="Group_6" data-name="Group 6" clip-path="url(#clip-path)">
    <path id="Path_47" data-name="Path 47" d="M59.167,35.833h-8.75A.417.417,0,0,1,50,35.417V21.25A1.251,1.251,0,0,1,51.25,20h7.083a1.251,1.251,0,0,1,1.25,1.25V35.417A.417.417,0,0,1,59.167,35.833ZM50.833,35H58.75V21.25a.417.417,0,0,0-.417-.417H51.25a.417.417,0,0,0-.417.417Z" transform="translate(-44.792 -17.917)" fill="#fff"/>
    <path id="Path_48" data-name="Path 48" d="M23.542,67.143H21.25A1.251,1.251,0,0,1,20,65.893V56.727a.417.417,0,0,1,.25-.382l3.125-1.359a.417.417,0,0,1,.583.382V66.727A.417.417,0,0,1,23.542,67.143ZM20.833,57v8.893a.417.417,0,0,0,.417.417h1.875V56Z" transform="translate(-17.917 -49.227)" fill="#fff"/>
    <path id="Path_49" data-name="Path 49" d="M136.708,67.144h-2.292a.417.417,0,0,1-.417-.417V55.368a.417.417,0,0,1,.583-.382l3.125,1.359a.417.417,0,0,1,.25.382v9.167A1.251,1.251,0,0,1,136.708,67.144Zm-1.875-.833h1.875a.417.417,0,0,0,.417-.417V57l-2.292-1Z" transform="translate(-120.042 -49.227)" fill="#fff"/>
    <path id="Path_50" data-name="Path 50" d="M76.583,121.417H72.417A.417.417,0,0,1,72,121v-4.583a.417.417,0,0,1,.417-.417h4.167a.417.417,0,0,1,.417.417V121A.417.417,0,0,1,76.583,121.417Zm-3.75-.833h3.333v-3.75H72.833Z" transform="translate(-64.5 -103.917)" fill="#fff"/>
    <path id="Path_51" data-name="Path 51" d="M68.294,37.631H67.57a.417.417,0,0,1,0-.833h.724a.417.417,0,0,1,0,.833Z" transform="translate(-60.158 -32.965)" fill="#fff"/>
    <path id="Path_52" data-name="Path 52" d="M89.663,37.631h-.725a.417.417,0,1,1,0-.833h.725a.417.417,0,1,1,0,.833Z" transform="translate(-79.301 -32.965)" fill="#fff"/>
    <path id="Path_53" data-name="Path 53" d="M111.033,37.631h-.724a.417.417,0,0,1,0-.833h.724a.417.417,0,1,1,0,.833Z" transform="translate(-98.445 -32.965)" fill="#fff"/>
    <path id="Path_54" data-name="Path 54" d="M68.294,56.032H67.57a.417.417,0,0,1,0-.833h.724a.417.417,0,0,1,0,.833Z" transform="translate(-60.158 -49.449)" fill="#fff"/>
    <path id="Path_55" data-name="Path 55" d="M89.663,56.032h-.725a.417.417,0,1,1,0-.833h.725a.417.417,0,1,1,0,.833Z" transform="translate(-79.301 -49.449)" fill="#fff"/>
    <path id="Path_56" data-name="Path 56" d="M111.033,56.032h-.724a.417.417,0,0,1,0-.833h.724a.417.417,0,1,1,0,.833Z" transform="translate(-98.445 -49.449)" fill="#fff"/>
    <path id="Path_57" data-name="Path 57" d="M68.294,74.432H67.57a.417.417,0,0,1,0-.833h.724a.417.417,0,0,1,0,.833Z" transform="translate(-60.158 -65.932)" fill="#fff"/>
    <path id="Path_58" data-name="Path 58" d="M89.663,74.432h-.725a.417.417,0,1,1,0-.833h.725a.417.417,0,1,1,0,.833Z" transform="translate(-79.301 -65.932)" fill="#fff"/>
    <path id="Path_59" data-name="Path 59" d="M111.033,74.432h-.724a.417.417,0,1,1,0-.833h.724a.417.417,0,1,1,0,.833Z" transform="translate(-98.445 -65.932)" fill="#fff"/>
    <path id="Path_60" data-name="Path 60" d="M68.294,92.833H67.57a.417.417,0,0,1,0-.833h.724a.417.417,0,0,1,0,.833Z" transform="translate(-60.158 -82.417)" fill="#fff"/>
    <path id="Path_61" data-name="Path 61" d="M89.663,92.833h-.725a.417.417,0,1,1,0-.833h.725a.417.417,0,1,1,0,.833Z" transform="translate(-79.301 -82.417)" fill="#fff"/>
    <path id="Path_62" data-name="Path 62" d="M111.033,92.833h-.724a.417.417,0,1,1,0-.833h.724a.417.417,0,1,1,0,.833Z" transform="translate(-98.445 -82.417)" fill="#fff"/>
    <path id="Path_63" data-name="Path 63" d="M146.663,83.274h-.725a.417.417,0,1,1,0-.833h.725a.417.417,0,1,1,0,.833Z" transform="translate(-130.363 -73.853)" fill="#fff"/>
    <path id="Path_64" data-name="Path 64" d="M146.663,101.675h-.725a.417.417,0,1,1,0-.833h.725a.417.417,0,1,1,0,.833Z" transform="translate(-130.363 -90.338)" fill="#fff"/>
    <path id="Path_65" data-name="Path 65" d="M146.663,120.076h-.725a.417.417,0,1,1,0-.833h.725a.417.417,0,1,1,0,.833Z" transform="translate(-130.363 -106.822)" fill="#fff"/>
    <path id="Path_66" data-name="Path 66" d="M32.663,83.274h-.725a.417.417,0,1,1,0-.833h.725a.417.417,0,1,1,0,.833Z" transform="translate(-28.238 -73.853)" fill="#fff"/>
    <path id="Path_67" data-name="Path 67" d="M32.663,101.675h-.725a.417.417,0,1,1,0-.833h.725a.417.417,0,1,1,0,.833Z" transform="translate(-28.238 -90.338)" fill="#fff"/>
    <path id="Path_68" data-name="Path 68" d="M32.663,120.076h-.725a.417.417,0,1,1,0-.833h.725a.417.417,0,1,1,0,.833Z" transform="translate(-28.238 -106.822)" fill="#fff"/>
  </g>
</svg>
