<svg id="圖層_1" data-name="圖層 1" xmlns="http://www.w3.org/2000/svg" width="255.294" height="30" viewBox="0 0 255.294 30">
  <path id="Path_531" data-name="Path 531" d="M29.093,9.535A15.183,15.183,0,0,1,10.22,29.273a15.107,15.107,0,0,1-2.369-27.5,15.335,15.335,0,0,1,15.972,1A15.4,15.4,0,0,1,29.093,9.535Z" transform="translate(-0.055 0.001)" fill="#009e96"/>
  <path id="Path_532" data-name="Path 532" d="M27.422,14.6h.486c-.091-.3-.547-.182-.714-.455a.865.865,0,0,1,.592.121h0c-.091,0-.3,0-.243-.243a14.955,14.955,0,0,1-3.811-2.11c-.957-.562-1.518-1.883-2.551-2.247a4.084,4.084,0,0,1-.38-.774h-.121a4.782,4.782,0,0,1-.395-.79.79.79,0,0,0-.653-.288c-.334.182-.835-.121-1.048,0l.182.091a.209.209,0,0,1-.273.167,10.8,10.8,0,0,1-1.746-1.883c.273-.774-.714-.957-1.078-1.518s-1.154,0-1.67.152a13.315,13.315,0,0,0-2.6-.5c-.364.091-.577.5-.759.744A17.853,17.853,0,0,1,9.294,7.691c-.182.334-.638.182-.881.44A2.748,2.748,0,0,0,6.9,8.586a.119.119,0,0,1-.152.121,4.95,4.95,0,0,1-.486.714c-.44.607-1.275.79-1.913,1.169a8.867,8.867,0,0,0-2.126,1.594h0c-.319.5-.8.774-1.139,1.23.334-.091.273-.486.668-.425.091.243-.213.334-.243.486s.273-.152.395-.121-.213.288-.364.41c.152,0,.121.091.182.121s.38-.243.592-.121l-.5.486h0c.106,0,.2,0,.258-.091a1.35,1.35,0,0,1,.577-.364l-.334.455.364-.273c.091.121-.213.213,0,.334.273-.121.319-.395.562-.516,0,.243-.288.425-.41.638.121-.121.471-.213.41-.455A3.765,3.765,0,0,0,4,13.293c.653-.729,1.124-1.518,2.126-1.716h0c.531-.471,1.366-.471,1.883-1.017.091-.121.243-.38.44-.319h0a.258.258,0,0,1,.3-.182v.121c.425-.486,1.139-.3,1.518-.759h0a2.505,2.505,0,0,0,1.078-.987,2.915,2.915,0,0,1,.531-.774,3.28,3.28,0,0,1,.41-.79,2.232,2.232,0,0,1,.9,0c.349.5.987.228,1.518.258,0,.273.3,0,.334.273.455.213.607.9.987,1.26a1.184,1.184,0,0,0-.592.744c-.395,0,0,.486-.425.516a.319.319,0,0,1,.486,0l-.091.091c-.455.228-.9.531-1.351.8h0c-.121.091-.243.243-.334.3h.152s-.091,0,0,.121h.091v.182h0c.152,0,.3-.228.425-.106s0,0,0,.106c.152-.228.334,0,.41,0-.2.182-.471.395-.714.577h.243c-.091.273-.425.182-.577.425.182,0,0,.228,0,.258s.243-.182.395-.091c-.091.213-.364.243-.395.486.213-.121.334-.486.607-.364,0,.091-.182.121-.091.273s.213-.182.364-.121a.106.106,0,0,1,0,.076c.106-.152.349,0,.471-.121.425-.592,1.23-.5,1.822-.774V11.9c.091-.364.638-.273.926-.395.091-.38.577-.091.729-.44s.319,0,.5,0a2.051,2.051,0,0,0,.79-.213c.562-.121,1.048.592,1.366.926a8.563,8.563,0,0,0,2.794,2.065c-.516-.364-1.048-.623-1.518-1.017,0-.091.121,0,.182,0,.44.334.9.577,1.351.9a11.979,11.979,0,0,0,3.037,1.609l-.152-.121v-.121l.213.121c0-.121.167-.121.258-.152-.152-.288-.531-.38-.8-.531a10.719,10.719,0,0,1-2.414-1.4h0a18.706,18.706,0,0,0,2.763,1.366c.152.3.38.121.623.213C27.544,14.69,27.422,14.69,27.422,14.6Z" transform="translate(0.477 2.241)" fill="#fff"/>
  <path id="Path_533" data-name="Path 533" d="M10.3,8.29h-.152c.091.258-.2.2-.3.288V8.411l-.243.182c0,.258-.395.091-.425.349.213,0,.395-.288.668-.258C9.848,8.5,10.152,8.411,10.3,8.29Z" transform="translate(4.675 4.298)" fill="#fff"/>
  <path id="Path_534" data-name="Path 534" d="M9.4,8.41c-.152.091-.273.091-.334.258A.531.531,0,0,0,9.4,8.41Z" transform="translate(4.618 4.36)" fill="#fff"/>
  <path id="Path_535" data-name="Path 535" d="M103.35,9.57h7.591V11.3H105.4v2.277h5.147v1.716H105.4v2.778h5.709v1.716H103.35Z" transform="translate(53.483 4.962)" fill="#009e96"/>
  <path id="Path_536" data-name="Path 536" d="M115.065,16.343a2.08,2.08,0,0,0,2.217,1.959c1.518,0,2.019-.759,2.019-1.412s-.714-1.048-2.6-1.518c-1.017-.258-3.28-.8-3.28-3.037,0-1.108.729-2.854,3.735-2.854,1.989,0,3.826.79,3.9,3.037L119,12.608c-.091-.531-.243-1.518-1.868-1.518-.607,0-1.731.182-1.731,1s.638.957,2.293,1.336,3.659.865,3.659,3.386a3.037,3.037,0,0,1-1.67,2.687,5.906,5.906,0,0,1-2.414.455A3.72,3.72,0,0,1,113,16.51Z" transform="translate(58.484 4.915)" fill="#009e96"/>
  <path id="Path_537" data-name="Path 537" d="M122.97,9.57V15.1a4.555,4.555,0,0,0,.258,2.2,1.943,1.943,0,0,0,1.822.9c1.959,0,1.959-1.245,1.959-3.037V9.57h2.065v5.375a6.635,6.635,0,0,1-.577,3.614,3.872,3.872,0,0,1-3.4,1.412c-4.175,0-4.175-2.581-4.175-4.95V9.57Z" transform="translate(62.589 4.962)" fill="#009e96"/>
  <path id="Path_538" data-name="Path 538" d="M129.065,9.57h1.989l4.16,6.832h0V9.57h1.913V19.788h-2.08l-4.084-6.665h0v6.665H129.05Z" transform="translate(66.803 4.962)" fill="#009e96"/>
  <path id="Path_539" data-name="Path 539" d="M112.242,15.891a1.321,1.321,0,1,0-1.306,1.321,1.306,1.306,0,0,0,1.306-1.321Z" transform="translate(56.722 7.553)" fill="#009e96"/>
  <path id="Path_540" data-name="Path 540" d="M143.827,11.551a3.947,3.947,0,0,1,1.215.152.956.956,0,0,1,.547.972.987.987,0,0,1-.41.911,2.08,2.08,0,0,1-1.093.258h-2.49V11.551Zm.319,3.993a2.627,2.627,0,0,1,1.032.182,1.093,1.093,0,0,1,.653,1.108,1.321,1.321,0,0,1-.668,1.291,2.521,2.521,0,0,1-1.063.182h-2.505V15.544Zm.364-5.77h-4.98V20.069h4.646a7.425,7.425,0,0,0,1.518-.137,2.672,2.672,0,0,0,1.154-.516,2.855,2.855,0,0,0,.729-.8,3.037,3.037,0,0,0,.456-1.64,2.642,2.642,0,0,0-.395-1.518,2.232,2.232,0,0,0-1.169-.911,2.733,2.733,0,0,0,.774-.592,2.353,2.353,0,0,0,.471-1.518,2.733,2.733,0,0,0-.471-1.518,3.158,3.158,0,0,0-2.733-1.139Z" transform="translate(72.235 5.061)" fill="#009e96"/>
  <path id="Path_541" data-name="Path 541" d="M151.224,12.123l1.306,4.054h-2.642Zm-4.874,7.941H148.6l.714-2.11h3.781l.683,2.11H156.1L152.469,9.77h-2.444Z" transform="translate(75.77 5.065)" fill="#009e96"/>
  <path id="Path_542" data-name="Path 542" d="M154.14,9.77h2.247l4.069,7.166V9.77h1.989V20.064h-2.126l-4.19-7.3v7.3H154.14Z" transform="translate(79.807 5.065)" fill="#009e96"/>
  <path id="Path_543" data-name="Path 543" d="M162.2,9.77h2.141v4.236l3.978-4.236H171.1l-4.221,4.251,4.433,6.073h-2.763l-3.173-4.555-1.032,1.048v3.431H162.2Z" transform="translate(83.985 5.065)" fill="#009e96"/>
  <path id="Path_544" data-name="Path 544" d="M56.92,19h4.327V6.4H64.36V23.192H61.247V22.054l-11.919-.03L49.3,23.1H46.11V6.248H49.3V19l4.388-.03V3.5H56.92Z" transform="translate(23.816 1.816)" fill="#00a19b"/>
  <path id="Path_545" data-name="Path 545" d="M38.056,19.735V14.178h6.635V11.141l-6.635-.03V6.723h7.106V3.58H27.747V6.723h7.015v4.388H28.187v3.067h6.574v5.557h-8v3.1H46.027v-3.1Z" transform="translate(13.787 1.857)" fill="#00a19b"/>
  <path id="Path_546" data-name="Path 546" d="M36.6,11.219a1.959,1.959,0,0,0-1.321,1.609,1.9,1.9,0,0,0,.425,1.412,1.974,1.974,0,0,0,2.065.592,1.943,1.943,0,0,0,1.245-1.306,2.126,2.126,0,0,0-.228-1.518,1.943,1.943,0,0,0-2.186-.79Z" transform="translate(18.199 5.773)" fill="#00a19b"/>
  <rect id="Rectangle_33" data-name="Rectangle 33" width="3.128" height="2.004" transform="matrix(0.213, -0.977, 0.977, 0.213, 104.012, 20.077)" fill="#00a19b"/>
  <path id="Path_547" data-name="Path 547" d="M81.7,18.227l2.733-1.974S82.64,14.417,82.58,14.4s-1.518,1.017-2.186,1.518a9.459,9.459,0,0,1-.38-2.065h3.325V3.788H73.895V19.852l-.911.167v-1.26l-2.566.44V14.644h2.824V12.063H70.357v-.972h2.05V9.862l.2.137,1.291-2.93A7.03,7.03,0,0,1,70.57,3.5H67.913A8.214,8.214,0,0,1,64.36,7.63l1.306,2.945.547-.5v1.017h1.655v.972H64.831v2.52h3.037v5.056l-3.128.547v2.778l7.91-1.518v1.518L79,21.811V19.275a9.565,9.565,0,0,0,4.039,3.7l1.336-2.642A12.784,12.784,0,0,1,81.7,18.227ZM67.715,8.586a11.737,11.737,0,0,0,1.518-1.943,9,9,0,0,0,1.655,1.943Zm8.958-2.05h3.841V7.858H76.673Zm0,12.83V13.779h.8A10.628,10.628,0,0,0,78.769,19Zm0-7.88V10.15h3.841v1.336Z" transform="translate(33.274 1.816)" fill="#00a19b"/>
  <path id="Path_548" data-name="Path 548" d="M67.126,14.69l-.471-3.34-2.065.38.471,3.371Z" transform="translate(33.394 5.884)" fill="#00a19b"/>
  <rect id="Rectangle_34" data-name="Rectangle 34" width="10.992" height="2.945" transform="translate(133.967 5.422)" fill="#00a19b"/>
  <path id="Path_549" data-name="Path 549" d="M102.777,8.258H90.008L87.852,6.74A21.954,21.954,0,0,1,83.1,12.327l1.366,3.219s.623-.547,1.518-1.4v6.984h3.037V10.642A18.534,18.534,0,0,0,90.054,9v2.171h6.832v6.589a.44.44,0,0,1-.425.425H92.893l1.169,2.93h3.583a2.2,2.2,0,0,0,2.217-2.2V11.173h2.915Z" transform="translate(42.987 3.495)" fill="#00a19b"/>
  <path id="Path_550" data-name="Path 550" d="M89.941,5.131c-.865-.577-1.7-1.2-2.536-1.761A18.675,18.675,0,0,1,83.2,7.363l1.4,2.9a22.562,22.562,0,0,0,5.344-5.132Z" transform="translate(43.039 1.748)" fill="#00a19b"/>
</svg>
