<?xml version="1.0" encoding="UTF-8"?><svg id="_圖層_2" xmlns="http://www.w3.org/2000/svg" xmlns:xlink="http://www.w3.org/1999/xlink" viewBox="0 0 192 192"><defs><style>.cls-1,.cls-2{fill:none;}.cls-3{clip-path:url(#clippath);}.cls-2{stroke:#009e96;stroke-linecap:round;stroke-linejoin:round;stroke-width:8px;}</style><clipPath id="clippath"><rect class="cls-1" width="192" height="192"/></clipPath></defs><g id="_轉外框"><g class="cls-3"><path class="cls-2" d="M126.49,50.9c24.09,7.8,41.51,30.41,41.51,57.1,0,33.14-26.86,60-60,60s-60-26.86-60-60c0-7.19,1.26-14.09,3.58-20.47"/><path class="cls-2" d="M78.71,80.79s-6.49-58.15,49.29-56.79c0,0,6.94,55.76-49.29,56.79Z"/><path class="cls-2" d="M76,81.56s-13.25-40.47-52-21.56c0,0,8.4,39.52,52,21.56Z"/><path class="cls-2" d="M44,69.32s17.07,9.41,32,12.24"/><path class="cls-2" d="M113.95,40s-25.7,39.68-35.23,40.79v26.57"/><path class="cls-2" d="M120.26,62.05s14.11,10.62,6.87,18.73c-7.24,8.11-24.86,10.92-15.14,24.72,9.73,13.8,13.14,7.98,14.92,20.62s34.14,15.3,36.14-41.24"/><path class="cls-2" d="M68,150.95s4.73,1.07,10.71-12.86,25.29-12.41,29.29,6.87c3.98,19.18,25.7,17.68,32,14.19"/></g></g></svg>