<?xml version="1.0" encoding="UTF-8"?><svg id="_圖層_2" xmlns="http://www.w3.org/2000/svg" xmlns:xlink="http://www.w3.org/1999/xlink" viewBox="0 0 192 192"><defs><style>.cls-1,.cls-2,.cls-3{fill:none;}.cls-4{clip-path:url(#clippath);}.cls-2{stroke:#009e96;}.cls-2,.cls-3{stroke-linecap:round;stroke-linejoin:round;stroke-width:8px;}.cls-3{stroke:#00a19b;}</style><clipPath id="clippath"><rect class="cls-1" width="192" height="192"/></clipPath></defs><g id="_轉外框"><g class="cls-4"><path class="cls-3" d="M99.69,62.23v-29.5c0-4.58-3.71-8.29-8.29-8.29H32.29c-4.58,0-8.29,3.71-8.29,8.29v127.58c0,4.58,3.71,8.29,8.29,8.29h59.12c4.58,0,8.29-3.71,8.29-8.29v-34.11"/><path class="cls-2" d="M38.21,24.44l4.87,11.64c1.01,2.4,3.21,3.94,5.64,3.94h23.42c2.3,0,4.41-1.38,5.48-3.59l5.83-12"/><line class="cls-2" x1="24.88" y1="139.82" x2="96.33" y2="139.82"/><rect class="cls-3" x="69.89" y="62.23" width="78.73" height="38.79"/><polygon class="cls-3" points="51.15 126.2 168 126.2 148.63 101.02 69.89 101.02 51.15 126.2"/><line class="cls-3" x1="101.35" y1="87.29" x2="134.95" y2="87.29"/></g></g></svg>