<?xml version="1.0" encoding="UTF-8"?><svg id="_圖層_2" xmlns="http://www.w3.org/2000/svg" xmlns:xlink="http://www.w3.org/1999/xlink" viewBox="0 0 192 192"><defs><style>.cls-1{fill:none;}.cls-2{clip-path:url(#clippath);}.cls-3{fill:#1c1c1c;}</style><clipPath id="clippath"><rect class="cls-1" width="192" height="192"/></clipPath></defs><g id="_轉外框"><g class="cls-2"><g><path class="cls-3" d="M101.22,39.37c-1.98-.98-4.38-.17-5.36,1.82-.98,1.98-.16,4.38,1.82,5.36,14.36,7.09,22.93,22.56,21.32,38.51-.22,2.2,1.38,4.16,3.58,4.38,.14,.01,.27,.02,.41,.02,2.03,0,3.77-1.54,3.97-3.6,1.95-19.25-8.4-37.93-25.74-46.48Z"/><path class="cls-3" d="M168.31,163.26l-42.14-42.17c8.27-9.41,13.42-21.11,14.71-33.83,1.63-16.1-3.11-31.87-13.35-44.41-10.23-12.54-24.74-20.34-40.84-21.96-16.11-1.63-31.88,3.11-44.41,13.35-12.54,10.24-20.34,24.74-21.96,40.84-1.63,16.1,3.11,31.87,13.35,44.41,10.23,12.54,24.74,20.34,40.84,21.96,2.08,.21,4.15,.31,6.21,.31,13.91,0,27.28-4.75,38.2-13.66,.54-.44,1.07-.91,1.59-1.37l42.15,42.18s.05,.04,.07,.06c.77,.74,1.76,1.12,2.76,1.12s2.05-.39,2.83-1.17c1.56-1.56,1.56-4.09,0-5.66Zm-54.46-41.36c-10.88,8.88-24.57,12.99-38.55,11.58-13.98-1.41-26.57-8.18-35.45-19.07s-13-24.57-11.58-38.55c1.41-13.98,8.18-26.57,19.06-35.45,9.48-7.74,21.09-11.86,33.16-11.86,1.79,0,3.59,.09,5.39,.27,13.98,1.41,26.56,8.18,35.45,19.07,8.88,10.88,13,24.57,11.58,38.55-1.41,13.98-8.18,26.57-19.07,35.45Z"/></g></g></g></svg>