<?xml version="1.0" encoding="UTF-8"?><svg id="_圖層_2" xmlns="http://www.w3.org/2000/svg" xmlns:xlink="http://www.w3.org/1999/xlink" viewBox="0 0 579.41 396.67"><defs><style>.cls-1,.cls-2,.cls-3,.cls-4,.cls-5,.cls-6,.cls-7,.cls-8,.cls-9{fill:none;}.cls-2{stroke:#bde3e2;}.cls-2,.cls-3,.cls-4{stroke-width:1.5px;}.cls-2,.cls-10,.cls-5,.cls-6,.cls-8,.cls-9{stroke-miterlimit:10;}.cls-11{clip-path:url(#clippath);}.cls-12{fill:#f8960b;}.cls-13{fill:#005154;}.cls-14{fill:#007a7a;}.cls-15{fill:#ed8a7c;}.cls-16{fill:#f3bf94;}.cls-17,.cls-18{fill:#fff;}.cls-19{fill:#ffde9a;}.cls-20{fill:#fafafa;}.cls-21{fill:#f90;}.cls-22{fill:#ffae00;}.cls-23{fill:#663f00;}.cls-24{fill:#7c7c7c;}.cls-25{fill:#acacac;}.cls-26,.cls-10{fill:#bde3e2;}.cls-27{fill:#d9d9d9;}.cls-28{fill:#87d4c7;}.cls-29{fill:#595959;}.cls-30{fill:#2b2b2b;}.cls-31{fill:#2d2429;}.cls-32{fill:#262328;}.cls-33{fill:#5fc7b9;}.cls-34{fill:#525252;}.cls-35{fill:url(#_未命名漸層_7);}.cls-3{stroke:#acacac;}.cls-3,.cls-4,.cls-7{stroke-linejoin:round;}.cls-4,.cls-7{stroke:#262328;}.cls-10{stroke:#fff;}.cls-5,.cls-8{stroke:#ffae00;}.cls-6{stroke:#f8960b;}.cls-7,.cls-8,.cls-9{stroke-width:.5px;}.cls-18{opacity:.75;}.cls-9{stroke:#5b4453;}</style><clipPath id="clippath"><rect class="cls-1" width="579.41" height="396.67" rx="12" ry="12"/></clipPath><radialGradient id="_未命名漸層_7" cx="270.05" cy="228.6" fx="270.05" fy="228.6" r="212.99" gradientUnits="userSpaceOnUse"><stop offset=".21" stop-color="#bbdfdc" stop-opacity=".8"/><stop offset="1" stop-color="#bedfde" stop-opacity="0"/></radialGradient></defs><g id="_圖層_1-2"><g class="cls-11"><g><path class="cls-35" d="M45,380.6c5.75,4.7,11.49,9.41,17.24,14.11H510.09c-1.19-6.24-5.24-12.46-9.61-17.24-6.93-7.58-15.45-15.22-16.2-25.63-1.57-21.74,29.68-30.36,35.96-51.16,2.98-9.87-.51-20.88-6.67-29.02-6.15-8.14-14.67-13.95-23.1-19.48-17.58-11.54-35.5-22.53-53.71-32.97-7.76-4.45-15.75-8.93-21.6-15.85-10.06-11.9-12.07-28.88-11.94-44.7s1.93-31.99-2.23-47.21c-7.18-26.28-32.04-45-58.18-48.33-26.13-3.33-52.71,6.99-73.49,23.77-16.96,13.69-30.49,31.37-46.19,46.6-15.7,15.23-34.81,28.45-56.27,29.83-20.44,1.32-40.87-8.26-61.04-4.53-7.13,1.32-14.19,4.48-18.92,10.17-12.45,15-3.74,37.61-1.21,57.22,3.76,29.15-9.35,59.96-32.65,76.73-12.67,9.12-29.31,16.04-33.41,31.45-4.83,18.18,11.07,34.55,25.34,46.23Z"/><g><line class="cls-4" x1="272.86" y1="311.01" x2="272.86" y2="382.01"/><polyline class="cls-4" points="304.95 385.37 304.95 382.01 231.35 382.01 231.35 385.37"/><path class="cls-29" d="M301.12,391.37c0,2.12,1.71,3.83,3.83,3.83s3.83-1.71,3.83-3.83-1.71-3.83-3.83-3.83-3.83,1.71-3.83,3.83Z"/><path class="cls-4" d="M310.95,391.37c0-3.32-2.69-6-6-6s-6,2.69-6,6"/><path class="cls-29" d="M250.45,391.37c0,2.12,1.71,3.83,3.83,3.83s3.83-1.71,3.83-3.83-1.71-3.83-3.83-3.83-3.83,1.71-3.83,3.83Z"/><path class="cls-4" d="M260.29,391.37c0-3.32-2.69-6-6-6s-6,2.69-6,6"/><path class="cls-29" d="M227.52,391.37c0,2.12,1.71,3.83,3.83,3.83s3.83-1.71,3.83-3.83-1.71-3.83-3.83-3.83-3.83,1.71-3.83,3.83Z"/><path class="cls-4" d="M237.35,391.37c0-3.32-2.69-6-6-6s-6,2.69-6,6"/><line class="cls-4" x1="254.28" y1="385.37" x2="254.28" y2="382.01"/><path class="cls-19" d="M316.11,315.84h-86.06c-3.06,0-5.75-2.19-6.61-5.37l-35.59-131.61c-.5-1.85,.78-3.7,2.56-3.7h83.61c2.4,0,4.51,1.72,5.19,4.22l36.9,136.46Z"/><path class="cls-8" d="M191.13,176.64c10.99,15.35,25.53,52.75,31.54,71.05,9.11,27.76,8.53,43.96,8.12,62.23h83"/></g><g><path class="cls-16" d="M262.75,184.41h0l1.55-18.42-15.04-.26-3.45,16.47c-.42,1.48,10.76,22.13,16.49,27.75,2.63-4.71,3.41-12.06,3.09-19.15-.09-1.91-1.24-5.17-2.63-6.38Z"/><path class="cls-16" d="M263.35,177.27l.95-11.28-10.49-.18v6.34c0,4,3.24,7.24,7.24,7.24h0c1.2,0,2.2-.92,2.3-2.11Z"/><path class="cls-16" d="M248.47,159.44c.63,4.7,2.14,8.93,5.17,12.23,3.06,3.34,8.48,5.53,11.57,5.32,2.86-.2,5.99-3.18,8.22-8.78,1.52-3.83,.63-8.38,.54-12.56-.03-1.38-.17-3.09-.15-4.41,.15-8.72-7.37-13.75-13.32-12.96-13.43,1.78-13.3,11.69-12.03,21.15Z"/><path class="cls-30" d="M250.61,160.41c-1.16,.92-5.01-2.65-5.26-3.46-3.15-10.28,7.82-19.04,15.39-19.94,4.58-.54,13.47,3.57,13.24,13.36-1.7-7.62-8.53-5.66-11.77-11.05-.36,9.17-10.24,8.73-11.61,21.08Z"/><g><path class="cls-30" d="M271.36,157.34c-.04,.67,.28,1.23,.72,1.25,.44,.03,.82-.49,.86-1.16,.04-.67-.28-1.23-.72-1.25-.44-.03-.82,.49-.86,1.16Z"/><path class="cls-30" d="M261.49,157.49c.01,.72,.45,1.29,.99,1.29s.96-.6,.95-1.31c-.01-.72-.45-1.29-.99-1.29-.53,0-.96,.6-.95,1.31Z"/></g><path class="cls-30" d="M273.93,152.14c-.88-.66-2.21-.77-3.51-.3-.58,.21-.43,1.33,.13,1.09,.95-.39,2.3-.58,3.37,.14v-.93Z"/><path class="cls-30" d="M267.13,164.66s-.03,0-.04,0c-.05,0-.09-.04-.09-.09,0-.05,.04-.09,.09-.09,.01,0,.03,0,.04,0,1.16,0,2.5-.36,2.77-1.17,.07-.22-.14-.74-.41-1.41-.47-1.15-1.1-2.72-1.09-4.52,0-.05,.04-.09,.09-.09h0s.09,.04,.09,.09c-.01,1.77,.62,3.32,1.08,4.46,.3,.75,.51,1.25,.41,1.53-.29,.89-1.72,1.29-2.94,1.29Z"/><path class="cls-34" d="M249.28,159.62c-.06,0-.12-.04-.14-.11-.78-3.25,.82-9.64,4.04-13.01,.57-.59,1.23-1.2,1.93-1.85,2.73-2.51,5.82-5.35,4.89-8.72-.02-.08,.02-.15,.1-.17,.08-.02,.15,.02,.17,.1,.98,3.54-2.18,6.44-4.97,9-.7,.64-1.36,1.25-1.92,1.83-3.16,3.31-4.73,9.57-3.97,12.74,.02,.08-.03,.15-.1,.17-.01,0-.02,0-.03,0Z"/><path class="cls-16" d="M251.46,160.04s-3.54-4.42-5.98-3.14c-2.53,1.32-.14,8.72,4.17,9.8,6.39,1.6,2.04-6.37,1.81-6.66Z"/><path class="cls-15" d="M269.15,169.38c-1.19,.28-2.79,.2-4.32-1.32-.12-.12-.13-.33,0-.45,.12-.12,.33-.12,.45,0,2.54,2.53,5.22,.53,5.34,.44,.14-.11,.34-.08,.45,.06,.11,.14,.08,.34-.06,.45-.02,.01-.76,.57-1.85,.83Z"/><path class="cls-31" d="M236.89,148.55c3.72-13.21,13.92-12.73,19.74-13.54,18.27-2.55,20.85,14.94,17.25,19.17-3.79-12.13-10.81-10.72-10.81-10.72-.22,9.22-5.58,13.57-11.25,16.36-.37,.18-.71,1.71-.85,2.09-.39,1.06-.69,2.06-.86,3.21-.35,2.32-.6,2.21-1.72,4.26-1.19,2.2-3.51,4.44-3.51,4.44,0,0-11.49-12.81-7.98-25.28Z"/><path class="cls-9" d="M259.59,143.03c-1.31,7.21-4.76,13.55-9.29,17.08"/><path class="cls-31" d="M245.3,167.63s-.06-.07-.08-.1c-1.45-1.64-3.38-2.36-5.34-2.82-3.48-.82-7.2-1.02-10.65,.13-3.13,1.05-6.93,3.68-6.97,7.9-.03,3.5,3.02,5.42,5.58,6.27,5.86,1.94,14.25,.53,17.59-6.01,.85-1.66,1.06-3.91-.13-5.37Z"/><path class="cls-9" d="M222.36,172.3c1.16,1.88,4,2.75,5.97,3.3,2.5,.7,5.13,.86,7.65,.43,3.61-.61,6.97-2.42,9.43-5.09"/><path class="cls-30" d="M257.49,154.66c-.56,.37-.75-.12-.44-.59,2.24-3.53,8.82-3.13,8.26-1.47-.12,.35-.47,.63-.81,.54-3.13-.83-5.65,.63-7.01,1.53Z"/></g><polyline class="cls-16" points="249.75 168.25 245.81 182.2 233.62 187.25 263.8 212.57 271.3 189.55 263.53 186.53 263.43 174.38"/><path class="cls-16" d="M293.6,310.06h7.39s-2.33,46.12-3.86,60.16l11.65,1.56c1.68-14.3,12.34-54.74,14.38-63.86,2.04-9.13,2.45-19.36-.9-26.36-3.07-6.42-7.79-7.5-16.6-7.5h-20.5"/><g><path class="cls-16" d="M304.94,392.08c1.95,1.1,10.95-.1,10.95-.1-1.34-.7-4-3.06-5.04-4.13-1.02-1.04-2.32-14.55-2.07-16.08-5.71-.32-11.65-1.56-11.65-1.56l-4.16,17.04c1.64,.36,10.02,3.72,11.97,4.82Z"/><path class="cls-31" d="M319.71,394.24c-1.18-1.34-4.43-2.63-4.43-2.63,0,0-5.86,1.05-10.24-.66-2.12-.83-4.69-2.58-6.06-3.26-2.06-1.03-5.95-1.31-5.95-1.31-1.06,3.63-1.52,10.29-1.52,10.29h4.87l1.11-5.68s1.36,.81,2.17,1.94c.81,1.12,.57,3.74,3.57,3.74h17.32s.08-1.38-.85-2.43Z"/></g><path class="cls-16" d="M314.21,274.6h14.1c6.88,0,11.62,3.58,16.8,16.31,5.18,12.74,22.05,72.43,22.05,72.43l-8.73,5.54c-3.61-6.8-28.85-49.64-35.06-66.74-2.16-5.95-7.49-4.57-12.67-4.57h-30.43"/><path class="cls-23" d="M303.36,263.71l-66.62-2.99s-2.26,20.18-.42,29.19c1.85,9.01,9.88,21.1,24.35,21.1h32.6l35.03-36.41-24.95-10.89Z"/><g><path class="cls-16" d="M374.74,377.32c2.31,.62,10.5-2.34,10.5-2.34h0c-2.12-.5-8.57-3.92-9.48-4.59-1.35-1-8.6-7.04-8.6-7.04l-8.61,5.32c1.5,3.18,2.42,6.73,2.42,6.73,1.72,0,11.46,1.3,13.77,1.92Z"/><path class="cls-31" d="M389.8,376.28c-1.67-.99-5.36-1.49-5.36-1.49,0,0-5.16,2.14-10.05,1.47-2.37-.33-5.89-1.34-7.47-1.69-2.38-.53-6.24,.01-6.24,.01,.41,3.56,3.69,9.57,3.69,9.57l4.69-1-2.28-5.23s1.98,.39,3.21,1.27c1.22,.87,2.02,3.34,4.91,2.72l16.67-3.56s-.47-1.29-1.77-2.07Z"/></g><path class="cls-16" d="M162.68,202.5c-.94-1.44-1.58-3.09-2.75-4.35-1.87-2.03-6.36-3-8.17-5.09-.29-.33-.55-.71-.92-.94-.17-.11-.41-.18-.56-.04-.07,.06-.1,.16-.12,.25-.16,.75,.11,1.55,.55,2.18,.45,.63,1.18,1.32,1.12,1.56-.17,.68-1.97,.27-2.42,.21-2.59-.35-3.87-1.07-6.45-1.48-.35-.05-1.43,.09-1.29,.66,.02,.07,.06,.12,.11,.17,.27,.3,.81,.45,1.18,.62,.59,.28,2.31,.78,2.31,.78,0,0-2.44-.07-4.37-.2-.35-.02-1.78,.22-1.85,.8-.04,.31,.4,.5,.4,.5,0,0,.17-.08-.2,.05-.51,.18-.81,.53-.88,.66-.38,.73,.75,.92,1.25,1.01,1.94,.36,6.67,1.07,6.67,1.07,0,0-1.57-.04-2.5-.14-1.05-.12-2.21-.23-3.15,.43-.27,.19-.35,.51-.03,.72,.13,.09,.3,.13,.46,.16,2.56,.52,3.96,.88,6.38,1.86,2.31,.93,5.17,2.12,6.99,3.23,.26,.16,.54,.28,.84,.35,2.21,.49,11.9,2.72,12.47,3.93"/><polyline class="cls-17" points="177.52 208.05 164.45 203.19 160.99 209.36 177.52 216.74"/><path class="cls-16" d="M327.81,201.73c4.15-3.1,8.14-1.04,13.4-1.78,3.32-.47,6.82-1.73,10.13-2.27,.2-.03,.42-.07,.59-.18,.41-.25,.33-.67,0-.93-1.17-.9-2.66-.81-4.01-.72-1.2,.08-3.2,.05-3.2,.05,0,0,6.08-.65,8.59-1.02,.64-.09,2.11-.28,1.66-1.23-.08-.18-.44-.64-1.09-.89-.46-.18-.25-.07-.25-.07,0,0,.57-.22,.54-.62-.06-.74-1.88-1.13-2.33-1.12-2.48,.07-5.61,.03-5.61,.03,0,0,2.23-.56,3-.88,.48-.2,1.18-.36,1.54-.73,.06-.06,.12-.13,.14-.21,.21-.71-1.17-.96-1.62-.91-3.33,.39-5,1.25-8.34,1.57-.58,.06-2.91,.48-3.09-.39-.06-.32,.91-1.16,1.52-1.94,.61-.78,.99-1.79,.82-2.76-.02-.12-.05-.24-.14-.33-.18-.19-.5-.11-.72,.02-.49,.28-.84,.75-1.23,1.16-2.42,2.58-8.22,3.6-10.72,6.1-1.56,1.55-2.46,3.64-3.74,5.43"/><polyline class="cls-17" points="317.49 196.84 323.83 192.13 330.42 202.14 312.85 215.1"/><path class="cls-17" d="M239.33,186.19s11.43,9.51,19.78,9.51c5.52,0,9.74-6.62,9.74-6.62,0,0,8.42,4.98,8.59,5.08,.17,.1,4.52,55.77,4.52,55.77l-38.4-3.73-4.22-60.01Z"/><path class="cls-21" d="M242.27,184.05s-13.57,1.71-17.69,6.48c-4.65,5.37-17.91,27.53-17.91,27.53l-39.14-14.44-4.32,6.95s31.26,19.82,36.91,23.31c5.11,3.16,9.9,5.34,15.96,4.1,7.32-1.5,9.88-4.97,13.6-10.97,4.14-6.69,8.68-15.97,8.68-15.97"/><path class="cls-21" d="M265.96,187.37s5.02,1.34,8.56,2.51c5.45,1.8,8.31,4.4,12.52,8.31,4.21,3.91,11.46,12.85,11.46,12.85l22.48-17.19,7.33,9.88s-18.95,18.61-23.36,21.99c-4.41,3.38-11.26,13.39-18.46,6.04-7.2-7.35-15.98-16.46-15.98-16.46"/><path class="cls-21" d="M242.27,184.05c8.8,11.69,16.23,22.65,23.95,35.08l-.27-31.76,13.41,7.93s6.9,17.39,6.9,23.83-3.19,15.31-3.19,15.82,1.53,25.77,1.53,25.77h-47.86s-4.64-25.73-5.31-27.58c-.67-1.85-5.36-25.4-5.36-25.4"/><path class="cls-7" d="M284.53,229.76s2.68-6.38,1.67-11.7c-1.01-5.32-4.99-14.33-4.99-14.33"/><path class="cls-7" d="M274.52,190.53c-.16,11.28-1.31,24.43-6.41,35.19,0,0-23.8-26.49-36.49-39.14"/><circle class="cls-32" cx="265.46" cy="229.16" r="1.64"/><circle class="cls-32" cx="266.81" cy="246.58" r="1.64"/><g><g><rect class="cls-27" x="87.94" y="322.17" width="47.12" height="73.02"/><path class="cls-20" d="M135.06,322.17h82.41v73.02h-76.18c-3.44,0-6.24-2.79-6.24-6.24v-66.79h0Z" transform="translate(352.54 717.37) rotate(180)"/><line class="cls-3" x1="135.06" y1="322.17" x2="135.06" y2="395.2"/><line class="cls-3" x1="135.76" y1="330.42" x2="217.48" y2="330.42"/><line class="cls-3" x1="135.06" y1="373.44" x2="217.48" y2="373.44"/><rect class="cls-25" x="180" y="334.25" width="24.77" height="2.2"/><rect class="cls-25" x="180" y="377.87" width="24.77" height="2.2"/></g><g><g><rect class="cls-28" x="139.41" y="251.83" width="30.11" height="54.42"/><rect class="cls-33" x="169.52" y="251.83" width="14.98" height="54.42" transform="translate(354.03 558.07) rotate(180)"/><rect class="cls-17" x="173.07" y="251.83" width="8.91" height="54.42" transform="translate(355.04 558.07) rotate(180)"/><rect class="cls-33" x="154.47" y="255.66" width="11.55" height="3.58"/><rect class="cls-33" x="154.47" y="261.92" width="11.55" height="3.58"/></g><g><rect class="cls-22" x="114.94" y="251.83" width="30.11" height="54.42"/><rect class="cls-19" x="145.05" y="251.83" width="14.98" height="54.42" transform="translate(305.07 558.07) rotate(180)"/><rect class="cls-17" x="148.59" y="251.83" width="8.91" height="54.42" transform="translate(306.09 558.07) rotate(180)"/><rect class="cls-12" x="129.99" y="255.66" width="11.55" height="3.58"/><rect class="cls-12" x="129.99" y="261.92" width="11.55" height="3.58"/></g><g><rect class="cls-22" x="101.41" y="251.83" width="30.11" height="54.42"/><rect class="cls-19" x="131.52" y="251.83" width="14.98" height="54.42" transform="translate(278.02 558.07) rotate(180)"/><line class="cls-5" x1="146.5" y1="306.24" x2="146.5" y2="251.83"/><rect class="cls-17" x="135.06" y="251.83" width="8.91" height="54.42" transform="translate(279.03 558.07) rotate(180)"/><rect class="cls-12" x="116.46" y="255.66" width="11.55" height="3.58"/><rect class="cls-12" x="116.46" y="264.62" width="11.55" height="3.58"/></g><g><path class="cls-13" d="M99.51,290.3v32.01h39.9v-32.01h-39.9Zm27.28,10.19h-20.33c-1.34,0-2.43-1.09-2.43-2.43s1.09-2.43,2.43-2.43h20.33c1.34,0,2.43,1.09,2.43,2.43s-1.09,2.43-2.43,2.43Z"/><path class="cls-14" d="M139.41,290.3v32.01h51.18v-32.01h-51.18Z"/></g></g></g><g><path class="cls-29" d="M454.05,233.95h-111.09c-2.07,0-3.6-1.94-3.11-3.95l16.34-68.1c.41-1.72,1.95-2.93,3.72-2.93h111.09c2.07,0,3.6,1.94,3.11,3.95l-16.34,68.1c-.41,1.72-1.95,2.93-3.72,2.93Z"/><path class="cls-25" d="M457.72,233.95h-111.09c-2.07,0-3.6-1.94-3.11-3.95l16.34-68.1c.41-1.72,1.95-2.93,3.72-2.93h111.09c2.07,0,3.6,1.94,3.11,3.95l-16.34,68.1c-.41,1.72-1.95,2.93-3.72,2.93Z"/><polygon class="cls-29" points="411.92 259.65 430.64 259.65 420.53 213.3 401.8 213.3 411.92 259.65"/><path class="cls-24" d="M398.13,257.14h11.12l-8.17-38.16,.72-5.67,10.12,46.35h-17.73c.71-1.53,2.25-2.51,3.94-2.51Z"/></g><g><rect class="cls-26" x="272.91" y="250.42" width="59.06" height="9.23"/><rect class="cls-28" x="331.96" y="250.42" width="28.37" height="9.23" transform="translate(692.3 510.07) rotate(180)"/></g><g><path class="cls-18" d="M390.88,218.66c-3.48-1.5-7.67-.74-10.84,1.35-3.17,2.09-5.41,5.34-6.97,8.8-.72,1.61-1.32,3.28-2.22,4.79-.79,1.31-1.8,2.47-3,3.41-1.04,.82-2.33,1.63-2.49,2.94-.11,.88,.35,1.75,.93,2.42,1.44,1.68,3.75,2.58,5.95,2.32l2.97-1.7c1.28,.17,2.57-.51,3.42-1.48s1.36-2.2,1.8-3.42c.2-.56,.4-1.14,.78-1.6,.36-.44,.86-.74,1.37-1,2.27-1.14,5.03-1.61,6.61-3.6,.95-1.18,1.31-2.74,2.19-3.97,.93-1.31,2.43-2.25,2.91-3.78,.7-2.26-1.24-4.55-3.41-5.49Z"/><path class="cls-18" d="M359.82,215.83c-.31,1.81,1.3,3.51,3.09,3.92,1.79,.41,3.65-.14,5.37-.78,2.62-.98,8.09-.61,9.3-3.31,.93-2.07-.26-3.55-2.12-4.43-4.08-1.92-14.68-.96-15.64,4.61Z"/><path class="cls-22" d="M370.03,259.1h0c-6.41,0-11.6-5.19-11.6-11.6v-7.85h23.2v7.85c0,6.41-5.19,11.6-11.6,11.6Z"/><path class="cls-22" d="M382.59,255.89h-5.46v-13.03h5.46c3.59,0,6.52,2.92,6.52,6.52s-2.92,6.52-6.52,6.52Zm-3.29-2.16h3.29c2.4,0,4.35-1.95,4.35-4.35s-1.95-4.35-4.35-4.35h-3.29v8.71Z"/><rect class="cls-22" x="362.19" y="255.89" width="15.67" height="3.76"/><line class="cls-6" x1="362.19" y1="255.89" x2="377.86" y2="255.89"/><path class="cls-19" d="M354.75,256.99h0c0,1.82,6.84,3.3,15.28,3.3s15.28-1.48,15.28-3.3h-30.56Z"/></g><g><line class="cls-4" x1="451.47" y1="262.13" x2="451.47" y2="395.39"/><line class="cls-4" x1="123.23" y1="395.39" x2="123.23" y2="262.13"/><rect class="cls-29" x="116.62" y="259.62" width="340.62" height="5.01"/></g><g><path class="cls-17" d="M425.7,127.64h-92.54l11.8-7.59,16.45-44.35c1.34-3.61,4.78-6.01,8.64-6.01h76.71c3.32,0,5.62,3.31,4.47,6.42l-16.89,45.52c-1.34,3.61-4.78,6.01-8.64,6.01Z"/><g><polygon class="cls-26" points="403.59 109.41 357.63 109.41 367.76 78.09 413.72 78.09 403.59 109.41"/><polyline class="cls-10" points="403.59 109.41 383.92 92.08 357.63 109.41"/><polyline class="cls-10" points="367.76 78.09 382.54 98.29 413.72 78.09"/></g><line class="cls-2" x1="419.85" y1="80.97" x2="440.36" y2="80.97"/><line class="cls-2" x1="417.57" y1="87.36" x2="438.08" y2="87.36"/><line class="cls-2" x1="415.29" y1="93.75" x2="435.8" y2="93.75"/><line class="cls-2" x1="413.01" y1="100.14" x2="433.51" y2="100.14"/><line class="cls-2" x1="410.72" y1="106.53" x2="431.23" y2="106.53"/></g></g></g></g></svg>