<?xml version="1.0" encoding="UTF-8"?><svg id="_圖層_2" xmlns="http://www.w3.org/2000/svg" xmlns:xlink="http://www.w3.org/1999/xlink" viewBox="0 0 579.41 396.67"><defs><style>.cls-1,.cls-2,.cls-3,.cls-4,.cls-5{fill:none;}.cls-6{clip-path:url(#clippath);}.cls-7{fill:#ed8a7c;}.cls-8{fill:#f7967c;}.cls-9{fill:#f3bf94;}.cls-10{fill:#e4b080;}.cls-11,.cls-12,.cls-13{fill:#fff;}.cls-14{fill:#feddd4;}.cls-15{fill:#fbefe3;}.cls-16{fill:#926037;}.cls-17{fill:#663000;}.cls-18{fill:#95e3dc;}.cls-19{fill:#00a19b;}.cls-20{fill:#9c9c9b;}.cls-21{fill:#8c5451;}.cls-22{fill:#8c5238;}.cls-23{fill:#32aaa4;}.cls-24{fill:#b1b1b1;}.cls-25{fill:#d97b00;}.cls-26{fill:#b35f00;}.cls-27{fill:#c5c5c5;}.cls-28{fill:#e1efef;}.cls-29{fill:#d5dddb;}.cls-30{fill:#404082;}.cls-31{fill:#1c1c1c;}.cls-32{fill:#444547;}.cls-33{fill:#706f6f;}.cls-34,.cls-35,.cls-36{fill:#868686;}.cls-37{fill:#6f331b;}.cls-38{fill:#595959;}.cls-39{fill:#2b2b2b;}.cls-40{fill:#313234;}.cls-41{fill:#3aa970;}.cls-42{fill:#5fc7b9;}.cls-2{stroke-width:5.17px;}.cls-2,.cls-3{stroke:#fff;}.cls-2,.cls-3,.cls-4{stroke-linecap:round;}.cls-2,.cls-3,.cls-4,.cls-5{stroke-linejoin:round;}.cls-43{fill:url(#_未命名漸層_7);}.cls-12{font-family:PlampedBoldcond, 'Plamped Bold cond';font-size:17.6px;}.cls-3{stroke-width:1.55px;}.cls-4{stroke:#b1b1b1;stroke-width:2px;}.cls-44{opacity:.5;}.cls-45{opacity:.8;}.cls-35,.cls-46,.cls-13{fill-rule:evenodd;}.cls-46{fill:#088f4a;}.cls-5{stroke:#262328;stroke-width:.5px;}.cls-36{opacity:.7;}</style><clipPath id="clippath"><rect class="cls-1" width="579.41" height="396.67" rx="12" ry="12"/></clipPath><radialGradient id="_未命名漸層_7" cx="270.05" cy="228.6" fx="270.05" fy="228.6" r="212.99" gradientUnits="userSpaceOnUse"><stop offset=".21" stop-color="#bbdfdc" stop-opacity=".8"/><stop offset="1" stop-color="#bedfde" stop-opacity="0"/></radialGradient></defs><g id="_圖層_1-2"><g class="cls-6"><path class="cls-43" d="M45,380.6c5.75,4.7,11.49,9.41,17.24,14.11H510.09c-1.19-6.24-5.24-12.46-9.61-17.24-6.93-7.58-15.45-15.22-16.2-25.63-1.57-21.74,29.68-30.36,35.96-51.16,2.98-9.87-.51-20.88-6.67-29.02-6.15-8.14-14.67-13.95-23.1-19.48-17.58-11.54-35.5-22.53-53.71-32.97-7.76-4.45-15.75-8.93-21.6-15.85-10.06-11.9-12.07-28.88-11.94-44.7s1.93-31.99-2.23-47.21c-7.18-26.28-32.04-45-58.18-48.33-26.13-3.33-52.71,6.99-73.49,23.77-16.96,13.69-30.49,31.37-46.19,46.6-15.7,15.23-34.81,28.45-56.27,29.83-20.44,1.32-40.87-8.26-61.04-4.53-7.13,1.32-14.19,4.48-18.92,10.17-12.45,15-3.74,37.61-1.21,57.22,3.76,29.15-9.35,59.96-32.65,76.73-12.67,9.12-29.31,16.04-33.41,31.45-4.83,18.18,11.07,34.55,25.34,46.23Z"/><g><g><rect class="cls-42" x="97.37" y="80.73" width="95.02" height="117.45"/><path class="cls-28" d="M181.87,91.25v96.42H107.89V91.25h73.99m4.14-4.14H103.75v104.69h82.26V87.11h0Z"/></g><g><line class="cls-2" x1="114.86" y1="126.26" x2="148.73" y2="126.26"/><line class="cls-2" x1="114.86" y1="136.82" x2="148.73" y2="136.82"/><line class="cls-2" x1="114.86" y1="147.37" x2="148.73" y2="147.37"/><line class="cls-2" x1="114.86" y1="157.93" x2="148.73" y2="157.93"/><line class="cls-2" x1="114.86" y1="168.49" x2="148.73" y2="168.49"/><line class="cls-2" x1="114.86" y1="179.05" x2="148.73" y2="179.05"/></g><g><line class="cls-2" x1="164.35" y1="126.26" x2="174.9" y2="126.26"/><line class="cls-2" x1="164.35" y1="136.82" x2="174.9" y2="136.82"/><line class="cls-2" x1="164.35" y1="147.37" x2="174.9" y2="147.37"/><line class="cls-2" x1="164.35" y1="157.93" x2="174.9" y2="157.93"/><line class="cls-2" x1="164.35" y1="168.49" x2="174.9" y2="168.49"/><line class="cls-2" x1="164.35" y1="179.05" x2="174.9" y2="179.05"/></g><text class="cls-12" transform="translate(124.73 109.36)"><tspan x="0" y="0">MENU</tspan></text><line class="cls-3" x1="126.26" y1="115.15" x2="163.5" y2="115.15"/><g><path class="cls-11" d="M101.77,86.42c1.66,0,1.67-2.58,0-2.58s-1.67,2.58,0,2.58h0Z"/><path class="cls-11" d="M187.99,86.42c1.66,0,1.67-2.58,0-2.58s-1.67,2.58,0,2.58h0Z"/></g><g><path class="cls-11" d="M101.77,195.07c1.66,0,1.67-2.58,0-2.58s-1.67,2.58,0,2.58h0Z"/><path class="cls-11" d="M187.99,195.07c1.66,0,1.67-2.58,0-2.58s-1.67,2.58,0,2.58h0Z"/></g></g><path class="cls-9" d="M288.18,305.86c-.25-.9-.59-1.76-.87-2.65-.29-.94-.36-1.85-.2-2.82,.15-.96,.38-1.9,.52-2.86,.14-.98,.24-1.97,.29-2.96,.04-.78,.12-1.58-.47-2.19-.52-.55-1.31-.81-2.02-1-.86-.22-1.76-.31-2.65-.26-.73,.04-1.63,.11-2.24,.55-.7,.51-.79,1.45-.83,2.25-.04,1,.06,2,.18,2.98,.25,2.06,.63,4.18,0,6.22-.46,1.52-1.46,2.78-1.52,4.58-.04,1.35,.28,2.71,0,4.03-.13,.62-.38,1.24-.35,1.87,.07,1.21,1.35,1.74,1.84,.46,.37-.95,.31-5.34,1.79-5.27,.81,.04,1.08,1.39,1.17,2.01,.11,.77,.13,1.54,.09,2.31-.07,1.55-.35,3.08-.62,4.6-.15,.85-.34,1.71-.41,2.57-.05,.63,.14,1.28,.8,1.48,.58,.18,1.06-.1,1.42-.55,.24-.3,.45-.63,.63-.96,.06,.35,.18,.68,.51,.91,.47,.33,1.15,.24,1.56-.15,.56-.52,.78-1.39,1.01-2.09,.27-.82,.5-1.66,.68-2.51,.73-3.48,.61-7.12-.33-10.55Z"/><path class="cls-11" d="M271.08,191.4c.86,3.22,2.22,6.43,2.56,9.74,.38,3.76,.49,7.57,.61,11.34,.24,7.57,.19,15.15,.05,22.73-.22,11.79-.66,23.58-.52,35.37,.08,6.34,.4,12.68,.56,19.02,.06,2.51-.34,5.72-.37,8.83h18.73c.17-12.12-.98-24.24-1.1-36.36-.13-13.01,.12-26.02,.13-39.04,0-7.26,.02-14.52,.03-21.79,0-6,.01-12.05-1.08-17.95-1.25-6.76-3.44-13.63-9.02-17.95-1.78-1.37-5.08-3.31-7.42-2.85-2.25,.44-4.38,3.18-5.12,5.19-.87,2.37-.92,4.95-.8,7.47,.26,5.5,1.34,10.92,2.76,16.23Z"/><g><g><g><path class="cls-8" d="M229.23,381.21c.13,.33,.29,.65,.45,.98,.36,.71,.53,1.59-.92,2-.33,.09-.7,.13-1.07,.16-2.91,.22-5.86-.04-8.76-.29-1.21-.11-2.63-.16-3.73-.46-.18-.05-.37-.11-.48-.2-.21-.17-.16-.4,.03-.57,.18-.18,.47-.31,.74-.45,2.34-1.22,2.72-2.81,2.48-4.49-.17-1.18-.33-2.35-.48-3.53-.62-4.91-1.06-9.83-1.31-14.75-.06-1.28-.09-2.64,.9-3.77,.92-1.04,2.6-1.78,4.41-2.24,3.1-.79,8.86-.89,9.66,1.65,.5,1.59,.36,3.22,.23,4.84,0,2.27-.38,4.57-.6,6.84-.24,2.45-.51,4.9-.86,7.35-.17,1.22-.37,2.44-.58,3.67-.13,.73-.31,1.45-.32,2.18,0,.37,.08,.73,.22,1.09Z"/><path class="cls-37" d="M200.59,385.63c.72,.24,1.9,.32,2.72,.4,1.93,.2,3.9,.21,5.85,.21h7.35c.69,0,1.66,.1,2.32,0,.76-.12,1.51-.28,2.29-.43,.25-.05,.5-.09,.75-.13,.6-.09,2-.31,2.43,.04,.13,.11,.18,.24,.23,.37,.02,.05,.04,.1,.06,.15h6.43c.02-.06,.03-.12,.03-.18,.02-.3,.09-.54-.22-.81-.05-.04-.1-.08-.12-.12-.02-.04-.02-.09,0-.13,0-.03,.02-.05,.03-.08,.07-.2,.07-.41,.06-.62,0-.63-.09-1.28-.38-1.89-.14-.3-.25-.64-.58-.9-.56-.43-.97-.2-1.66,0-1.44,.41-3.07,.61-4.69,.57-1.61-.04-3.2-.31-4.57-.77-.46-.15-.89-.63-1.43-.63-.67,0-1.24,.55-1.71,.76-.98,.45-2.02,.86-3.12,1.22-2.21,.74-4.63,1.29-7.14,1.63-.76,.1-1.53,.18-2.3,.27-.7,.08-1.67,.11-2.29,.31-.23,.07-.45,.17-.57,.28-.18,.16-.18,.33,.24,.47Z"/><path class="cls-21" d="M200.35,385.16c.42,0,.85,.07,1.3,.11,1.11,.11,2.24,.18,3.37,.24,2.23,.11,4.47,.13,6.71,.15,.15,0,.31,0,.46,0,1.55,.01,3.1,.02,4.65-.04,1.56-.06,3.03-.23,4.56-.4,.55-.06,1.11-.11,1.68-.15-.31-.31-.82-.57-1.43-.69-.82-.16-1.77-.12-2.63-.12-.92,0-1.85,.01-2.76,.1-.44,.04-.88,.09-1.33,.11-.34,.01-.8,.03-1.09-.09-.17-.07-.27-.18-.38-.28-.13-.12-.25-.23-.37-.35-.24-.24-.46-.48-.66-.73-.05-.06,.25-.08,.3-.02,.18,.23,.38,.45,.59,.67,.2,.2,.39,.41,.64,.59,.17,.12,.41,.13,.67,.13s.51-.02,.76-.04c.44-.04,.87-.09,1.31-.12,.9-.06,1.8-.06,2.7-.06,.82,0,1.7-.02,2.48,.15,.64,.14,1.18,.4,1.51,.73,2.43-.17,4.93-.17,7.33-.07,0,.04-.02,.09,0,.13,.02,.04,.07,.08,.12,.12,.31,.27,.24,.52,.22,.81,0,.06-.01,.12-.03,.18h-6.43c-.02-.05-.04-.1-.06-.15-.05-.13-.1-.26-.23-.37-.42-.35-1.83-.13-2.43-.04-.25,.04-.51,.08-.75,.13-.78,.15-1.53,.31-2.29,.43-.66,.1-1.64,0-2.32,0h-7.35c-1.95,0-3.92-.02-5.85-.21-.82-.08-2-.16-2.72-.4-.41-.13-.42-.31-.24-.47Z"/><path class="cls-30" d="M215.6,381.41s.09-.05,.14-.06c.14-.02,.3-.02,.42,.03,.34,.15,.66,.32,.96,.49,.03,.02,.05,.05,.03,.07-.02,.03-.09,.05-.14,.06-.08,.01-.16,.02-.24,0-.06,0-.14-.02-.18-.04-.3-.18-.62-.34-.96-.49-.04-.02-.05-.05-.03-.07Z"/><path class="cls-30" d="M214.39,381.89s.09-.05,.14-.06c.13-.02,.32-.02,.42,.03,.3,.16,.57,.33,.81,.51,.03,.02,0,.06-.03,.07-.05,.02-.12,.04-.18,.04-.13,0-.29,0-.38-.07-.02-.02-.05-.04-.07-.05-.21-.15-.43-.29-.67-.41-.04-.02-.05-.05-.03-.07Z"/><path class="cls-21" d="M213.02,382.4s.09-.05,.14-.06c.08-.01,.16-.02,.24,0,.06,0,.14,.02,.18,.04,.23,.14,.43,.29,.62,.45,.03,.02,0,.06-.03,.07-.04,.02-.12,.04-.18,.04-.13,0-.3,0-.38-.06-.09-.07-.18-.14-.27-.21-.09-.06-.18-.13-.28-.19-.03-.02-.05-.04-.03-.07Z"/></g><path class="cls-10" d="M248.21,276.09c-.01,.46-.03,.91-.05,1.37-.02,.36-.03,.71-.05,1.06,0,.16-.02,.31-.02,.47-.23,4-.74,7.99-1.4,11.97-.08,.47-.16,.94-.24,1.41-.02,.13-.05,.26-.07,.38-.03,.16-.05,.31-.09,.47-.31,1.75-.65,3.5-1.01,5.25-.36,1.78-.74,3.56-1.12,5.35-.1,.46-.2,.91-.29,1.37-.03,.16-.07,.31-.1,.47-.34,1.57-.68,3.13-1,4.7-.31,1.48-.62,2.95-.91,4.42-.13,.67-.26,1.34-.39,2.02l-.12,.63c-.03,.16-.05,.31-.09,.47-.12,.66-.24,1.32-.35,1.97-.3,1.75-.58,3.5-.85,5.25-.07,.47-.14,.94-.22,1.4-.15,.95-.29,1.89-.44,2.84-.02,.16-.05,.31-.07,.47-.4,2.67-.78,5.34-1.14,8.01h0c-.21,1.51-.4,3.02-.6,4.53-.02,.16-.04,.31-.06,.47-.11,.83-.21,1.65-.31,2.48h0c-.41,3.27-.79,6.54-1.16,9.81-.02,.15-.04,.31-.05,.47-.43,3.8-.83,7.6-1.23,11.4-.02,.15-.03,.31-.05,.46-.4,3.82-.78,7.65-1.16,11.47-.02,.16-.03,.31-.05,.47-.13,1.29-.25,2.58-.38,3.87-.06,.63-3.23,.37-5.72,.11-.43-.04-.84-.09-1.21-.13-.61-.07-1.11-.12-1.41-.14-2.66-.17-5.33-.32-8-.45-.4-.02-.81-.04-1.21-.06-1.06-.05-2.12-.09-3.18-.13-.42-1.07,.15-2.09,.96-3.11,.12-.15,.25-.31,.38-.46,1.11-1.31,2.42-2.63,2.31-4.04-.15-1.86-2.75-3.36-3.85-5.12-.5-.79-.68-1.62-.77-2.46-.02-.16-.03-.31-.03-.47-.02-.26-.03-.52-.04-.78-.13-3.53-.28-7.07-.44-10.59,0-.16-.02-.31-.02-.47-.2-4.15-.43-8.29-.7-12.43,0-.16-.02-.31-.03-.47-.27-4.18-.58-8.37-.93-12.56-.01-.16-.02-.31-.04-.47-.08-.96-.17-1.92-.25-2.88-.05-.47-.09-.94-.13-1.4-.12-1.36-.24-2.72-.37-4.08-.09-.99-.18-1.98-.28-2.98-.01-.16-.03-.31-.04-.47-.21-2.32-.43-4.63-.64-6.95-.05-.47-.09-.94-.13-1.4-.1-1.05-.2-2.09-.29-3.14-.01-.15-.03-.3-.04-.46-.24-2.59-.48-5.17-.72-7.76-.11-1.23-.23-2.46-.33-3.69-.02-.16-.03-.31-.04-.47-.02-.17-.03-.35-.05-.52-.05-.47-.08-.93-.13-1.4-.36-4.12-.73-8.24-1.06-12.36-.01-.16-.02-.31-.04-.47-.03-.38-.06-.76-.09-1.14-.04-.47-.07-.93-.11-1.4-.05-.56-.09-1.13-.13-1.69-.09-1.15-.04-2.36,.19-3.57h0c.28-1.52,.82-3.04,1.7-4.46,.09-.15,.19-.31,.3-.46,.92-1.36,2.15-2.61,3.77-3.67,.02-.02,.05-.03,.07-.04,.37-.24,.77-.47,1.18-.69h0c.54-.28,1.1-.55,1.71-.79,.11-.04,.23-.09,.34-.13,.73-.28,1.52-.52,2.36-.73,.55-.13,1.13-.25,1.73-.36,2.35-.4,4.46-.51,6.49-.42,.23,.01,.47,.02,.7,.04,.41,.03,.82,.06,1.22,.1,.46,.05,.91,.1,1.36,.17,.1,.01,.19,.03,.29,.04,.88,.13,1.77,.29,2.67,.46,1.2,.24,2.43,.51,3.72,.79,.88,.2,1.75,.37,2.59,.54,.41,.08,.82,.16,1.22,.25,.92,.19,1.82,.4,2.66,.64,.29,.08,.57,.18,.85,.27,.13,.04,.26,.09,.38,.13,.73,.27,1.41,.59,2.04,.98,.09,.05,.18,.11,.28,.17,.59,.39,1.13,.85,1.61,1.4,.29,.33,.54,.66,.76,1,.1,.15,.2,.31,.29,.47,.45,.78,.75,1.59,.95,2.42,.31,1.28,.39,2.59,.43,3.88,0,.08,0,.15,0,.23,.02,1.03,.01,2.05,0,3.07Z"/></g><g><g><path class="cls-8" d="M253.02,381.21c-.12,.33-.29,.65-.45,.98-.36,.71-.53,1.59,.92,2,.33,.09,.7,.13,1.07,.16,2.91,.22,5.86-.04,8.76-.29,1.21-.11,2.63-.16,3.73-.46,.18-.05,.37-.11,.48-.2,.21-.17,.16-.4-.03-.57-.18-.18-.47-.31-.74-.45-2.34-1.22-2.72-2.81-2.48-4.49,.17-1.18,.33-2.35,.48-3.53,.62-4.91,1.06-9.83,1.3-14.75,.06-1.28,.09-2.64-.9-3.77-.92-1.04-2.6-1.78-4.41-2.24-3.1-.79-8.86-.89-9.66,1.65-.5,1.59-.36,3.22-.23,4.84,0,2.27,.38,4.57,.6,6.84,.24,2.45,.51,4.9,.86,7.35,.17,1.22,.37,2.44,.58,3.67,.13,.73,.31,1.45,.32,2.18,0,.37-.08,.73-.22,1.09Z"/><path class="cls-37" d="M281.66,385.63c-.72,.24-1.9,.32-2.71,.4-1.93,.2-3.9,.21-5.85,.21h-7.35c-.69,0-1.67,.1-2.32,0-.76-.12-1.51-.28-2.29-.43-.25-.05-.5-.09-.75-.13-.6-.09-2-.31-2.43,.04-.13,.11-.18,.24-.23,.37-.02,.05-.04,.1-.06,.15h-6.43c-.02-.06-.03-.12-.03-.18-.02-.3-.09-.54,.22-.81,.05-.04,.1-.08,.12-.12,.02-.04,.02-.09,0-.13,0-.03-.02-.05-.03-.08-.07-.2-.07-.41-.06-.62,0-.63,.09-1.28,.38-1.89,.14-.3,.25-.64,.58-.9,.56-.43,.97-.2,1.66,0,1.44,.41,3.07,.61,4.69,.57,1.61-.04,3.2-.31,4.57-.77,.46-.15,.89-.63,1.43-.63,.67,0,1.25,.55,1.71,.76,.98,.45,2.02,.86,3.12,1.22,2.21,.74,4.63,1.29,7.14,1.63,.76,.1,1.53,.18,2.3,.27,.7,.08,1.67,.11,2.29,.31,.23,.07,.45,.17,.57,.28,.18,.16,.18,.33-.24,.47Z"/><path class="cls-21" d="M281.9,385.16c-.42,0-.85,.07-1.3,.11-1.11,.11-2.24,.18-3.37,.24-2.23,.11-4.47,.13-6.71,.15-.15,0-.31,0-.46,0-1.55,.01-3.1,.02-4.65-.04-1.56-.06-3.03-.23-4.56-.4-.55-.06-1.11-.11-1.68-.15,.31-.31,.81-.57,1.43-.69,.82-.16,1.77-.12,2.63-.12,.92,0,1.85,.01,2.76,.1,.44,.04,.88,.09,1.33,.11,.34,.01,.8,.03,1.09-.09,.17-.07,.27-.18,.38-.28,.13-.12,.25-.23,.37-.35,.24-.24,.46-.48,.66-.73,.05-.06-.25-.08-.29-.02-.18,.23-.38,.45-.59,.67-.2,.2-.39,.41-.64,.59-.17,.12-.41,.13-.67,.13s-.51-.02-.76-.04c-.44-.04-.87-.09-1.31-.12-.89-.06-1.8-.06-2.7-.06-.82,0-1.7-.02-2.48,.15-.64,.14-1.18,.4-1.51,.73-2.43-.17-4.93-.17-7.33-.07,0,.04,.02,.09,0,.13-.02,.04-.07,.08-.12,.12-.31,.27-.24,.52-.22,.81,0,.06,.01,.12,.03,.18h6.43c.02-.05,.04-.1,.06-.15,.05-.13,.1-.26,.23-.37,.42-.35,1.83-.13,2.43-.04,.25,.04,.51,.08,.75,.13,.78,.15,1.53,.31,2.29,.43,.66,.1,1.64,0,2.32,0h7.35c1.95,0,3.92-.02,5.85-.21,.82-.08,2-.16,2.71-.4,.41-.13,.42-.31,.24-.47Z"/><path class="cls-30" d="M266.65,381.41s-.09-.05-.14-.06c-.14-.02-.3-.02-.42,.03-.34,.15-.66,.32-.96,.49-.03,.02-.05,.05-.03,.07,.02,.03,.09,.05,.14,.06,.08,.01,.16,.02,.24,0,.06,0,.14-.02,.18-.04,.3-.18,.62-.34,.96-.49,.04-.02,.05-.05,.03-.07Z"/><path class="cls-30" d="M267.86,381.89s-.09-.05-.14-.06c-.13-.02-.32-.02-.42,.03-.3,.16-.57,.33-.81,.51-.03,.02,0,.06,.03,.07,.05,.02,.12,.04,.18,.04,.14,0,.29,0,.38-.07,.02-.02,.05-.04,.07-.05,.21-.15,.43-.29,.67-.41,.04-.02,.05-.05,.03-.07Z"/><path class="cls-21" d="M269.23,382.4s-.09-.05-.14-.06c-.08-.01-.16-.02-.24,0-.06,0-.14,.02-.18,.04-.23,.14-.43,.29-.62,.45-.03,.02,0,.06,.03,.07,.04,.02,.12,.04,.18,.04,.13,0,.3,0,.38-.06,.08-.07,.18-.14,.27-.21,.09-.06,.18-.13,.28-.19,.03-.02,.05-.04,.03-.07Z"/></g><path class="cls-10" d="M277.48,266.36v29.88c-.27,2.95-.54,5.9-.81,8.85-.01,.15-.03,.31-.04,.46-.1,1.07-.2,2.14-.3,3.2-.05,.47-.09,.94-.13,1.4-.07,.75-.14,1.51-.21,2.26-.01,.16-.03,.33-.05,.49-.15,1.56-.29,3.13-.43,4.69-.02,.15-.03,.31-.05,.47-.35,3.76-.69,7.53-1.02,11.29-.01,.15-.02,.31-.04,.47-.09,1.04-.18,2.08-.27,3.11-.04,.48-.08,.96-.13,1.45-.04,.39-.07,.79-.1,1.18-.2,2.36-.4,4.71-.58,7.07-.01,.15-.02,.31-.04,.47-.02,.25-.04,.49-.06,.74-.04,.47-.08,.94-.11,1.4-.23,3.35-.43,6.7-.66,10.06,0,.15-.02,.31-.03,.47-.26,3.85-.56,7.7-1.01,11.54-.02,.15-.03,.31-.05,.46-.09,.81-.2,1.63-.31,2.44-.1,.73-.29,1.17-.61,1.53-.29,.32-.7,.57-1.24,.9-.24,.15-.52,.31-.83,.5-1.5,.94-2.13,2.25-1.06,3.42,.61,.66,1.65,1.17,2.42,1.78,.14,.11,.28,.23,.39,.35,.08,.08,.16,.17,.23,.26,.12,.15,.22,.31,.3,.47,.31,.61,.33,1.26-.02,1.81h0c-.23,.35-.59,.65-1.12,.87-1.24,.53-3.69,.75-5.76,.89-.42,.03-.81,.05-1.19,.08-.38,.03-.73,.05-1.04,.07-2.37,.19-4.73,.15-7.1,.25-.45,.02-3.64,.55-3.81,.49-.08-.03-.17-.07-.24-.14-.71-.59-.87-2.59-.91-4.37,0-.16,0-.31,0-.47-.01-1.1,.01-2.05-.03-2.43-.23-1.9-.44-3.8-.65-5.69v-.02c-.12-1.08-.23-2.16-.35-3.23-.01-.16-.03-.31-.05-.47-.23-2.23-.46-4.46-.68-6.69-.16-1.59-.31-3.18-.48-4.77-.01-.16-.03-.31-.05-.47-.41-4.08-.82-8.15-1.26-12.23-.02-.16-.04-.31-.05-.47-.35-3.17-.72-6.34-1.12-9.51-.13-1.04-.27-2.09-.41-3.13-.02-.16-.04-.31-.07-.47-.03-.28-.07-.56-.11-.84-.06-.43-.13-.86-.19-1.29-.03-.24-.07-.47-.1-.7-.06-.47-.14-.94-.21-1.4-.27-1.76-.55-3.52-.85-5.27-.11-.66-.23-1.31-.35-1.97-.03-.15-.06-.31-.08-.47-.17-.89-.34-1.77-.51-2.66-.13-.64-.26-1.28-.39-1.92-.17-.83-.34-1.66-.52-2.49-.1-.47-.2-.93-.3-1.4-.23-1.1-.47-2.2-.7-3.29-.03-.15-.07-.31-.1-.47-.81-3.76-1.61-7.51-2.3-11.28h0c-.04-.2-.08-.4-.11-.61-.03-.15-.06-.31-.08-.46-.02-.12-.05-.25-.07-.37-.08-.47-.16-.93-.24-1.4-.26-1.54-.49-3.08-.7-4.62h0c-.33-2.45-.57-4.9-.71-7.36-.01-.16-.02-.31-.03-.47-.02-.32-.03-.65-.05-.97-.02-.45-.04-.91-.05-1.36-.02-1.09-.03-2.18-.01-3.27,0-.08,0-.15,0-.23,.03-1.29,.12-2.6,.43-3.88,.16-.64,.37-1.27,.67-1.89h0c.08-.18,.17-.35,.27-.52,.09-.16,.19-.31,.29-.47,.12-.18,.24-.35,.38-.53,.1-.14,.22-.27,.33-.41h0s.04-.04,.06-.07c.77-.87,1.67-1.51,2.68-2.01,.28-.14,.56-.27,.86-.39,.13-.05,.25-.1,.38-.15,.65-.24,1.34-.44,2.05-.62,.08-.03,.17-.05,.26-.07,1.4-.34,2.9-.61,4.46-.94,.31-.06,.63-.13,.94-.2,.09-.02,.19-.04,.28-.06,2.33-.52,4.47-.98,6.62-1.26,.55-.07,1.09-.14,1.65-.18,.54-.05,1.09-.08,1.64-.1,.35-.01,.71-.02,1.06-.02,.37,0,.75,0,1.14,.02,.4,.01,.8,.04,1.22,.07,.91,.07,1.85,.19,2.83,.36,1.58,.27,3,.66,4.27,1.15,.89,.34,1.71,.73,2.45,1.17,.29,.16,.56,.33,.82,.51,.55,.36,1.04,.74,1.5,1.15h0c.06,.05,.1,.09,.15,.14,.34,.31,.66,.64,.96,.97h0c.28,.31,.53,.63,.77,.95,.08,.11,.15,.21,.22,.32,.1,.15,.21,.31,.3,.46,.02,.03,.03,.05,.05,.08Z"/></g></g><path class="cls-11" d="M282.01,175.03c.02,.98-.02,1.95-.09,2.9-.21,2.78-.68,5.53-1.25,8.25-.85,4.11-1.93,8.17-2.63,12.31-3.92,23.08-.88,47.25,.05,70.56,.23,5.65-10.56,4.11-14.42,4.35-6.74,.42-13.49,.8-20.24,1.02-3.37,.11-40.48,.22-40.4-1.24,1.01-18.21,2.4-36.47,3.07-54.66,.25-6.87-.22-13.29-1.37-20.03-.71-4.13-1.77-8.2-2.63-12.31-.56-2.72-1.04-5.46-1.24-8.25-.07-.96-.11-1.92-.09-2.9,.04-2.46,.25-4.87,.6-7.3,.19-1.34,0-2.76,.47-4.05,.61-1.71,2.34-1.73,3.84-2.29,4.85-1.81,9.68-3.65,14.52-5.48,1.75-.66,3.5-1.32,5.25-1.98,1.16-.44,2.32-.88,3.48-1.32,2.19-.84,4.43-2.24,6.79-2.46,1.88-.18,3.77-.29,5.66-.32,1.89,.03,3.78,.14,5.66,.32,1.09,.1,2.21,.5,3.31,1,.16,.07,.32,.15,.48,.22,.24,.12,.49,.24,.73,.37,.18,.09,.37,.19,.56,.28,.3,.17,.6,.32,.89,.47,.2,.11,.4,.22,.6,.31,.05,.03,.1,.05,.14,.07,.17,.09,.35,.18,.52,.26,.19,.09,.38,.18,.57,.26,.04,.02,.07,.04,.12,.06,.71,.31,1.42,.62,2.14,.92,3.29,1.41,6.6,2.79,9.82,4.36,2.11,1.03,4.42,1.65,6.6,2.53,1.44,.57,2.83,1.25,4.08,2.23,3.51,2.75,4.45,7.09,4.4,11.53Z"/><path class="cls-11" d="M212.55,172.86s-.02-.04-.03-.06c-.52-.92-1.19-1.5-1.51-2.48-.46-1.4-.57-2.81-1.22-4.18-1.19-2.48-3.13-5.11-5.98-3.89-3.24,1.39-5.96,4.71-7.94,7.5-2.93,4.14-5.12,8.74-7.3,13.32-5.22,10.97-10.45,21.93-15.67,32.9-3,6.29-7.18,14.38-3.67,21.23,1.28,2.49,3.11,5.03,5.84,5.67,2.13,.5,4.35-.29,6.25-1.38,6.59-3.8,10.42-10.92,13.95-17.66,4.05-7.74,8.21-15.46,13.46-22.47,4.21-5.61,4.74-14.81,5.02-21.64,.09-2.3-.06-4.81-1.2-6.87Z"/><g><path class="cls-31" d="M277.14,270.86c.41,1.21,.34,2.6,.34,4.4v117.53h-73.09v-117.2c0-.97-.06-1.97,0-2.94,.24-3.69,3.97-6.53,7.07-8.27,3.07-1.72,6.47-2.73,9.9-3.54,11.85-2.78,24.43-2.97,36.26,.03,5.91,1.5,11.63,3.81,16.83,7,1.55,.95,2.31,1.89,2.68,2.97Z"/><path class="cls-19" d="M274.56,199c-.2-1.35-.37-2.7-.49-4.06-.48-5.57-1.82-11.21-3.09-16.65-2.02-8.66-4.48-16.77-10.86-23.29-1.24-1.26-2.75-2.51-4.52-2.47,.51-.01,2.84,8.21,3.12,9.08,1.03,3.16,1.98,6.35,2.79,9.58,1.62,6.41,2.42,12.94,3.58,19.45,.31,1.74,.61,3.49,.91,5.24h-47.32c1.38-6.5,2.89-12.97,4.55-19.4,.93-3.59,1.81-7.19,2.91-10.72,1.04-3.35,1.72-6.59,3.28-9.81,.78-1.62,2.66-4.12,2.28-5.98-.69,.13-1.8,.98-2.43,1.36-1.15,.7-1.98,1.85-2.72,2.95-7.03,10.49-11.84,22.09-16.59,33.74-.97,2.39-1.95,4.78-2.82,7.21-.76,2.13-2.16,5.03-1.91,7.3,.58,5.34,1.06,10.58,.86,15.98-.67,18.19-2.06,36.45-3.07,54.66-.08,1.46,37.03,1.35,40.4,1.24,6.75-.22,13.5-.6,20.24-1.02,3.85-.24,14.64,1.3,14.42-4.35-.4-9.97-1.17-19.93-1.63-29.9-.35-7.51-.52-15.04-.23-22.56,.06-1.45,.43-2.98,.22-4.41-.2-1.38-.46-2.79-.64-4.19-.39-2.98-.83-6.05-1.26-8.97Z"/></g><g><path class="cls-11" d="M228.81,155.69c.05,.73,.2,1.47,.37,2.23,.57,2.59,1.29,5.14,2.15,7.64,.29,.83,.62,1.7,1.3,2.25,.48,.4,1.1,.59,1.7,.75,4.6,1.17,9.44,.34,14.19,.44,.43,0,.88,.03,1.29-.09,.43-.12,.81-.38,1.15-.67,.85-.74,1.46-1.71,2.06-2.66,1.68-2.68,3.01-5.6,3.92-8.65,.19-.64,.36-1.3,.25-1.96-.17-1.06-1.03-1.88-1.89-2.52-4.64-3.46-10.7-4.4-16.49-4.37-2.43,.01-5,.22-7.01,1.59-1.29,.87-2.25,2.21-2.72,3.69-.25,.8-.31,1.56-.26,2.33Z"/><g><path class="cls-40" d="M252.24,165c-.2-.77-1.65-.6-2.2-.53-1.15,.16-2.26,.61-3.34,.99-.29,.1-.58,.2-.87,.31-.4,.13-.8,.27-1.18,.43-.04,.02-.08,.04-.11,.06-.48,.19-.96,.38-1.43,.59-.04,.02-.07,.03-.11,.05,0,0-.02,0-.02-.01-.31-.13-.69-.22-1.03-.18-.18,.02-.35,.1-.51,.21-.05-.02-.09-.04-.14-.06-.47-.21-.95-.4-1.43-.59-.04-.02-.08-.04-.11-.06-.38-.16-.78-.3-1.18-.43-.29-.1-.58-.21-.87-.31-1.09-.38-2.2-.83-3.34-.99-.55-.08-2-.24-2.2,.53-.07,.28,.13,.66,.19,.93,.05,.26,.08,.52,.09,.79,0,.56-.16,1.12,0,1.68,.09,.34,.26,.64,.36,.96,.03,.23,.05,.46,.08,.69-.02,.41-.1,.82-.06,1.23,.08,.9,.84,1.42,1.69,1.53,1.05,.14,2.15-.3,3.11-.68,1.25-.5,2.33-1.29,3.46-2.01,.31,.21,.75,.26,1.13,.28,.31,.02,.66-.04,.91-.26,.06-.02,.12-.05,.18-.08,1.15,.74,2.26,1.56,3.54,2.07,.95,.38,2.06,.82,3.11,.68,.85-.11,1.6-.63,1.69-1.53,.04-.41-.04-.82-.06-1.23,.03-.23,.05-.46,.08-.69,.1-.32,.27-.62,.36-.96,.15-.55-.01-1.11,0-1.68,0-.26,.03-.53,.09-.79,.06-.27,.27-.65,.19-.93Z"/><g><path class="cls-32" d="M240.79,167.27c-.34,.74-.42,1.58-.22,2.36,.05,.19,.57,.16,.53,0-.2-.76-.13-1.58,.2-2.29,.08-.18-.43-.23-.51-.07Z"/><path class="cls-32" d="M243.58,167.15c-.09-.16-.6-.1-.51,.07,.42,.72,.47,1.62,.12,2.38-.08,.18,.43,.23,.51,.07,.36-.81,.32-1.76-.12-2.53Z"/><path class="cls-32" d="M247.93,167.19c-.04-.1-.24-.1-.32-.09-.82,.11-1.63,.24-2.44,.39-.08,.01-.23,.06-.18,.16,.04,.1,.24,.11,.32,.09,.81-.15,1.63-.28,2.44-.39,.08-.01,.23-.06,.18-.16Z"/><path class="cls-32" d="M248.01,170.11c-.57-.26-1.17-.48-1.78-.64-.11-.03-.27-.03-.36,.05-.09,.08,.01,.16,.09,.18,.57,.15,1.13,.35,1.67,.6,.11,.05,.26,.06,.37,0,.09-.05,.1-.14,0-.19Z"/><path class="cls-32" d="M238.98,167.45c-.69-.19-1.37-.37-2.06-.56-.11-.03-.27-.03-.36,.05-.09,.08,.01,.16,.09,.18,.69,.19,1.37,.37,2.06,.56,.11,.03,.27,.03,.36-.05,.09-.08-.01-.16-.09-.18Z"/><path class="cls-32" d="M239.21,169.07c-.1-.05-.27-.06-.37,0-.46,.3-.95,.56-1.46,.78-.1,.04-.09,.14,0,.19,.11,.06,.26,.05,.37,0,.51-.22,.99-.48,1.46-.78,.03-.02,.08-.05,.08-.09,0-.04-.04-.08-.08-.09Z"/></g></g></g><path class="cls-10" d="M243.72,178.6c-.02-.12-.05-.23-.1-.35-.13-.29-.38-.54-.67-.66-.32-.13-.69-.12-1.03-.05-.83,.18-1.19,1.2-.89,1.97,.19,.48,.65,.74,1.14,.75,.89,.03,1.67-.8,1.55-1.66Z"/><path class="cls-10" d="M243.72,188.72c-.02-.12-.05-.23-.1-.35-.13-.3-.38-.54-.67-.66-.32-.13-.69-.12-1.03-.05-.83,.18-1.19,1.2-.89,1.97,.19,.48,.65,.74,1.14,.76,.89,.03,1.67-.8,1.55-1.66Z"/><g><path class="cls-9" d="M246.23,162.78c1.45-1.48,3-2.84,4.47-4.3,1.3-1.3,2.66-2.9,2.65-4.84,0-.28-.04-.55-.07-.83-.14-1.05-.39-2.09-.22-3.14,.21-1.29,.46-2.54,.47-3.86,.03-2.66-3.34-3.42-5.41-4.26-2.88-1.18-5.93-2.04-9.06-2.06-.89,0-1.82,.06-2.61,.46-1.92,.96-2.55,3.27-2.88,5.2-.27,1.53-.54,3.07-.8,4.6-.11,.64-.08,1.26-.2,1.91-.13,.7-.34,1.4-.22,2.13,.09,.59,.38,1.12,.68,1.64,1.73,3,3.84,5.79,6.21,8.32,.7,.75,1.5,1.51,2.51,1.67,.89,.14,1.8-.22,2.52-.75,.73-.53,1.32-1.23,1.95-1.87Z"/><path class="cls-9" d="M263.35,128.85c.34-1.65,.88-3.57,.76-5.26-.11-1.5-1.11-2.79-2.06-3.84-2.73-2.99-5.67-5.9-9.28-7.75-4.57-2.35-10.08-2.81-14.98-1.25-1.37,.43-2.78,.87-3.49,2.17-.8,1.47-1.63,2.82-2.19,4.42-1.1,3.16-1.48,6.52-1.75,9.84-.62,7.69-.33,17.15,5.71,22.77,1.92,1.79,4.54,2.76,7.17,2.8,2.27,.03,4.94-.21,6.96-1.31,.73-.39,1.38-.9,1.99-1.45,1.55-1.39,2.86-2.67,4.07-4.41,1.22-1.77,2.29-3.64,3.26-5.56,.82-1.61,1.57-3.25,2.29-4.9,.63-1.44,.84-3.15,1.19-4.69,.12-.52,.23-1.04,.34-1.56Z"/><path class="cls-17" d="M228.58,123.18c.15,.53,.28,1.06,.33,1.63,.08,.94,.2,1.91,.36,2.84,.18,1.04,.67,3.86,2.09,2.14,.6-.72,1.07-1.65,1.24-2.56,.15-.78,.28-1.53,1.22-1.73,.61-.13,1.25,.1,1.87,.02,1-.13,1.7-1.03,2.22-1.89,.53-.86,1.08-1.81,2.02-2.17,.63-.24,1.38-.16,1.95,.2,.38,.24,.68,.59,1.03,.87,1.18,.96,2.9,1.11,4.31,.55,1.41-.56,2.52-1.76,3.16-3.14,.25-.54,.45-1.13,.87-1.56,.49-.5,1.22-.71,1.92-.71,.7,0,1.39,.18,2.06,.36,.21,.06,.44,.12,.6,.28,.37,.37-.06,.91-.19,1.28-.18,.5-.16,1.08,.07,1.57,.31,.67,.94,1.13,1.37,1.72,.91,1.25,.54,2.73,.51,4.15-.03,1.64,.13,3.34,.98,4.78,.29,.49,.68,.72,1.06,1.11,.32,.33,.5,.71,.86,1,1.76,1.43,2.51-.06,3.51-1.35,.97-1.25,1.39-2.9,.99-4.45-.19-.75-.56-1.47-.55-2.24,.02-1.44,1.3-2.54,1.67-3.93,.41-1.52-.34-3.1-1.12-4.46-.48-.82-1-1.65-1.77-2.21-.64-.46-1.41-.71-2.13-1.04-2.03-.95-2.04-2.44-2.35-4.42-.22-1.42-1.03-2.73-2.19-3.57s-2.67-1.19-4.08-.95c-.91,.15-1.77,.54-2.68,.73-1.88,.41-3.83,0-5.74-.23-1.91-.23-4-.22-5.57,.89-1.01,.71-1.68,1.79-2.53,2.68-1.9,2.03-4.66,3.14-6.39,5.32-1.53,1.92-2.08,4.58-1.44,6.94,.14,.53,.31,1.04,.46,1.54Z"/><g><path class="cls-9" d="M232.82,127.36c-2.95-2.86-5.6,.35-5.61,2.73,0,1.48,.58,2.97,1.22,4.41,.55,1.23,1.62,3.03,3.6,2.71,.78-.13,1.21-.67,1.53-1.19,1.21-1.99,1.36-4.77,.4-7.01-.25-.59-.64-1.16-1.14-1.65Z"/><path class="cls-9" d="M259.98,132.83c3.83-1.5,5.02,2.49,4.12,4.69-.57,1.37-1.68,2.51-2.83,3.59-.98,.92-2.66,2.17-4.37,1.1-.66-.42-.86-1.09-.95-1.69-.35-2.3,.59-4.92,2.35-6.62,.46-.44,1.04-.82,1.69-1.08Z"/></g><path class="cls-39" d="M240,134.78c-.06,.79,.37,1.47,.96,1.52s1.12-.56,1.18-1.35c.06-.79-.37-1.47-.96-1.52-.59-.05-1.12,.56-1.18,1.35Z"/><path class="cls-39" d="M248.48,135.3c-.06,.79,.37,1.47,.96,1.52s1.12-.56,1.18-1.35c.06-.79-.37-1.47-.96-1.52-.59-.05-1.12,.56-1.18,1.35Z"/><path class="cls-39" d="M237.62,128.07c-.5,.14-.52-.26-.19-.54,2.48-2.07,7.22-.24,6.42,.85-.17,.23-.49,.36-.72,.21-2.11-1.35-4.3-.86-5.51-.52Z"/><path class="cls-39" d="M254.25,129.82c.45,.25,.57-.14,.3-.49-1.95-2.56-6.97-1.82-6.44-.59,.11,.26,.4,.45,.65,.36,2.35-.85,4.38,.11,5.48,.71Z"/></g><g><path class="cls-9" d="M193.64,199.99c1.13,.52,2.03,1.56,2.31,2.77,.28,1.21-.08,2.57-.99,3.43-.43,.4-.99,.7-1.58,.66-.89-.05-1.56-.8-2.11-1.5-.53-.68-1.06-1.39-1.33-2.2-.26-.76-.68-2.81,.17-3.32,.94-.57,2.61-.26,3.53,.17Z"/><g><path class="cls-37" d="M239.5,214.87c.39,.4,.71,.87,.97,1.53,.47,1.19,.72,2.5,1.44,3.56,.38,.55,.87,1.02,1.28,1.55,.61,.79,1.04,1.71,1.24,2.69,.34,1.65,.05,3.42,.65,4.99,.19,.48,.45,.93,.68,1.4,.62,1.27,.96,2.68,.99,4.1,.01,.78-.28,1.43-.97,1.82-1.09,.27-1.09-.53-1.83-.98-.78-.47-1.64,.06-2.41,0-1.05-.08-.54-1.15-.45-1.9,.13-1.07-.65-2.03-.83-3.09-.2-1.12,.28-2.23,.54-3.34,.32-1.35,.3-2.83-.39-4.03-.44-.78-1.13-1.39-1.58-2.16-.64-1.09-.74-2.4-1.04-3.63-.29-1.21-.96-2.41-1.9-3.25-.97-.86-2.47-.4-3.64-.61-.55-.1-2.19-.88-.83-1.19,.85-.19,1.73-.26,2.6-.21,1.53,.1,2.66,.87,3.92,1.62,.63,.37,1.14,.7,1.56,1.13Z"/><g><path class="cls-38" d="M184.66,235.64c.55,.67,1.24,1.2,1.97,1.68l17.7,6.74c.86,.13,1.73,.2,2.59,.06,1.12-.18,2.22-.76,2.8-1.73,.36-.61,.49-1.34,.61-2.04,1.59-9.76,1.49-19.99,5.5-29.03,.78-1.76,1.71-3.46,2.47-5.23,.36-.84,.33-1.43,.07-1.87l-15.69-5.98c-.49,.16-.9,.58-1.19,1.44-.61,1.83-1.05,3.71-1.64,5.55-3.02,9.41-9.9,16.99-15.21,25.33-.38,.6-.77,1.23-.9,1.93-.22,1.11,.22,2.28,.93,3.16Z"/><path class="cls-38" d="M197.66,229.15l-7.86-2.99c-4.68-1.78-7.04-7.05-5.26-11.73l2.87-7.54c1.78-4.68,7.05-7.04,11.73-5.26l7.86,2.99-9.34,24.53Zm.6-25.19c-3.4-1.29-7.21,.42-8.51,3.81l-2.87,7.54c-1.29,3.4,.42,7.21,3.81,8.51l5.52,2.1,7.56-19.86-5.52-2.1Z"/><path class="cls-38" d="M231.56,212.2c-6.81,.56-10.28,9.02-14.47,13.82-2.01,2.31-4.65,4.5-7.71,4.4-.46-.01-.92-.08-1.37,0-2.2,.42-1.04,2.49-1.83,3.72,.18,.17,.37,.31,.55,.48,.67,.62,1.16,1.31,2.2,1.63,1.25,.38,2.67,.29,3.88-.22,2.2-.93,3.77-2.91,5.09-4.9,3.91-5.89,6.16-14.58,13.78-16.75,.86-.24,1.72-.33,2.6-.46,.39-.06,.64-.02,.91-.32,0,0,.01-.02,.02-.03l-3.65-1.39Z"/></g><g><path class="cls-37" d="M257.01,272.48c-1.47,2.59-4.23,4.2-7.21,4.2h-12.87c-2.98,0-5.74-1.61-7.21-4.2-1.06-1.86-1.33-4.06-.83-6.1h28.94c.51,2.04,.23,4.23-.83,6.1Z"/><path class="cls-14" d="M257.84,266.38c-.18-.73-.46-1.44-.85-2.11l-5.73-9.99h-15.8l-5.73,9.99c-.38,.67-.66,1.38-.85,2.11-.51,2.04-.23,4.23,.83,6.1,1.47,2.59,4.23,4.2,7.21,4.2h12.87c2.98,0,5.74-1.61,7.21-4.2,1.06-1.86,1.33-4.06,.83-6.1Zm-1.77,5.56c-1.28,2.25-3.68,3.65-6.26,3.65h-12.87c-2.59,0-4.99-1.4-6.26-3.65-.96-1.7-1.18-3.72-.65-5.56,.16-.55,.38-1.07,.67-1.57l5.41-9.44h14.54l5.41,9.44c.29,.5,.51,1.03,.67,1.57,.53,1.84,.31,3.86-.65,5.56Z"/><g><path class="cls-15" d="M226.6,236.6c-.66-1.2-1.32-2.42-1.65-3.76,.02,.08,3.19,.56,3.51,.65,1.16,.32,2.3,.87,3.48,1.09,2.14,.4,4.08,1.57,6.28,1.8,1.26,.13,2.52,.02,3.78-.1,4.48-.42,8.98-.85,13.32-2.09,2.15-.61,4.26-1.42,6.47-1.67-1.22,4.62-4.43,8.31-6.83,12.4-.51,.87-1,1.78-1.72,2.46-.78,.74-1.75,1.19-2.43,2.05-.71,.9-1.54,1.69-2.65,2.06-1.16,.38-2.4,.17-3.59-.06-3.22-.64-6.41-1.42-9.56-2.34-.6-.18-1.58-.27-2.03-.74-.41-.43-.68-1.31-.98-1.84-.84-1.54-1.68-3.08-2.52-4.63-.96-1.76-1.92-3.52-2.88-5.29Z"/><path class="cls-37" d="M229.53,241.97c.83,1.51,1.65,3.03,2.48,4.54,.29,.53,.56,1.41,.98,1.84,.45,.47,1.43,.56,2.03,.74,3.15,.93,6.34,1.71,9.56,2.34,1.19,.23,2.44,.45,3.59,.06,1.1-.37,1.94-1.16,2.65-2.06,.68-.86,1.65-1.32,2.43-2.05,.72-.68,1.21-1.59,1.72-2.46,.59-1,1.23-1.98,1.87-2.96h-27.31Z"/><path class="cls-10" d="M253.28,248.16c.36-.54,0-1.28-.63-1.28h-20.08c-.63,0-1,.74-.63,1.28l1.08,1.59c1.25,1.85,1.25,4.33,0,6.18l-1.08,1.59c-.36,.54,0,1.28,.63,1.28h20.08c.63,0,1-.74,.63-1.28l-1.08-1.59c-1.25-1.85-1.25-4.33,0-6.18l1.08-1.59Z"/><path class="cls-22" d="M251.06,252.94h-16.95c-.41,0-.42,.82,0,.82h16.95c.41,0,.42-.82,0-.82Z"/></g></g></g><path class="cls-9" d="M187.18,199.46c-.86,.35-1.59,.76-2.03,1.63-.19,.38-.31,.79-.58,1.12-.23,.28-.54,.47-.83,.67-.57,.4-1.1,.93-1.29,1.59-.24,.82,.02,1.81-.51,2.48-.14,.18-.34,.33-.47,.52-.38,.58-.07,1.34-.07,2.04,0,1.07-.73,2.13-.36,3.13,.51,1.38,2.08,2.54,3.29,3.3,.83,.52,2.17,1.21,3.19,1.02,.95-.17,1.43-1.23,1.1-2.1,.54,.11,1.13-.06,1.52-.44s.59-.96,.51-1.5c-.07-.41-.28-.79-.34-1.2,.38,.04,.79,.07,1.12-.11,.39-.22,.58-.68,.58-1.13,0-.44-.15-.87-.3-1.29,.72,.06,1.55,.08,2.03-.46,.31-.35,.38-.85,.36-1.32-.08-1.96-1.4-3.61-2.58-5.17-.37-.49-.75-1.05-.7-1.66,.02-.31,.15-.64,0-.9-.07-.13-.2-.22-.33-.29-1.03-.57-2.25-.37-3.29,.05Z"/></g><path class="cls-39" d="M244.13,141.53s-.02,0-.03,0c-.04,0-.07-.03-.07-.08,0-.04,.03-.07,.08-.07,.01,0,.02,0,.03,0,.97,0,2.09-.3,2.31-.98,.06-.19-.12-.62-.34-1.17-.39-.96-.92-2.27-.91-3.78,0-.04,.03-.07,.08-.07h0s.07,.03,.07,.08c-.01,1.47,.51,2.77,.9,3.72,.25,.63,.42,1.04,.34,1.28-.24,.74-1.44,1.08-2.45,1.08Z"/><path class="cls-7" d="M246.04,145.33c-1.12,.26-2.62,.19-4.06-1.24-.12-.12-.12-.31,0-.42,.12-.12,.31-.12,.42,0,2.39,2.38,4.91,.49,5.02,.41,.13-.1,.32-.08,.42,.06,.1,.13,.08,.32-.05,.42-.01,.01-.71,.54-1.74,.78Z"/><path class="cls-5" d="M229.06,159.31s1.56,3.85,2.35,5.01"/><path class="cls-5" d="M256.46,157.78s-.42,3.8-3.63,7.12"/><path class="cls-5" d="M206.29,179.48s-1.77,12.57-.49,16.5"/><path class="cls-5" d="M279.82,186.02s-1.94,20.56-3.09,22.9"/><g><g><g><path class="cls-35" d="M274.59,278.72c0,1.25-1.42,2.26-3.17,2.26h-65.19c-1.75,0-3.17-1.01-3.17-2.26h0c0-1.25,1.42-2.26,3.17-2.26h65.19c1.75,0,3.17,1.01,3.17,2.26h0Z"/><rect class="cls-34" x="210.21" y="280.44" width="57.98" height="5.85"/></g><g><g><rect class="cls-34" x="377.6" y="234.47" width="34.54" height="51.4"/><rect class="cls-24" x="375.58" y="231.33" width="38.58" height="4.59"/></g><g><rect class="cls-27" x="285.54" y="242.69" width="7.28" height="43.56"/><rect class="cls-27" x="275.35" y="232.46" width="27.65" height="15.43"/><rect class="cls-41" x="279.07" y="237.43" width="20.21" height="5.51"/></g><g><g><rect class="cls-27" x="313.89" y="247.94" width="43.66" height="26.24"/><rect class="cls-20" x="301.16" y="268.3" width="69.12" height="17.78"/></g><rect class="cls-33" x="308.51" y="272.71" width="54.41" height="4.49"/><g><circle class="cls-11" cx="335.75" cy="258.51" r="6.9" transform="translate(31.27 553.21) rotate(-81.66)"/><g class="cls-45"><path class="cls-46" d="M337.8,255.12c1.31,.79,1.45,2.95,.31,4.83-1.13,1.88-3.11,2.75-4.42,1.96-1.31-.79-1.45-2.95-.31-4.83,1.13-1.88,3.11-2.75,4.42-1.96Z"/><path class="cls-13" d="M337.77,255.1c.23,.14-.5,1.78-1.63,3.65-1.13,1.88-2.24,3.28-2.48,3.14-.23-.14,.5-1.78,1.63-3.65,1.13-1.88,2.24-3.28,2.48-3.14Z"/></g></g></g></g><g><rect class="cls-26" x="96.76" y="288.88" width="161.67" height="107.73"/><rect class="cls-16" x="88.68" y="284.78" width="177.84" height="8.92"/><rect class="cls-25" x="254.88" y="288.88" width="161.67" height="107.73"/><g><circle class="cls-11" cx="335.62" cy="343.66" r="26.55" transform="translate(-53.08 625.88) rotate(-81.66)"/><g class="cls-45"><path class="cls-46" d="M343.53,330.59c5.03,3.04,5.57,11.36,1.2,18.58-4.37,7.22-11.98,10.6-17.01,7.56-5.03-3.04-5.57-11.36-1.2-18.58,4.37-7.22,11.98-10.6,17.01-7.56Z"/><path class="cls-13" d="M343.4,330.51c.9,.55-1.91,6.84-6.27,14.06-4.37,7.22-8.64,12.63-9.54,12.08-.9-.55,1.91-6.84,6.27-14.06,4.37-7.22,8.64-12.63,9.54-12.08Z"/></g></g><rect class="cls-16" x="246.8" y="284.78" width="177.84" height="8.92"/></g></g><g><rect class="cls-18" x="435.1" y="238.23" width="89.85" height="108.36"/><g><rect class="cls-36" x="433.35" y="260.07" width="94.87" height="3.76"/><rect class="cls-36" x="433.35" y="287.17" width="94.87" height="3.76"/><rect class="cls-36" x="433.35" y="314.28" width="94.87" height="3.76"/></g><g class="cls-44"><path class="cls-23" d="M445.68,247h7.54c2.27,0,4.11,1.84,4.11,4.11v2.78c0,2.27-1.84,4.11-4.11,4.11h-7.54c-2.27,0-4.11-1.84-4.11-4.11v-2.78c0-2.27,1.84-4.11,4.11-4.11Z"/><path class="cls-23" d="M466.23,247h7.54c2.27,0,4.11,1.84,4.11,4.11v2.78c0,2.27-1.84,4.11-4.11,4.11h-7.54c-2.27,0-4.11-1.84-4.11-4.11v-2.78c0-2.27,1.84-4.11,4.11-4.11Z"/><path class="cls-23" d="M486.79,247h7.54c2.27,0,4.11,1.84,4.11,4.11v2.78c0,2.27-1.84,4.11-4.11,4.11h-7.54c-2.27,0-4.11-1.84-4.11-4.11v-2.78c0-2.27,1.84-4.11,4.11-4.11Z"/><path class="cls-23" d="M507.34,247h7.54c2.27,0,4.11,1.84,4.11,4.11v2.78c0,2.27-1.84,4.11-4.11,4.11h-7.54c-2.27,0-4.11-1.84-4.11-4.11v-2.78c0-2.27,1.84-4.11,4.11-4.11Z"/></g><g class="cls-44"><path class="cls-23" d="M445.68,324.55h7.54c2.27,0,4.11,1.84,4.11,4.11v2.78c0,2.27-1.84,4.11-4.11,4.11h-7.54c-2.27,0-4.11-1.84-4.11-4.11v-2.78c0-2.27,1.84-4.11,4.11-4.11Z"/><path class="cls-23" d="M466.23,324.55h7.54c2.27,0,4.11,1.84,4.11,4.11v2.78c0,2.27-1.84,4.11-4.11,4.11h-7.54c-2.27,0-4.11-1.84-4.11-4.11v-2.78c0-2.27,1.84-4.11,4.11-4.11Z"/><path class="cls-23" d="M486.79,324.55h7.54c2.27,0,4.11,1.84,4.11,4.11v2.78c0,2.27-1.84,4.11-4.11,4.11h-7.54c-2.27,0-4.11-1.84-4.11-4.11v-2.78c0-2.27,1.84-4.11,4.11-4.11Z"/><path class="cls-23" d="M507.34,324.55h7.54c2.27,0,4.11,1.84,4.11,4.11v2.78c0,2.27-1.84,4.11-4.11,4.11h-7.54c-2.27,0-4.11-1.84-4.11-4.11v-2.78c0-2.27,1.84-4.11,4.11-4.11Z"/></g><g class="cls-44"><path class="cls-23" d="M475.76,280.32c0,2.49-2.31,4.52-5.16,4.52h-19.8c-2.85,0-5.16-2.02-5.16-4.52v-6.51c0-2.49,2.31-4.52,5.16-4.52h19.8c2.85,0,5.16,2.02,5.16,4.52v6.51Z"/><path class="cls-23" d="M514.91,280.32c0,2.49-2.31,4.52-5.16,4.52h-19.8c-2.85,0-5.16-2.02-5.16-4.52v-6.51c0-2.49,2.31-4.52,5.16-4.52h19.8c2.85,0,5.16,2.02,5.16,4.52v6.51Z"/></g><g class="cls-44"><path class="cls-23" d="M465.57,299.96c0,6.87-5.3,12.44-11.85,12.44s-11.85-5.57-11.85-12.44"/><path class="cls-23" d="M492.13,299.96c0,6.87-5.31,12.44-11.85,12.44s-11.85-5.57-11.85-12.44"/><path class="cls-23" d="M518.68,299.96c0,6.87-5.31,12.44-11.85,12.44s-11.85-5.57-11.85-12.44"/></g><rect class="cls-29" x="427.57" y="337.73" width="105.41" height="58.94"/><rect class="cls-27" x="435.48" y="345.26" width="89.6" height="43.88"/><rect class="cls-4" x="441.88" y="351.01" width="76.8" height="32.38"/><rect class="cls-29" x="427.58" y="235.16" width="11.54" height="104.07"/><rect class="cls-29" x="521.44" y="235.16" width="11.54" height="104.07"/></g></g></g></g></svg>