<?xml version="1.0" encoding="UTF-8"?><svg id="_圖層_2" xmlns="http://www.w3.org/2000/svg" xmlns:xlink="http://www.w3.org/1999/xlink" viewBox="0 0 579.41 396.67"><defs><style>.cls-1,.cls-2,.cls-3,.cls-4,.cls-5,.cls-6,.cls-7,.cls-8,.cls-9{fill:none;}.cls-2{stroke:#5fc7b9;}.cls-2,.cls-3{stroke-width:1.5px;}.cls-2,.cls-3,.cls-4,.cls-10,.cls-5,.cls-6,.cls-7,.cls-8,.cls-9{stroke-miterlimit:10;}.cls-3,.cls-4,.cls-10,.cls-5,.cls-6{stroke:#bde3e2;}.cls-11{clip-path:url(#clippath);}.cls-12{fill:#003057;}.cls-13{fill:#0083c9;}.cls-14{fill:#00102e;}.cls-15{fill:#007a7a;}.cls-16{fill:#ed8a7c;}.cls-17{fill:#f3bf94;}.cls-18{fill:#ffb029;}.cls-19,.cls-10{fill:#fff;}.cls-20{fill:#ffa099;}.cls-21{fill:#ffc8c2;}.cls-22{fill:#ffc552;}.cls-23{fill:#f90;}.cls-24{fill:#00a19b;}.cls-25{fill:#bde3e2;}.cls-26{fill:#0a0036;}.cls-27{fill:#0e004c;}.cls-28{fill:#87d4c7;}.cls-29{fill:#2b2b2b;}.cls-30{fill:#2a3f6e;}.cls-31{fill:#28c0fc;}.cls-32{fill:#4992e3;}.cls-33{fill:#384985;}.cls-34{fill:#5fc7b9;}.cls-35{fill:#7ae2ff;}.cls-4{stroke-width:5px;}.cls-36{fill:url(#_未命名漸層_30);}.cls-5{stroke-width:2px;}.cls-6{stroke-width:4px;}.cls-7{stroke:#ffb4a4;}.cls-8{stroke:#fff;}.cls-9{stroke:#2b2b2b;stroke-width:.5px;}</style><clipPath id="clippath"><rect class="cls-1" width="579.41" height="396.67" rx="12" ry="12"/></clipPath><radialGradient id="_未命名漸層_30" cx="274.53" cy="198.29" fx="274.53" fy="198.29" r="193.76" gradientUnits="userSpaceOnUse"><stop offset=".21" stop-color="#bbdfdc" stop-opacity=".8"/><stop offset="1" stop-color="#bedfde" stop-opacity="0"/></radialGradient></defs><g id="_圖層_1-2"><g class="cls-11"><g id="background"><path id="background-2" class="cls-36" d="M448.05,352.48H84.83c-31.95-24.12-62.13-155.26-3.48-149.8,26.02,2.42,50.63,37.74,77.17,29.11,29.45-9.58,48.02-205.91,162.96-186.3,67.08,11.45,86.86,128.45,75.84,166.69,15.27-19.85,60.59-51.47,92.87-23.41,40.31,35.06-44.68,128.59-42.13,163.71Z"/></g><g><rect class="cls-19" x="257.56" y="40.01" width="174.76" height="115.07"/><path class="cls-21" d="M343.47,100.31c-7.29-12.13-15.67-17.94-21.71-16.25-3.49,.98-5.67,4.04-6.43,16.85-2.88-2.7-2.91-8.06-2.91-12.93v-13.09h-4.69v13.09c0,4.98,.14,10.18-2.82,13.09-.75-12.92-2.94-16-6.44-17.01-5.9-1.69-14.72,4.12-22.01,16.25-8.33,13.85-12.23,33.71-7.81,39.04,4.11,4.95,27.47,5.21,32.68-.36,3.37-3.61,3.9-12.24,3.9-24.13,0-2.4-.02-4.62-.06-6.68,2.63-1.89,4.19-4.09,4.9-7.28,.85,3.14,2.41,5.33,4.98,7.14-.04,2.1-.07,4.36-.07,6.82,0,11.89,.54,20.52,3.9,24.13,5.21,5.58,28.28,5.32,32.38,.36,4.43-5.33,.52-25.19-7.81-39.04Z"/><path class="cls-20" d="M315.33,100.91c-2.88-2.7-2.91-8.06-2.91-12.93v-13.09h-4.69v13.09c0,4.98,.14,10.18-2.82,13.09,.13,1.47,.13,4.37,.26,7.11,2.63-1.89,4.19-4.09,4.9-7.28,.85,3.14,2.41,5.33,4.98,7.14,.04-2.67,.19-5.15,.27-7.13Z"/><line class="cls-4" x1="275.07" y1="53" x2="358.48" y2="53"/><line class="cls-6" x1="275.07" y1="61.56" x2="331.2" y2="61.56"/><polyline class="cls-5" points="341.42 120.68 354.95 143.12 419.77 143.12"/><line class="cls-4" x1="419.77" y1="119.46" x2="384.9" y2="119.46"/><line class="cls-5" x1="419.77" y1="129.13" x2="392.73" y2="129.13"/><line class="cls-5" x1="419.77" y1="134.13" x2="392.73" y2="134.13"/><g><line class="cls-5" x1="419.77" y1="57.33" x2="389.23" y2="57.33"/><line class="cls-5" x1="419.77" y1="63.12" x2="389.23" y2="63.12"/><circle class="cls-10" cx="378.64" cy="58.42" r="6.32"/><polyline class="cls-3" points="374.67 56.74 378.64 61.27 384.96 53.4"/></g><g><line class="cls-5" x1="419.77" y1="77.81" x2="389.23" y2="77.81"/><line class="cls-5" x1="419.77" y1="83.6" x2="389.23" y2="83.6"/><circle class="cls-10" cx="378.64" cy="78.9" r="6.32" transform="translate(2.93 170.73) rotate(-25.51)"/><polyline class="cls-3" points="374.67 77.22 378.64 81.75 384.96 73.88"/></g><g><line class="cls-5" x1="419.77" y1="98.29" x2="389.23" y2="98.29"/><line class="cls-5" x1="419.77" y1="104.08" x2="389.23" y2="104.08"/><circle class="cls-10" cx="378.64" cy="99.38" r="6.32" transform="translate(216.29 455.59) rotate(-80.2)"/></g></g><g><g><polygon class="cls-2" points="511.46 184.96 511.46 172.1 500.32 165.67 489.18 172.1 489.18 184.96 500.32 191.4 511.46 184.96"/><line class="cls-2" x1="492.7" y1="174.87" x2="492.7" y2="182.19"/><line class="cls-2" x1="507.95" y1="174.87" x2="507.95" y2="182.19"/></g><g><polygon class="cls-2" points="478.01 165.68 478.01 152.81 466.87 146.38 455.73 152.81 455.73 165.68 466.87 172.11 478.01 165.68"/><line class="cls-2" x1="459.24" y1="155.58" x2="459.24" y2="162.91"/><line class="cls-2" x1="474.49" y1="155.58" x2="474.49" y2="162.91"/></g><g><polygon class="cls-2" points="522.61 152.81 511.46 146.38 500.32 152.81 500.32 165.68 511.46 172.11 522.61 165.68 522.61 152.81"/><line class="cls-2" x1="504.48" y1="164.01" x2="510.83" y2="167.68"/><line class="cls-2" x1="512.1" y1="150.81" x2="518.45" y2="154.47"/></g><line class="cls-2" x1="511.46" y1="146.38" x2="511.46" y2="139.61"/><line class="cls-2" x1="522.59" y1="152.96" x2="528.89" y2="150.47"/><line class="cls-2" x1="489.18" y1="172.33" x2="478.01" y2="165.68"/><line class="cls-2" x1="500.32" y1="198.47" x2="500.32" y2="191.7"/><path class="cls-2" d="M514.82,132.49c0,1.85-1.5,3.36-3.36,3.36s-3.36-1.5-3.36-3.36,1.5-3.36,3.36-3.36,3.36,1.5,3.36,3.36Z"/><line class="cls-2" x1="466.22" y1="146.38" x2="466.22" y2="139.61"/><path class="cls-2" d="M469.58,132.49c0,1.85-1.5,3.36-3.36,3.36s-3.36-1.5-3.36-3.36,1.5-3.36,3.36-3.36,3.36,1.5,3.36,3.36Z"/><path class="cls-2" d="M503.68,205.91c0,1.85-1.5,3.36-3.36,3.36s-3.36-1.5-3.36-3.36,1.5-3.36,3.36-3.36,3.36,1.5,3.36,3.36Z"/></g><g><path class="cls-28" d="M398.31,386.4c6.95-20.28,39.6-19.24,39.6-7.95,0,12.24-31.92,2.27-39.6,7.95Z"/><path class="cls-28" d="M374.62,345.49c-.5-26.99-29.33-55.56-43.41-43.77-14.08,11.79,43.41,43.77,43.41,43.77Z"/><path class="cls-24" d="M354.46,318.91c.13,0,.25-.09,.29-.22,2.54-9.12-.97-13.83-2.04-14.59-.13-.09-.32-.06-.41,.07-.09,.13-.06,.32,.07,.41,1,.71,4.26,5.17,1.81,13.95-.04,.16,.05,.32,.21,.37,.03,0,.05,.01,.08,.01Z"/><path class="cls-24" d="M350.35,328.67c4.16,0,8.55-1.7,9.65-4.88,.05-.15-.03-.32-.18-.38-.15-.05-.32,.03-.38,.18-1.21,3.48-7.13,5.12-11.61,4.25-.16-.03-.32,.07-.35,.24-.03,.16,.07,.32,.24,.35,.84,.16,1.73,.24,2.63,.24Z"/><path class="cls-24" d="M355.35,333.82h0c3.38-.06,5.96-3.93,6.75-7.74,.03-.16-.07-.32-.23-.35-.16-.03-.32,.07-.35,.23-.73,3.48-3.15,7.21-6.18,7.26-.16,0-.29,.14-.29,.3,0,.16,.13,.29,.3,.29Z"/><g><path class="cls-24" d="M421.29,317.18c-1.44-27.84,31.54-62.56,45.25-51.64,3.64,2.9,1.21,12.96-3.36,19-10.09,13.34-35.36,25.88-41.89,32.65Z"/><path class="cls-25" d="M437.91,289.27c.07,0,.14-.03,.2-.08,.12-.11,.13-.3,.02-.42-2.87-3.14-1.22-10.17,.81-12.3,.11-.12,.11-.31-.01-.42-.12-.11-.31-.11-.42,.01-2.21,2.32-3.94,9.68-.81,13.1,.06,.06,.14,.1,.22,.1Z"/><path class="cls-25" d="M430.47,299.98c.05,0,.1,0,.16,0,.16,0,.29-.15,.28-.31,0-.16-.15-.29-.31-.28-1,.05-1.99-.54-2.64-1.6-1.05-1.72-.92-4.06,.35-6.25,.08-.14,.03-.32-.11-.41-.14-.08-.32-.03-.41,.11-1.38,2.38-1.51,4.95-.34,6.86,.73,1.19,1.85,1.88,3.02,1.88Z"/><path class="cls-25" d="M443.45,282.92c.13,0,.25-.09,.29-.22,.98-3.86,7.56-10.79,14.59-13.96,2.67-1.21,6.48-2.32,9.47-.79,.15,.07,.32,.02,.4-.13,.07-.15,.02-.32-.13-.4-2.53-1.3-5.98-1.03-9.99,.77-6.66,3.01-13.77,9.85-14.92,14.36-.04,.16,.06,.32,.21,.36,.02,0,.05,0,.07,0Z"/><path class="cls-25" d="M442.77,283.61s.01,0,.02,0c.16,0,.29-.15,.28-.31-.36-6.08,4.72-16.19,15.2-19.37,.16-.05,.25-.21,.2-.37-.05-.16-.21-.25-.37-.2-10.77,3.27-15.99,13.7-15.62,19.97,0,.16,.14,.28,.3,.28Z"/><path class="cls-25" d="M442.73,294.38c6.21,0,14.03-2.15,18.28-6.79,.11-.12,.1-.31-.02-.42-.12-.11-.31-.1-.42,.02-6.14,6.7-20.53,8.08-25.1,5.05-.14-.09-.32-.05-.41,.08-.09,.14-.05,.32,.08,.41,1.64,1.09,4.4,1.66,7.58,1.66Z"/></g><g id="stem"><path class="cls-15" d="M391.48,410.21s-.02-.43-.05-1.24c-.03-.81-.06-2-.17-3.53-.08-1.53-.24-3.37-.42-5.49-.11-1.06-.23-2.18-.36-3.36-.16-1.18-.31-2.42-.49-3.72-.38-2.58-.82-5.38-1.41-8.32-.55-2.94-1.27-6.02-2.05-9.19-.43-1.58-.82-3.19-1.31-4.8-.24-.81-.46-1.62-.71-2.43-.26-.81-.51-1.62-.77-2.44-1.07-3.26-2.22-6.55-3.54-9.77l-.48-1.21-.51-1.2c-.35-.8-.68-1.6-1.04-2.39-.73-1.57-1.44-3.15-2.22-4.68-.74-1.55-1.57-3.04-2.36-4.52-.41-.74-.83-1.46-1.25-2.18-.21-.36-.41-.72-.62-1.07-.22-.35-.43-.7-.65-1.05-1.69-2.8-3.52-5.39-5.31-7.79-.46-.59-.92-1.17-1.37-1.75-.23-.28-.44-.58-.68-.85-.23-.27-.46-.54-.69-.81-.46-.54-.91-1.07-1.35-1.58-.46-.5-.92-.99-1.37-1.47-1.78-1.92-3.55-3.56-5.15-4.97-.2-.18-.39-.35-.59-.52-.2-.16-.4-.32-.59-.48-.39-.31-.76-.61-1.12-.9-.71-.59-1.41-1.07-2.03-1.52-.31-.22-.61-.44-.88-.63-.14-.1-.27-.2-.4-.29-.13-.09-.26-.17-.39-.25-.5-.32-.93-.59-1.27-.81-.69-.44-1.06-.68-1.06-.68-.28-.18-.64-.09-.82,.18-.18,.28-.1,.64,.18,.82l.03,.02s.36,.23,1.04,.67c.34,.22,.75,.49,1.24,.8,.12,.08,.25,.16,.38,.25,.13,.09,.26,.19,.39,.29,.27,.2,.56,.41,.86,.63,.61,.44,1.29,.92,1.98,1.5,.35,.29,.72,.58,1.1,.89,.19,.15,.38,.31,.58,.47,.19,.16,.38,.34,.58,.51,1.57,1.38,3.29,3,5.03,4.9,.44,.47,.88,.96,1.34,1.45,.43,.51,.87,1.03,1.32,1.57,.22,.27,.45,.53,.68,.8,.23,.27,.44,.56,.66,.84,.44,.57,.89,1.14,1.34,1.73,1.75,2.38,3.54,4.94,5.19,7.71,.21,.34,.42,.69,.64,1.04,.2,.35,.4,.71,.61,1.06,.4,.71,.82,1.43,1.22,2.15,.77,1.47,1.58,2.95,2.31,4.48,.77,1.51,1.46,3.08,2.17,4.64,.35,.78,.67,1.58,1.01,2.37l.5,1.19,.47,1.2c1.29,3.2,2.41,6.46,3.45,9.69,.25,.81,.5,1.62,.75,2.42,.25,.8,.46,1.61,.69,2.41,.47,1.6,.86,3.19,1.27,4.76,.76,3.14,1.45,6.19,1.99,9.11,.56,2.91,.99,5.68,1.35,8.24,.17,1.28,.31,2.51,.46,3.68,.12,1.17,.23,2.28,.34,3.33,.18,2.09,.32,3.92,.39,5.42,.1,1.49,.12,2.69,.15,3.5,.03,.81,.04,1.24,.04,1.24,.02,.49,.43,.88,.92,.86,.49-.02,.88-.43,.86-.92h0Z"/><path class="cls-15" d="M396.14,410.27s.02-.55,.05-1.57c.02-.51,.02-1.15,.07-1.88,.05-.73,.11-1.57,.17-2.51,.08-.94,.2-1.99,.31-3.13,.11-1.14,.3-2.36,.46-3.68,.17-1.31,.41-2.7,.63-4.17,.25-1.47,.52-3.01,.82-4.61,.62-3.2,1.33-6.67,2.2-10.32,.84-3.65,1.84-7.47,2.91-11.41,1.11-3.93,2.28-7.99,3.6-12.08,.63-2.05,1.34-4.1,2.02-6.16,.34-1.03,.71-2.05,1.07-3.08,.36-1.03,.71-2.06,1.09-3.08,.75-2.05,1.49-4.1,2.28-6.12,.76-2.03,1.58-4.04,2.38-6.03,.39-1,.82-1.98,1.23-2.96,.42-.98,.82-1.96,1.24-2.92,.86-1.92,1.67-3.83,2.55-5.67,.43-.93,.86-1.84,1.28-2.75,.44-.9,.88-1.79,1.31-2.67,.85-1.77,1.77-3.46,2.62-5.13,.43-.83,.89-1.63,1.32-2.43,.44-.79,.86-1.59,1.3-2.35,.44-.76,.88-1.51,1.31-2.24,.21-.37,.43-.73,.64-1.09,.21-.36,.44-.7,.65-1.05,.87-1.38,1.68-2.72,2.53-3.94,.41-.62,.82-1.22,1.21-1.8,.39-.58,.81-1.12,1.2-1.66,.39-.53,.77-1.05,1.13-1.55,.37-.5,.75-.95,1.1-1.4,.72-.89,1.35-1.73,1.99-2.43,.63-.71,1.18-1.35,1.67-1.9,.51-.52,.95-.97,1.31-1.33,.71-.72,1.09-1.11,1.09-1.11l.03-.03c.23-.23,.23-.61,0-.84-.23-.23-.61-.23-.84,0,0,0-.39,.39-1.12,1.13-.36,.37-.81,.82-1.34,1.36-.5,.56-1.07,1.2-1.71,1.93-.66,.71-1.3,1.56-2.03,2.46-.36,.46-.75,.92-1.12,1.42-.37,.5-.76,1.03-1.15,1.57-.39,.54-.82,1.09-1.22,1.68-.4,.59-.81,1.19-1.23,1.81-.86,1.23-1.68,2.58-2.57,3.97-.22,.35-.45,.7-.66,1.06-.21,.36-.43,.73-.65,1.09-.44,.74-.88,1.49-1.33,2.25-.45,.77-.87,1.56-1.32,2.36-.44,.8-.91,1.61-1.34,2.44-.87,1.67-1.8,3.37-2.66,5.15-.44,.89-.88,1.78-1.33,2.68-.43,.91-.86,1.83-1.3,2.76-.89,1.85-1.72,3.77-2.59,5.69-.43,.97-.84,1.95-1.26,2.93-.42,.98-.85,1.97-1.25,2.97-.81,2-1.64,4.01-2.42,6.04-.8,2.03-1.56,4.08-2.32,6.14-.39,1.02-.74,2.06-1.11,3.09-.36,1.03-.74,2.06-1.09,3.09-.69,2.07-1.41,4.12-2.05,6.18-1.34,4.1-2.53,8.17-3.67,12.12-1.09,3.96-2.12,7.8-2.98,11.46-.89,3.66-1.61,7.15-2.26,10.38-.3,1.62-.58,3.17-.84,4.65-.23,1.48-.47,2.89-.65,4.21-.17,1.33-.36,2.57-.48,3.72-.12,1.16-.24,2.21-.33,3.18-.07,.97-.13,1.83-.19,2.58-.06,.75-.06,1.38-.08,1.89-.04,1.02-.06,1.57-.06,1.57-.02,.49,.37,.9,.86,.92,.49,.02,.9-.37,.92-.86h0s0,0,0,0Z"/></g><path class="cls-25" d="M416.59,353.24c14.08-30.1,74.87-20.15,66.04,2.16-8.83,22.31-45.13-2.72-66.04-2.16Z"/><path class="cls-24" d="M403.25,367.67c.17,0,.34-.1,.41-.27,4.01-9.41,14.23-16.05,28.78-18.71,12.23-2.23,26.26-1.27,35.76,2.44,.23,.09,.49-.02,.58-.25,.09-.23-.02-.49-.25-.58-9.64-3.77-23.86-4.75-36.24-2.49-14.86,2.71-25.31,9.54-29.44,19.23-.1,.23,0,.49,.23,.58,.06,.02,.12,.04,.17,.04Z"/><path class="cls-24" d="M443.45,347.49c.16,0,.29-.13,.3-.29,.31-8.4,7.46-11.95,13.48-12.44,.16-.01,.28-.16,.27-.32-.01-.16-.16-.28-.32-.27-6.27,.51-13.7,4.22-14.03,13.01,0,.16,.12,.3,.29,.31,0,0,0,0,.01,0Z"/><path class="cls-24" d="M474.83,363.81c.17,0,.31-.13,.31-.3,0-.16-.13-.3-.3-.3h-.01c-4.63,0-9.56-2.34-13.52-6.44-2.97-3.07-4.84-6.61-4.76-9.03,0-.16-.12-.3-.29-.31-.16-.02-.3,.12-.31,.29-.08,2.57,1.85,6.29,4.92,9.46,4.07,4.21,9.16,6.62,13.95,6.62Z"/><path class="cls-24" d="M386.41,378.45c-8.68-16.68-37.38-30.85-43.15-16.68-4.94,12.11,29.38,8.68,43.15,16.68Z"/><path class="cls-34" d="M408.31,349.75c8.94-28.53-19.21-59.89-28.85-50.39-12.56,12.38,18.85,34.14,28.85,50.39Z"/><path class="cls-24" d="M408.31,350.19c.24,0,.44-.19,.44-.43,.58-15.1-9.46-35.63-19.21-45.33-3.76-3.74-7.25-5.65-10.1-5.52-.25,.01-.44,.22-.43,.46,.01,.25,.22,.43,.46,.43,2.6-.11,5.86,1.71,9.44,5.27,9.61,9.57,19.52,29.79,18.95,44.66,0,.25,.18,.45,.43,.46,0,0,.01,0,.02,0Z"/><path class="cls-24" d="M400.52,321.18c.06,0,.13-.02,.18-.06,.13-.1,.16-.29,.06-.42-2.46-3.22-8.86-6.89-14.12-7.02-2.74-.07-4.91,.81-6.42,2.61-.11,.13-.09,.31,.04,.42,.13,.11,.31,.09,.42-.04,1.39-1.65,3.4-2.46,5.95-2.4,5.35,.12,11.56,4.03,13.66,6.78,.06,.08,.15,.12,.24,.12Z"/><path class="cls-24" d="M390.04,328.66c.11,0,.22-.06,.27-.17,1.32-2.71,3.12-4.52,5.23-5.23,1.9-.65,4-.42,6.23,.69,.15,.07,.33,.01,.4-.13,.07-.15,.01-.32-.13-.4-2.38-1.18-4.63-1.42-6.69-.72-2.26,.77-4.18,2.68-5.57,5.54-.07,.15-.01,.32,.14,.4,.04,.02,.09,.03,.13,.03Z"/></g><polyline class="cls-12" points="196.06 359.36 196.06 396.67 286.83 396.67 292.16 368.78"/><line class="cls-8" x1="258.33" y1="384.92" x2="256.11" y2="396.67"/><g id="body"><path id="body-2" class="cls-19" d="M195.29,299.65c-6.43-36.05-10.78-58.39,.1-77.45,8.51-14.91,23.44-21.79,39.98-29.27-.12,.62-.25,1.31-.39,2.05,6.38-2.23,13.23-2.93,21.11-1.42,1.32,.25,3.28,.45,5.73,1.07v-.05c.08,.04,.16,.08,.23,.11,7.54,1.98,26.5,11.22,42.03,33.76,17.53,25.44,23.79,61.74,18.04,77.19-6,16.1-23.98,13.16-27.4,12.42,1.35,22.58,2.99,46.86-.55,50.71-13.39,14.56-88.77,4.98-99.97-9.41-4.8-6.16-2.87-39,1.1-59.71Z"/></g><g id="neck"><path class="cls-17" d="M235.11,194.58c-1.63,5.08,16.53,15.05,24.9,13.33,3.58-.74,2.94-10.25,2.17-12.32-.24-.66-.47-1.35-.69-2.04-2.52-8.23-3.03-18.58-3.03-18.58l-.06-.03-21.84-13.14s1.97,22.11-1.46,32.77Z"/><path class="cls-17" d="M238.63,165.19c-1.88,14.96,11.05,28.81,22.86,28.36-2.52-8.23-3.03-18.58-3.03-18.58l-.06-.03-19.78-9.75Z"/></g><path id="face_oval" class="cls-17" d="M235.99,149.24c0,1.62,.06,3.49,.19,5.48,.39,5.73,1.37,12.48,3.07,17.12,3.55,9.69,13.29,16.94,23.6,16.46,8.04-.37,11.73-6.28,12.51-12.4,.04-.28,.06-.57,.08-.85,.23-3.28-.45-7.04-1.25-10.67-.67-3.09-1.43-6.07-1.78-8.57-.45-3.2-.67-6.67-.91-9.61-.25-3.14-1.01-4.65-2.28-5.55-1.88-1.32-4.07-3.83-6.83-5.04-3.3-1.46-6.88-2.52-9.9-2.39-3.17,.14-6.65,1.97-9.67,4.31-1.62,1.25-3.09,2.63-4.33,3.99-.73,.8-1.37,1.59-1.9,2.33-.39,.54-.59,2.57-.6,5.39Z"/><g id="_ear"><path class="cls-17" d="M231.01,156.09c-3.12,2.94,4.38,15.79,7.83,9.43,3.42-6.31-4.04-13.01-7.83-9.43Z"/></g><g id="face"><g id="glasses"><path class="cls-14" d="M247.68,164.14h0c-1.19-4.21,1.14-8.56,5.19-9.7,4.05-1.14,8.3,1.35,9.49,5.56,.57,2.04,.35,4.16-.62,5.99-.98,1.84-2.6,3.15-4.56,3.7-.66,.19-1.33,.28-1.99,.28-3.37,0-6.5-2.32-7.5-5.84Zm5.4-8.94c-3.63,1.02-5.71,4.94-4.65,8.73h0c1.07,3.79,4.89,6.04,8.52,5.02,1.76-.49,3.21-1.67,4.08-3.32,.88-1.65,1.08-3.57,.56-5.41-.89-3.17-3.72-5.27-6.74-5.27-.59,0-1.19,.08-1.78,.25Zm-5.02,8.84h0Z"/><path class="cls-14" d="M247.8,161.57c.14,0,.28-.08,.35-.21,.1-.19,.02-.43-.17-.53-5.98-3.04-13.05-6.29-14.97-6.29-.22,0-.39,.18-.39,.39s.18,.39,.39,.39c1.45,0,7.32,2.49,14.62,6.21,.06,.03,.12,.04,.18,.04Z"/><path class="cls-14" d="M268.77,165.85c-1.5-1.05-2.63-2.69-3.17-4.61h0c-.54-1.92-.44-3.91,.3-5.59,.75-1.71,2.05-2.9,3.67-3.36,3.31-.93,6.93,1.56,8.06,5.56,.54,1.92,.44,3.91-.3,5.59-.75,1.71-2.05,2.9-3.67,3.36-.47,.13-.95,.2-1.44,.2-1.18,0-2.36-.39-3.45-1.15Zm1.01-12.81c-1.39,.39-2.51,1.43-3.16,2.92-.66,1.52-.76,3.32-.26,5.07,.49,1.75,1.51,3.24,2.87,4.18,1.33,.93,2.83,1.23,4.22,.84,1.39-.39,2.51-1.43,3.16-2.92,.66-1.52,.76-3.32,.26-5.07-.87-3.09-3.35-5.19-5.88-5.19-.41,0-.81,.05-1.22,.17Zm-3.81,8.09h0Z"/><path class="cls-14" d="M261.43,159.08c.18,0,.35-.13,.38-.32,.12-.63,.79-1.43,1.66-1.64,.71-.16,1.38,.13,1.94,.87,.13,.17,.38,.21,.55,.07,.17-.13,.21-.38,.07-.55-1.01-1.32-2.15-1.29-2.74-1.16-1.07,.25-2.06,1.23-2.26,2.25-.04,.21,.1,.42,.31,.46,.03,0,.05,0,.08,0Z"/></g><g><path class="cls-29" d="M266.96,159.49c-.05,.9,.38,1.66,.98,1.7,.59,.04,1.12-.67,1.17-1.57,.05-.9-.38-1.66-.98-1.7-.59-.04-1.12,.67-1.17,1.57Z"/><path class="cls-29" d="M253.58,159.69c.01,.97,.61,1.75,1.34,1.74s1.3-.81,1.29-1.78c-.01-.97-.61-1.75-1.34-1.74-.72,.01-1.3,.81-1.29,1.78Z"/></g><path class="cls-29" d="M250.44,152.43c-.56,.37-.75-.12-.44-.59,2.24-3.53,8.82-3.13,8.26-1.47-.12,.35-.47,.63-.81,.54-3.13-.83-5.65,.63-7.01,1.53Z"/><path class="cls-29" d="M270.97,149.86c-1.19-.89-3.53-.94-5.29-.3-.78,.29-.59,1.8,.18,1.48,1.28-.53,3.89-.88,5.35,.1l-.25-1.28Z"/><path class="cls-29" d="M263.25,173.06s-.03,0-.05,0c-.07,0-.12-.06-.12-.12,0-.07,.06-.12,.12-.12,.02,0,.03,0,.05,0,1.57,0,3.39-.49,3.75-1.59,.1-.3-.19-1.01-.55-1.91-.63-1.56-1.5-3.69-1.48-6.13,0-.07,.06-.12,.12-.12h0c.07,0,.12,.06,.12,.12-.02,2.39,.83,4.5,1.46,6.04,.41,1.02,.68,1.69,.56,2.07-.39,1.21-2.33,1.76-3.98,1.76Z"/><path class="cls-16" d="M265.99,179.46c-1.61,.38-3.78,.27-5.85-1.79-.17-.17-.17-.44,0-.61,.17-.17,.44-.17,.61,0,3.44,3.43,7.08,.71,7.23,.59,.19-.14,.46-.11,.61,.08,.15,.19,.11,.46-.08,.6-.02,.02-1.03,.78-2.51,1.13Z"/></g><g id="hair"><path class="cls-27" d="M240.43,148.42c.36-.32,1.09-.58,1.24-.79,.46-.66-.53-2.27-.06-2.65,1.11-.92,2.6,.09,3.23-.33,.86-.57-.56-2.54,.51-3.84,10.4,3.54,21.59,1.16,24.46-.98-.12,5.41,2.5,16.64,2.97,18.03-.51-4.44,2.8-8.61,1.83-11.25-.31-.85-1.74-.75-1.88-1.99-.14-1.3,2.78-3.58,.77-5.14-.65-.51-1.93-.51-3.28,0,5.04-10.4,1.03-16.85-4.91-19.13-9.9-3.8-27.12,3.3-31.11,18.16,.98,.62,.25,1.56,.08,1.88-1.46,2.74-1.11,5.82-.58,7.1,1.94,4.66,5.58,2.23,6.73,.94Z"/><path class="cls-26" d="M230.45,152.97c1.04,1.58,2.78,1.4,4.67,2.46,1.72,.97,2.97,4.76,3.81,4.28,.73-.42-.84-4.87-.04-5.56,.5-.43,1.82-.07,2.31-.5,1.06-.92-1.72-4.17-.78-5.23-1.23-.47-1.85,1.06-2.73,.82-.92-.25,.65-3.35,.07-4.25-.77-1.19-2.96-.4-3.72-1.33-.79-.96,4.19-4.31,.15-5.16-.16,.58-.45,1.37-1.09,1.83-1.4,1.01-2.27,.62-2.79,2.04-.77,2.12,2.62,3.53,2.14,5.06-.4,1.31-3.07,3.92-2.01,5.53Z"/><g><path class="cls-33" d="M262.34,122.92s.15,.01,.41,.04c.25,.03,.62,.06,1.05,.14,.43,.07,.93,.17,1.45,.32,.26,.08,.52,.16,.78,.27,.25,.11,.51,.23,.74,.37,.46,.29,.84,.66,1,1.08,.09,.21,.12,.43,.12,.64,0,.21-.03,.43-.09,.62-.02,.1-.05,.19-.09,.28-.03,.09-.07,.17-.1,.25-.06,.16-.14,.29-.19,.4-.12,.22-.19,.35-.19,.35h0c-.05,.11-.02,.23,.08,.28,.08,.04,.18,.03,.24-.04,0,0,.03-.03,.08-.08,.05-.05,.12-.13,.21-.24,.08-.11,.19-.24,.29-.4,.06-.08,.11-.17,.16-.27,.05-.1,.1-.2,.15-.32,.09-.23,.17-.5,.19-.8,.02-.3,0-.63-.12-.95-.12-.32-.31-.61-.54-.86-.23-.25-.5-.45-.78-.62-.28-.17-.58-.3-.87-.41-.29-.11-.59-.19-.87-.26-.29-.06-.56-.11-.83-.15-.26-.03-.51-.06-.74-.07-.46-.02-.84-.01-1.11,0-.26,.02-.41,.03-.41,.03-.11,0-.19,.1-.18,.21,0,.1,.08,.17,.18,.18Z"/><path class="cls-33" d="M266.17,133.4s.06,.03,.18,.07c.12,.05,.3,.12,.5,.21,.21,.09,.46,.22,.72,.38,.07,.04,.13,.09,.2,.13,.06,.05,.13,.1,.2,.15,.07,.05,.13,.11,.2,.17,.07,.06,.13,.12,.18,.19l.09,.1s.04,.07,.07,.11c.02,.04,.05,.07,.07,.11l.04,.12,.02,.06v.06s.03,.12,.03,.12c-.01,.08,0,.16-.02,.25-.02,.17-.13,.34-.24,.5-.07,.08-.13,.16-.21,.24-.08,.07-.16,.16-.25,.23-.36,.29-.79,.54-1.25,.76-.46,.22-.95,.42-1.45,.58-.25,.09-.5,.17-.76,.24-.25,.08-.51,.15-.76,.21-.51,.13-1.01,.26-1.5,.36-.49,.11-.97,.2-1.42,.28-.46,.08-.89,.16-1.28,.21-.8,.12-1.47,.22-1.93,.28-.47,.06-.74,.1-.74,.1h0c-.11,.02-.18,.12-.17,.22,.01,.1,.1,.17,.2,.17,0,0,.27,0,.75-.03,.24,0,.53-.02,.86-.05,.33-.02,.71-.04,1.11-.09,.41-.04,.85-.09,1.31-.15,.46-.07,.96-.13,1.46-.23,.5-.09,1.03-.2,1.55-.33,.26-.07,.53-.13,.79-.21,.26-.07,.53-.16,.79-.25,.52-.18,1.04-.39,1.54-.63,.5-.24,.97-.53,1.39-.89,.11-.09,.2-.19,.3-.29,.1-.1,.18-.22,.27-.33,.15-.24,.29-.5,.33-.8,.04-.14,.02-.29,.01-.44-.01-.07-.03-.14-.05-.21l-.03-.1-.04-.09c-.03-.06-.06-.12-.08-.18-.03-.06-.07-.11-.1-.16-.04-.05-.07-.1-.11-.15-.04-.04-.08-.09-.12-.13-.32-.33-.66-.54-.97-.7-.31-.16-.59-.27-.82-.35-.23-.09-.41-.13-.53-.17-.12-.03-.19-.05-.19-.05-.1-.03-.21,.03-.24,.13-.03,.1,.02,.2,.11,.24Z"/></g></g><path class="cls-17" d="M279.82,273.22s2.55-7.81,10.54-7.09c9.3,.84,4.85,6.09,4.85,6.09,0,0,2.06,1.89,.66,3.95,0,0,.45,.43-.61,2.32-1.06,1.89-11.63,9.14-18.86,5.35-7.24-3.78,1.21-9.71,3.43-10.62Z"/><polyline class="cls-17" points="259.76 276.95 263.46 277.63 255.74 281.61 249.15 280.47"/><g id="collar"><polygon class="cls-19" points="233.59 189.48 260.01 207.91 254.94 215.67 230.01 195.5 233.59 189.48"/><polygon class="cls-19" points="262.58 191.35 266.94 197.32 267.85 213.4 260.01 207.91 262.58 191.35"/></g><g id="_arm"><g id="hand"><path class="cls-17" d="M247.57,267.75c-2.6-1.99-6.08-5.33-10.34-5.05-4.26,.28-10.22,5.71-9.98,7.41,.24,1.7,9.1-3.31,10.16-2.59,.38,.26-1.34,1.3-2.52,3.18-2.11,3.37-4.31,8.49-2.62,9.9,2.62,2.2,13.45-2.72,14.18-1.91,.84,.92,3.34,2.64,5.58,2.07,1.8-.46,7.73-3.81,7.73-3.81,0,0-9.59-7.21-12.19-9.2Z"/></g><path class="cls-9" d="M272.73,307.64s12.84,9.83,22,10.43"/></g><polygon id="badge" class="cls-25" points="272.77 246.45 282.98 244.86 282.2 239.71 271.99 241.29 272.77 246.45"/><g id="Phonendoscope"><path class="cls-32" d="M257.23,254.93c-3.5,2.58-10.7-8.55-6.21-11.41,4.49-2.87,10.1,8.54,6.21,11.41Z"/><path class="cls-30" d="M250.66,251.53c-1.7-2.87-2.37-6.69,.17-8.32,1.04-.66,2.23-.66,3.44,0,2.49,1.37,4.77,5.51,4.77,8.69,0,1.59-.56,2.75-1.64,3.34h0c-.46,.25-.94,.37-1.43,.37-1.98,0-4.03-1.92-5.32-4.08Zm6.4,3.09c1.05-.58,1.27-1.79,1.27-2.71,0-2.91-2.14-6.83-4.4-8.07-.98-.54-1.9-.55-2.71-.02-2.14,1.37-1.47,4.77,.06,7.35,1.47,2.49,3.94,4.47,5.79,3.45h0Z"/><path class="cls-30" d="M253.41,245.28c1.51-.98,5.64,4.22,3.42,6.28-2.22,2.06-5.71-4.95-3.42-6.28h0Z"/><path class="cls-19" d="M254.96,252.06c-1.39-.62-2.63-2.67-2.77-4.56-.09-1.15,.28-2.05,1.03-2.53l.06-.03c1.32-.53,2.94,.81,3.85,2.42,1.06,1.86,1.03,3.62-.08,4.47-.37,.28-.78,.43-1.2,.43-.29,0-.59-.07-.89-.2Zm-1.39-6.47c-.64,.43-.72,1.25-.67,1.86,.12,1.6,1.22,3.45,2.35,3.96,.5,.22,.94,.18,1.36-.14,.99-.75,.56-2.38-.1-3.55-.66-1.16-1.75-2.18-2.61-2.18-.11,0-.22,.02-.33,.06Z"/><path class="cls-30" d="M254.53,247.42c.07,0,.15-.01,.22-.04,.3-.12,.45-.47,.33-.77-2.77-6.89-8.58-14.45-14.21-21.77-5.9-7.67-12-15.61-14.5-22.66-1.32-3.74-.38-7.33,.83-9.28,.81-1.3,1.86-2.12,2.87-2.24,.33-.04,.56-.33,.52-.66-.04-.33-.33-.56-.66-.52-1.39,.16-2.72,1.15-3.75,2.79-1.78,2.85-2.15,6.9-.94,10.3,2.56,7.23,8.72,15.24,14.68,22.99,5.57,7.25,11.34,14.75,14.05,21.49,.09,.23,.32,.37,.55,.37Z"/><path class="cls-32" d="M266.94,237.38c.24,0,.46-.17,.51-.42,.99-5.01,4.92-7.4,8.27-7.96,4.03-.68,7.82,.92,9.67,4.08,.15,.25,.47,.33,.72,.19,.25-.15,.33-.47,.19-.72-2.07-3.53-6.28-5.33-10.75-4.58-3.69,.62-8.03,3.26-9.12,8.79-.06,.28,.13,.56,.41,.61,.03,0,.07,0,.1,0Z"/><path class="cls-30" d="M272.22,254.82c.13,0,.26-.04,.37-.13,.25-.21,.29-.58,.09-.84-4.89-6.02-6.66-18.28-3.8-26.23,.86-2.39,2.55-5.38,5.69-6.01,2.24-.45,4.42,.51,6.48,2.85,5.33,6.06,7.97,19.64,5.34,27.41-.11,.31,.06,.65,.37,.75,.31,.11,.65-.06,.75-.37,2.79-8.25,.08-22.14-5.57-28.57-2.32-2.65-4.96-3.76-7.61-3.23-2.91,.58-5.19,2.93-6.57,6.77-2.98,8.28-1.12,21.08,3.99,27.38,.12,.14,.29,.22,.46,.22Z"/><path class="cls-32" d="M287.8,249.17c1.52,.31,.76,5.38-1.38,4.96-2.14-.43-.74-5.39,1.38-4.96Z"/><path class="cls-30" d="M286.94,253.7c.44-.3-1.07-.85-1.1-.51-.03,.34,.77,.74,1.1,.51Z"/><path class="cls-32" d="M270.69,251.98c1.14-1.06,4.82,2.52,3.23,4.01-1.59,1.49-4.81-2.53-3.23-4.01Z"/><path class="cls-30" d="M273.87,255.31c0-.53-1.32,.37-1.05,.59,.26,.22,1.05-.19,1.05-.59Z"/><path class="cls-30" d="M273.68,217.52c.05,0,.11,0,.16-.02,.32-.09,.5-.42,.41-.73-1.44-5.17-3.8-11.98-5.59-14.72-.18-.27-.55-.35-.82-.17-.27,.18-.35,.55-.17,.82,1.65,2.51,3.98,9.13,5.44,14.38,.07,.26,.31,.44,.57,.44Z"/><path class="cls-32" d="M273.52,215.86c1.36-.24,1.39,2.86,1.96,3.54,.74,.89,2.83,.88,2.51,2.43-.21,1.01-2.53-.2-3.4,.12-.87,.32-2.36,1.58-3.04,.81-.72-.81,1.36-2.47,1.52-3.06,.16-.58-1.09-3.57,.46-3.84Z"/></g><polyline class="cls-9" points="230.62 196.6 254.83 214.97 259.18 210.04"/><path class="cls-9" d="M261.52,208.97c.85,.01,6.61,4.05,6.61,4.05l-.76-14.32"/><path class="cls-9" d="M260.74,212.73s6.19,42.04,5.38,52.46"/><path class="cls-9" d="M210.82,217.25s19.02,6.41,23.67,39.06"/><path class="cls-19" d="M252.89,283.31l24.6-13.31s3.8-2.51,4.98-.65,6.61,14.8,6.13,18.81l-9.71,2.06"/><path class="cls-9" d="M198.1,270.74s8.31,37.88,29.13,43.54c20.82,5.66,61.35-26.14,61.35-26.14,0,0-3.89-20.11-7.55-19.55-3.66,.57-21.66,11.8-25.3,13"/><path class="cls-9" d="M268.03,319.61s1.46,25.42-.64,30.5"/><g id="_2"><rect class="cls-13" x="137.8" y="262.83" width="15.22" height="89.8" transform="translate(290.81 615.45) rotate(-180)"/><rect class="cls-31" x="138.67" y="327.67" width="13.48" height="15.22" transform="translate(290.81 670.55) rotate(-180)"/><rect class="cls-31" x="138.67" y="316.75" width="13.48" height="6.02" transform="translate(290.81 639.51) rotate(-180)"/></g><g id="_4"><rect class="cls-18" x="92.98" y="276.06" width="10.52" height="78.19" transform="translate(48.95 641.58) rotate(-154.1)"/><rect class="cls-22" x="92.63" y="314.14" width="9.65" height="3.26" transform="translate(47.21 642.39) rotate(-154.1)"/><rect class="cls-22" x="85.83" y="323.64" width="9.65" height="12.28" transform="translate(28.17 666.03) rotate(-154.1)"/></g><g id="_3"><rect class="cls-23" x="112.08" y="272.38" width="15.22" height="79.68" transform="translate(150.34 645.18) rotate(-164.28)"/><rect class="cls-22" x="117.53" y="289.16" width="15.22" height="7.39" transform="translate(166.28 608.66) rotate(-164.28)"/><path class="cls-22" d="M116.23,353.1c.21,0,.4-.14,.46-.35l20.07-71.32c.07-.25-.08-.52-.33-.59-.25-.07-.52,.08-.59,.33l-20.07,71.32c-.07,.25,.08,.52,.33,.59,.04,.01,.09,.02,.13,.02Z"/><path class="cls-22" d="M121.76,277.25c.21,0,.4-.14,.46-.35l1.27-4.51,9.43,2.65c.25,.07,.52-.08,.59-.33,.07-.25-.08-.52-.33-.59l-9.88-2.78c-.12-.03-.25-.02-.36,.04-.11,.06-.19,.16-.22,.29l-1.4,4.96c-.07,.25,.08,.52,.33,.59,.04,.01,.09,.02,.13,.02Z"/></g><g id="_1"><rect class="cls-31" x="159.66" y="272.51" width="11.7" height="79.68" transform="translate(382.53 591.38) rotate(170.05)"/><rect class="cls-35" x="155.06" y="281.69" width="11.7" height="8.84" transform="translate(368.85 540.09) rotate(170.05)"/><rect class="cls-35" x="157.75" y="294.92" width="11.7" height="13.05" transform="translate(376.84 570.06) rotate(170.05)"/><path class="cls-13" d="M171.45,312.82s.05,0,.08,0c.26-.05,.43-.29,.39-.55l-7.06-40.25c-.05-.26-.29-.43-.55-.39l-6.89,1.21c-.26,.05-.43,.29-.39,.55,.05,.26,.29,.43,.55,.39l6.42-1.13,6.98,39.78c.04,.23,.24,.39,.47,.39Z"/></g><rect class="cls-34" x="60.68" y="346.79" width="131.13" height="11.36"/><g><rect class="cls-19" x="99.83" y="66.61" width="79.17" height="117.38" transform="translate(264.71 -14.12) rotate(90)"/><g><path class="cls-20" d="M189.03,123.92c-.28-3.46-1.32-6.68-3.19-9.61-1.74-2.73-4.13-5.22-7.08-6.62-1.46-.69-3.04-1.12-4.66-1.15-1.95-.04-3.72,.63-5.57,1.11-1.74,.45-3.59,.49-5.02-.76-.98-.85-1.46-2.05-1.68-3.3-.57-3.23,.41-6.72,1.42-9.76,.16-.47-.26-.95-.72-.95h-5.2c-.35,0-.61,.24-.72,.55-2.12,6.09-2.33,12.88-.4,19.05,.95,3.02,2.41,5.87,3.07,8.97s.1,6.02-.87,8.88c-.91,2.69-2.28,5.31-4.17,7.45s-4.65,3.73-7.45,4.64c-1.37,.45-2.52,.09-3.83-.37-.65-.23-1.3-.46-1.98-.58-.76-.13-1.43-.03-2.19-.02-.67,.01-1.15-.33-1.69-.69-.67-.45-1.34-.8-2.16-.91-1.42-.19-2.81,.33-3.95,1.16-2.24,1.64-3.57,4.37-4.14,7.04-.17,.79-.3,1.6-.44,2.39-.09,.46-.17,.92-.26,1.38-.03,.16-.06,.32-.1,.48-.04,.19-.15,.3,0,.09-.36,.47,.13,1.13,.65,1.13,1.29,0,2.57,0,3.86,0,.34,0,.62-.23,.72-.55,.47-1.48,1.13-2.96,2.01-4.24,.56-.8,1.2-1.44,2.19-1.57,1.5-.2,3.05,.29,4.37,.97s2.39,1.72,3.52,2.73c1.03,.91,2.13,1.74,3.3,2.46,2.27,1.4,4.79,2.42,7.38,3.01,5.19,1.18,10.73,.74,15.7-1.16,5.36-2.04,9.75-5.63,13.03-10.32,4.22-6.03,6.77-13.53,6.23-20.94-.07-.96-1.57-.96-1.5,0,.49,6.62-1.59,13.25-5.11,18.81-3.05,4.81-7.26,8.68-12.58,10.82-4.89,1.97-10.37,2.51-15.52,1.3-2.59-.61-5.06-1.64-7.29-3.09-2.44-1.58-4.26-3.96-6.93-5.19-1.55-.71-3.26-1.13-4.97-.87-1.25,.2-2.13,.95-2.88,1.94-1.09,1.44-1.86,3.2-2.4,4.92l.72-.55c-1.29,0-2.57,0-3.86,0l.65,1.13c.3-.39,.3-1.23,.38-1.69,.16-.85,.31-1.7,.47-2.55,.39-2.1,1.21-4.26,2.69-5.83,.92-.97,2.21-1.84,3.61-1.77,1.47,.08,2.38,1.48,3.84,1.63,.71,.07,1.42-.13,2.13-.03s1.4,.35,2.07,.59c1.31,.46,2.6,.85,4,.55s2.78-.99,4.04-1.63,2.49-1.45,3.56-2.42c2.15-1.94,3.74-4.52,4.88-7.16s2-5.59,2.04-8.49c.04-3.21-1.19-6.23-2.32-9.17-1.32-3.42-2.25-6.86-2.37-10.54s.45-7.33,1.65-10.8l-.72,.55h5.2l-.72-.95c-1.57,4.69-3.62,13.21,2.47,15.63,1.98,.79,4.04,.23,6-.35,1.73-.52,3.44-.87,5.24-.53,3.2,.6,5.87,2.74,7.86,5.23,2.42,3.03,3.84,6.66,4.16,10.52,.08,.96,1.58,.96,1.5,0Z"/><path class="cls-21" d="M162.65,130.95c-.45,2.48-2.1,5.18-3.47,7.07-1.11,1.52-2.45,2.88-3.98,4.02-1.6,1.2-3.54,1.88-5.14,3.07-1.22,.91-1.81,2.33-.93,3.66,1.84,2.78,6.07,3.75,9.26,3.95,8.09,.49,15.02-3.05,19.77-8.72,1.13-1.34,4.17-5.34,6-10.44l-21.51-2.61Z"/><path class="cls-8" d="M168.06,138.03c-.16,1.33-1.37,2.28-2.7,2.11-1.33-.16-2.28-1.37-2.11-2.7s1.37-2.28,2.7-2.11,2.28,1.37,2.11,2.7Z"/><path class="cls-8" d="M174.89,136.81c-.1,.85-.88,1.46-1.73,1.36-.85-.1-1.46-.88-1.36-1.73,.1-.85,.88-1.46,1.73-1.36,.85,.1,1.46,.88,1.36,1.73Z"/><path class="cls-8" d="M172.68,142.17c-.1,.85-.88,1.46-1.73,1.36s-1.46-.88-1.36-1.73,.88-1.46,1.73-1.36c.85,.1,1.46,.88,1.36,1.73Z"/><path class="cls-7" d="M173.1,125.8c-.13,1.04-1.08,1.79-2.12,1.66-1.04-.13-1.79-1.08-1.66-2.12,.13-1.04,1.08-1.79,2.12-1.66,1.04,.13,1.79,1.08,1.66,2.12Z"/><path class="cls-7" d="M179.24,117.04c-.08,.67-.69,1.14-1.35,1.06-.67-.08-1.14-.69-1.06-1.35,.08-.67,.69-1.14,1.35-1.06,.67,.08,1.14,.69,1.06,1.35Z"/></g><g><line class="cls-4" x1="92.03" y1="99.69" x2="123.91" y2="99.69"/><line class="cls-5" x1="92.03" y1="106.04" x2="138.2" y2="106.04"/><line class="cls-5" x1="112.6" y1="110.71" x2="138.2" y2="110.71"/><line class="cls-5" x1="92.03" y1="110.71" x2="107.31" y2="110.71"/><line class="cls-5" x1="92.03" y1="115.37" x2="138.2" y2="115.37"/><line class="cls-5" x1="92.03" y1="120.03" x2="125.99" y2="120.03"/><line class="cls-5" x1="92.03" y1="136.06" x2="116.37" y2="136.06"/><line class="cls-5" x1="92.03" y1="141.04" x2="116.37" y2="141.04"/></g></g></g></g></svg>