<?xml version="1.0" encoding="UTF-8"?><svg id="_圖層_2" xmlns="http://www.w3.org/2000/svg" xmlns:xlink="http://www.w3.org/1999/xlink" viewBox="0 0 579.41 396.67"><defs><style>.cls-1,.cls-2{fill:none;}.cls-3{clip-path:url(#clippath);}.cls-4{fill:#005154;}.cls-5{fill:#0065a3;}.cls-6{fill:#ed8a7c;}.cls-7{fill:#f3bf94;}.cls-8{fill:#ffb029;}.cls-9,.cls-10{fill:#fff;}.cls-11{fill:#00a4ef;}.cls-12{fill:#a09e9e;}.cls-13{fill:#a3eeff;}.cls-14{fill:#bcd4e2;}.cls-15{fill:#bde3e2;}.cls-16{fill:#bde4e5;}.cls-17{fill:#ccc;}.cls-18{fill:#cbe1ef;}.cls-19{fill:#dbdbdb;}.cls-20{fill:#afafaf;}.cls-21{fill:#e1efef;}.cls-22{fill:#d5d2d2;}.cls-23{fill:#1f6583;}.cls-24{fill:#0d4876;}.cls-25{fill:#2b2b2b;}.cls-26{fill:#3b3b3b;}.cls-27{fill:#262626;}.cls-28{fill:#4b94b4;}.cls-29{fill:#494949;}.cls-30{fill:#384e54;opacity:.16;}.cls-10{fill-rule:evenodd;}.cls-2{stroke:#2b2b2b;stroke-miterlimit:10;stroke-width:.5px;}</style><clipPath id="clippath"><rect class="cls-1" x="0" width="579.41" height="396.67" rx="12" ry="12"/></clipPath></defs><g id="_圖層_1-2"><g class="cls-3"><rect class="cls-21" x="0" width="579.41" height="396.67" rx="12" ry="12"/><g><path class="cls-13" d="M350.33,274.26H-297.57c2.51,.62,5.04,1.24,7.6,1.85-11.21-2.67-21.97-5.49-32.24-8.47H348.35c1.15,2.2,1.82,4.42,1.98,6.62Z"/><path class="cls-9" d="M301.76,234.62c.31,.19,.62,.37,.92,.56-.03-.02-.06-.04-.09-.05-.27-.17-.55-.34-.83-.51Z"/><path class="cls-9" d="M14.38,307.88c3.32,.02,6.64,.03,9.96,.03-3.32,0-6.64-.01-9.96-.03Z"/><path class="cls-13" d="M-395.35,231.32c0,2.8-.39,5.2-.95,6.3v1.11c19.76,10.74,44.75,20.38,73.74,28.8l-14.93-4.59H345.17c-3.48-4.15-8.62-8.16-15.26-11.84-4.77-2.64-8.44-3.5-13.12-6.2,0,0,0,0,0,0h-42.77c-1.27-4.77,.57-12.03,6.47-12.03h18.24c-21.52-11.98-46.26-15.5-70.96-15.18-65.58-.37-281.58-7.71-442.77-6.29-19.01,1.18-62.71,3.89-131.12,8.13,0,0-.27-1.17-.82-3.49-23.11,1.93-40.31,4.53-49.36,7.98v.98c.56,1.1,.95,3.5,.95,6.3Zm596.69,11.22c0-1.8,1.47-3.27,3.27-3.27h1.63c1.8,0,3.27,1.47,3.27,3.27v6.12c0,1.8-1.47,3.27-3.27,3.27h-1.63c-1.8,0-3.27-1.47-3.27-3.27v-6.12Zm-15.17,0c0-1.8,1.47-3.27,3.27-3.27h1.63c1.8,0,3.27,1.47,3.27,3.27v6.12c0,1.8-1.47,3.27-3.27,3.27h-1.63c-1.8,0-3.27-1.47-3.27-3.27v-6.12Zm-15.17,0c0-1.8,1.47-3.27,3.27-3.27h1.63c1.8,0,3.27,1.47,3.27,3.27v6.12c0,1.8-1.47,3.27-3.27,3.27h-1.63c-1.8,0-3.27-1.47-3.27-3.27v-6.12Zm-15.17,0c0-1.8,1.47-3.27,3.27-3.27h1.63c1.8,0,3.27,1.47,3.27,3.27v6.12c0,1.8-1.47,3.27-3.27,3.27h-1.63c-1.8,0-3.27-1.47-3.27-3.27v-6.12Zm-15.17,0c0-1.8,1.47-3.27,3.27-3.27h1.63c1.8,0,3.27,1.47,3.27,3.27v6.12c0,1.8-1.47,3.27-3.27,3.27h-1.63c-1.8,0-3.27-1.47-3.27-3.27v-6.12Zm-15.17,0c0-1.8,1.47-3.27,3.27-3.27h1.63c1.8,0,3.27,1.47,3.27,3.27v6.12c0,1.8-1.47,3.27-3.27,3.27h-1.63c-1.8,0-3.27-1.47-3.27-3.27v-6.12Zm-15.17,0c0-1.8,1.47-3.27,3.27-3.27h1.63c1.8,0,3.27,1.47,3.27,3.27v6.12c0,1.8-1.47,3.27-3.27,3.27h-1.63c-1.8,0-3.27-1.47-3.27-3.27v-6.12Zm-15.17,0c0-1.8,1.47-3.27,3.27-3.27h1.63c1.8,0,3.27,1.47,3.27,3.27v6.12c0,1.8-1.47,3.27-3.27,3.27h-1.63c-1.8,0-3.27-1.47-3.27-3.27v-6.12Zm-15.17,0c0-1.8,1.47-3.27,3.27-3.27h1.63c1.8,0,3.27,1.47,3.27,3.27v6.12c0,1.8-1.47,3.27-3.27,3.27h-1.63c-1.8,0-3.27-1.47-3.27-3.27v-6.12Zm-15.17,0c0-1.8,1.47-3.27,3.27-3.27h1.63c1.8,0,3.27,1.47,3.27,3.27v6.12c0,1.8-1.47,3.27-3.27,3.27h-1.63c-1.8,0-3.27-1.47-3.27-3.27v-6.12Zm-15.17,0c0-1.8,1.47-3.27,3.27-3.27h1.63c1.8,0,3.27,1.47,3.27,3.27v6.12c0,1.8-1.47,3.27-3.27,3.27h-1.63c-1.8,0-3.27-1.47-3.27-3.27v-6.12Zm-15.17,0c0-1.8,1.47-3.27,3.27-3.27h1.63c1.8,0,3.27,1.47,3.27,3.27v6.12c0,1.8-1.47,3.27-3.27,3.27h-1.63c-1.8,0-3.27-1.47-3.27-3.27v-6.12Zm-15.17,0c0-1.8,1.47-3.27,3.27-3.27h1.63c1.8,0,3.27,1.47,3.27,3.27v6.12c0,1.8-1.47,3.27-3.27,3.27h-1.63c-1.8,0-3.27-1.47-3.27-3.27v-6.12Zm-15.17,0c0-1.8,1.47-3.27,3.27-3.27h1.63c1.8,0,3.27,1.47,3.27,3.27v6.12c0,1.8-1.47,3.27-3.27,3.27h-1.63c-1.8,0-3.27-1.47-3.27-3.27v-6.12Zm-15.17,0c0-1.8,1.47-3.27,3.27-3.27h1.63c1.8,0,3.27,1.47,3.27,3.27v6.12c0,1.8-1.47,3.27-3.27,3.27h-1.63c-1.8,0-3.27-1.47-3.27-3.27v-6.12Zm-15.17,0c0-1.8,1.47-3.27,3.27-3.27h1.63c1.8,0,3.27,1.47,3.27,3.27v6.12c0,1.8-1.47,3.27-3.27,3.27h-1.63c-1.8,0-3.27-1.47-3.27-3.27v-6.12Zm-15.17,0c0-1.8,1.47-3.27,3.27-3.27h1.63c1.8,0,3.27,1.47,3.27,3.27v6.12c0,1.8-1.47,3.27-3.27,3.27h-1.63c-1.8,0-3.27-1.47-3.27-3.27v-6.12Zm-15.17,0c0-1.8,1.47-3.27,3.27-3.27h1.63c1.8,0,3.27,1.47,3.27,3.27v6.12c0,1.8-1.47,3.27-3.27,3.27h-1.63c-1.8,0-3.27-1.47-3.27-3.27v-6.12Zm-15.17,0c0-1.8,1.47-3.27,3.27-3.27h1.63c1.8,0,3.27,1.47,3.27,3.27v6.12c0,1.8-1.47,3.27-3.27,3.27h-1.63c-1.8,0-3.27-1.47-3.27-3.27v-6.12Zm-15.17,0c0-1.8,1.47-3.27,3.27-3.27h1.63c1.8,0,3.27,1.47,3.27,3.27v6.12c0,1.8-1.47,3.27-3.27,3.27h-1.63c-1.8,0-3.27-1.47-3.27-3.27v-6.12Zm-15.17,0c0-1.8,1.47-3.27,3.27-3.27h1.63c1.8,0,3.27,1.47,3.27,3.27v6.12c0,1.8-1.47,3.27-3.27,3.27h-1.63c-1.8,0-3.27-1.47-3.27-3.27v-6.12Zm-15.17,0c0-1.8,1.47-3.27,3.27-3.27h1.63c1.8,0,3.27,1.47,3.27,3.27v6.12c0,1.8-1.47,3.27-3.27,3.27h-1.63c-1.8,0-3.27-1.47-3.27-3.27v-6.12Zm-15.17,0c0-1.8,1.47-3.27,3.27-3.27h1.63c1.8,0,3.27,1.47,3.27,3.27v6.12c0,1.8-1.47,3.27-3.27,3.27h-1.63c-1.8,0-3.27-1.47-3.27-3.27v-6.12Zm-15.17,0c0-1.8,1.47-3.27,3.27-3.27h1.63c1.8,0,3.27,1.47,3.27,3.27v6.12c0,1.8-1.47,3.27-3.27,3.27h-1.63c-1.8,0-3.27-1.47-3.27-3.27v-6.12Zm-15.17,0c0-1.8,1.47-3.27,3.27-3.27h1.63c1.8,0,3.27,1.47,3.27,3.27v6.12c0,1.8-1.47,3.27-3.27,3.27h-1.63c-1.8,0-3.27-1.47-3.27-3.27v-6.12Zm-15.17,0c0-1.8,1.47-3.27,3.27-3.27h1.63c1.8,0,3.27,1.47,3.27,3.27v6.12c0,1.8-1.47,3.27-3.27,3.27h-1.63c-1.8,0-3.27-1.47-3.27-3.27v-6.12Zm-58.96,0c0-1.8,1.47-3.27,3.27-3.27h1.63c1.8,0,3.27,1.47,3.27,3.27v6.12c0,1.8-1.47,3.27-3.27,3.27h-1.63c-1.8,0-3.27-1.47-3.27-3.27v-6.12Zm-15.17,0c0-1.8,1.47-3.27,3.27-3.27h1.63c1.8,0,3.27,1.47,3.27,3.27v6.12c0,1.8-1.47,3.27-3.27,3.27h-1.63c-1.8,0-3.27-1.47-3.27-3.27v-6.12Zm-15.17,0c0-1.8,1.47-3.27,3.27-3.27h1.63c1.8,0,3.27,1.47,3.27,3.27v6.12c0,1.8-1.47,3.27-3.27,3.27h-1.63c-1.8,0-3.27-1.47-3.27-3.27v-6.12Zm-15.17,0c0-1.8,1.47-3.27,3.27-3.27h1.63c1.8,0,3.27,1.47,3.27,3.27v6.12c0,1.8-1.47,3.27-3.27,3.27h-1.63c-1.8,0-3.27-1.47-3.27-3.27v-6.12Zm-15.17,0c0-1.8,1.47-3.27,3.27-3.27h1.63c1.8,0,3.27,1.47,3.27,3.27v6.12c0,1.8-1.47,3.27-3.27,3.27h-1.63c-1.8,0-3.27-1.47-3.27-3.27v-6.12Z"/><path class="cls-26" d="M298.73,232.88h.06c.49,.27,.94,.56,1.42,.84h-.02c-.49-.28-.98-.57-1.47-.84Z"/><path class="cls-26" d="M315.27,243.8c.51,.37,1,.73,1.51,1.1-.58-.33-1.17-.7-1.78-1.1h.27Z"/><path class="cls-26" d="M305.92,237.29c-.93-.63-1.91-1.26-2.94-1.91-.1-.06-.2-.13-.3-.19,4.33,2.66,8.35,5.53,12.48,8.55-2.79-1.91-5.13-3.61-7.6-5.32-.54-.38-1.09-.75-1.64-1.12Z"/><path class="cls-26" d="M302.59,235.13s.06,.04,.09,.05c.1,.06,.2,.13,.3,.19-.13-.08-.26-.16-.39-.25Z"/><path class="cls-28" d="M274.02,244.91c-1.27-4.77,.57-12.03,6.47-12.03h18.24c.49,.27,.98,.56,1.47,.84l-18.69,.26c-5.73,0-7.52,5.92-6.29,9.82h39.77c.61,.4,1.21,.77,1.78,1.1,0,0,0,0,0,0h-42.77Z"/><path class="cls-26" d="M307.56,238.41c-.54-.37-1.08-.74-1.64-1.12,.55,.37,1.1,.74,1.64,1.12Z"/><path class="cls-26" d="M268.07,307.55v5.36c0,1.49-1.22,2.7-2.7,2.7h-12.67s-2.06,0-2.06,0h-12.67c-1.49,0-2.7-1.22-2.7-2.7v-4.99h22.88c3.02-.12,6.36-.23,9.92-.36Z"/><path class="cls-20" d="M253.6,316.51v5.8c-.62-.13-1.27-.21-1.93-.21s-1.3,.08-1.93,.21v-5.8c0-.5,.41-.9,.9-.9h2.06c.5,0,.9,.4,.9,.9Z"/><path class="cls-26" d="M247.62,331.26c0,2.23,1.82,4.05,4.05,4.05s4.05-1.82,4.05-4.05c0-1.53-.87-2.85-2.12-3.54v-5.41c4.12,.89,7.23,4.57,7.23,8.95,0,5.05-4.12,9.17-9.17,9.17s-9.17-4.12-9.17-9.17c0-4.39,3.11-8.06,7.24-8.95v5.41c-1.26,.69-2.12,2.01-2.12,3.54Z"/><path class="cls-26" d="M253.6,322.31v5.41c-.58-.32-1.23-.51-1.93-.51s-1.35,.2-1.93,.51v-5.41c.62-.13,1.26-.21,1.93-.21s1.31,.08,1.93,.21Z"/><path class="cls-29" d="M255.72,331.26c0,2.23-1.82,4.05-4.05,4.05s-4.05-1.82-4.05-4.05c0-1.53,.87-2.85,2.12-3.54v5.31c0,.49,.41,.9,.9,.9h2.06c.5,0,.9-.41,.9-.9v-5.31c1.26,.69,2.12,2.01,2.12,3.54Z"/><path class="cls-29" d="M252.7,333.94h-2.06c-.5,0-.9-.41-.9-.9v-5.31c.58-.32,1.23-.51,1.93-.51s1.35,.2,1.93,.51v5.31c0,.49-.41,.9-.9,.9Z"/><path class="cls-26" d="M-10.31,307.57c.57,.01,1.14,.02,1.71,.04,3.29,.06,6.59,.11,9.89,.16,.85,.01,1.69,.02,2.54,.03,2.56,.03,5.12,.05,7.68,.07,.26,0,.52,0,.78,0v5.04c0,1.49-1.22,2.7-2.7,2.7h-1.88s-2.06,0-2.06,0H-13.87s-2.06,0-2.06,0h-1.88c-1.49,0-2.7-1.22-2.7-2.7v-4.56s5.71-.87,5.71-.87c1.5,.03,2.99,.06,4.49,.09Z"/><path class="cls-26" d="M-8.6,307.6c3.29,.06,6.59,.11,9.89,.16-3.3-.04-6.6-.09-9.89-.16Z"/><path class="cls-26" d="M3.82,307.79c2.56,.03,5.12,.05,7.68,.07-2.56-.02-5.12-.04-7.68-.07Z"/><path class="cls-20" d="M8.6,316.51v5.8c-.62-.13-1.27-.21-1.93-.21s-1.3,.08-1.93,.21v-5.8c0-.5,.41-.9,.9-.9h2.06c.5,0,.9,.4,.9,.9Z"/><path class="cls-26" d="M2.62,331.26c0,2.23,1.82,4.05,4.05,4.05s4.05-1.82,4.05-4.05c0-1.53-.86-2.85-2.12-3.54v-5.41c4.12,.89,7.23,4.57,7.23,8.95,0,5.05-4.12,9.17-9.17,9.17-5.05,0-9.17-4.12-9.17-9.17,0-4.39,3.11-8.06,7.24-8.95v5.41c-1.26,.69-2.12,2.01-2.12,3.54Z"/><path class="cls-26" d="M8.6,322.31v5.41c-.58-.32-1.23-.51-1.93-.51s-1.35,.2-1.93,.51v-5.41c.62-.13,1.27-.21,1.93-.21s1.31,.08,1.93,.21Z"/><path class="cls-29" d="M10.73,331.26c0,2.23-1.82,4.05-4.05,4.05s-4.05-1.82-4.05-4.05c0-1.53,.87-2.85,2.12-3.54v5.31c0,.49,.41,.9,.9,.9h2.06c.5,0,.9-.41,.9-.9v-5.31c1.26,.69,2.12,2.01,2.12,3.54Z"/><path class="cls-29" d="M7.7,333.94h-2.06c-.5,0-.9-.41-.9-.9v-5.31c.58-.32,1.23-.51,1.93-.51s1.35,.2,1.93,.51v5.31c0,.49-.41,.9-.9,.9Z"/><path class="cls-26" d="M62.74,310.12c5.56,1.48,10.93,2.76,16.17,3.87-.42,.95-1.37,1.62-2.47,1.62h-1.88s-2.06,0-2.06,0h-19.51s-2.06,0-2.06,0h-1.88c-1.49,0-2.7-1.22-2.7-2.7v-4.99h16.4v2.21Z"/><path class="cls-20" d="M75.45,316.51v5.8c-.62-.13-1.27-.21-1.93-.21s-1.3,.08-1.93,.21v-5.8c0-.5,.41-.9,.9-.9h2.06c.5,0,.9,.4,.9,.9Z"/><path class="cls-26" d="M69.47,331.26c0,2.23,1.82,4.05,4.05,4.05s4.05-1.82,4.05-4.05c0-1.53-.86-2.85-2.12-3.54v-5.41c4.13,.89,7.24,4.57,7.24,8.95,0,5.05-4.12,9.17-9.17,9.17-5.05,0-9.17-4.12-9.17-9.17,0-4.39,3.11-8.06,7.24-8.95v5.41c-1.26,.69-2.12,2.01-2.12,3.54Z"/><path class="cls-26" d="M75.45,322.31v5.41c-.58-.32-1.23-.51-1.93-.51s-1.35,.2-1.93,.51v-5.41c.62-.13,1.27-.21,1.93-.21s1.31,.08,1.93,.21Z"/><path class="cls-29" d="M77.57,331.26c0,2.23-1.82,4.05-4.05,4.05s-4.05-1.82-4.05-4.05c0-1.53,.87-2.85,2.12-3.54v5.31c0,.49,.41,.9,.9,.9h2.06c.5,0,.9-.41,.9-.9v-5.31c1.26,.69,2.12,2.01,2.12,3.54Z"/><path class="cls-29" d="M74.55,333.94h-2.06c-.5,0-.9-.41-.9-.9v-5.31c.58-.32,1.23-.51,1.93-.51s1.35,.2,1.93,.51v5.31c0,.49-.41,.9-.9,.9Z"/><path class="cls-20" d="M53.88,316.51v5.8c-.62-.13-1.27-.21-1.93-.21s-1.31,.08-1.93,.21v-5.8c0-.5,.41-.9,.9-.9h2.06c.5,0,.9,.4,.9,.9Z"/><path class="cls-26" d="M47.9,331.26c0,2.23,1.82,4.05,4.05,4.05,2.23,0,4.05-1.82,4.05-4.05,0-1.53-.86-2.85-2.12-3.54v-5.41c4.12,.89,7.24,4.57,7.24,8.95,0,5.05-4.12,9.17-9.17,9.17-5.05,0-9.17-4.12-9.17-9.17,0-4.39,3.11-8.06,7.24-8.95v5.41c-1.26,.69-2.12,2.01-2.12,3.54Z"/><path class="cls-26" d="M53.88,322.31v5.41c-.58-.32-1.23-.51-1.93-.51s-1.35,.2-1.93,.51v-5.41c.62-.13,1.27-.21,1.93-.21s1.31,.08,1.93,.21Z"/><path class="cls-29" d="M56,331.26c0,2.23-1.82,4.05-4.05,4.05-2.23,0-4.05-1.82-4.05-4.05,0-1.53,.87-2.85,2.12-3.54v5.31c0,.49,.41,.9,.9,.9h2.06c.5,0,.9-.41,.9-.9v-5.31c1.26,.69,2.12,2.01,2.12,3.54Z"/><path class="cls-29" d="M52.98,333.94h-2.06c-.5,0-.9-.41-.9-.9v-5.31c.58-.32,1.23-.51,1.93-.51s1.35,.2,1.93,.51v5.31c0,.49-.41,.9-.9,.9Z"/><path class="cls-19" d="M14.38,307.88c-.7,0-1.39,0-2.09-.01h0c.7,0,1.39,0,2.09,.01Z"/><polygon class="cls-19" points="121.81 281.92 154.35 276.1 121.81 281.92 121.81 281.92"/><rect class="cls-19" x="-2.34" y="298.26" width="65.59" height="0" transform="translate(-52.02 10.02) rotate(-10.14)"/><path class="cls-28" d="M350.33,274.26s0,.09,.01,.13l-.32,4.15c-.04,.18-.09,.37-.14,.55-.08,.3-.16,.61-.26,.91-.07,.21-.16,.42-.24,.63-.12,.3-.23,.61-.37,.91-.09,.2-.2,.39-.3,.59-.54,1.07-1.21,2.12-2.02,3.16-.19,.24-.36,.48-.56,.72-.21,.25-.44,.49-.67,.74-.23,.25-.45,.5-.69,.74-.24,.24-.49,.47-.74,.71-.26,.25-.53,.5-.81,.75-.26,.23-.54,.46-.82,.69-.3,.25-.61,.5-.93,.74-.29,.22-.59,.44-.9,.67-.34,.25-.69,.5-1.05,.74-.32,.22-.64,.43-.97,.64-.38,.25-.78,.49-1.18,.73-.34,.21-.69,.41-1.05,.62-.42,.24-.86,.49-1.31,.73-.37,.2-.74,.4-1.12,.59-.47,.24-.97,.48-1.47,.72-.39,.19-.77,.37-1.17,.56-.54,.25-1.1,.49-1.67,.74-.39,.17-.77,.34-1.17,.51-.64,.27-1.31,.53-1.99,.79-.36,.14-.7,.28-1.06,.42-1.05,.39-2.13,.78-3.25,1.16-16.84,5.69-37.78,6.95-54.06,7.57v-.82c0-1.49-1.22-2.7-2.7-2.7h-27.4c-1.49,0-2.7,1.22-2.7,2.7v1.18h-84.52c.22-2.24,.35-4.81,.35-7.56,0-8.53-1.22-15.49-2.72-15.49-.07,0-.13,.03-.2,.06-2.42-.59-4.92-1.09-7.49-1.51l13.66-7.31H-24.13s-93.44,26.01-93.44,26.01c-.04,0-.07,0-.11,0-3.21-.27-6.41-.55-9.6-.83-.59-.05-1.17-.11-1.76-.16-2.64-.24-5.28-.49-7.91-.74-.74-.07-1.47-.14-2.21-.21-6.32-.62-12.59-1.27-18.81-1.96-.66-.07-1.32-.15-1.99-.22-2.59-.29-5.16-.59-7.73-.89-.59-.07-1.19-.14-1.78-.21-3.13-.37-6.24-.75-9.34-1.14-.13-.02-.25-.03-.38-.05-2.9-.37-5.79-.74-8.67-1.13-.66-.09-1.31-.18-1.96-.26-2.7-.36-5.39-.73-8.06-1.11-.32-.04-.64-.09-.95-.13-3.05-.43-6.08-.88-9.1-1.33-.39-.06-.78-.12-1.17-.18-2.6-.39-5.18-.79-7.76-1.2-.58-.09-1.15-.18-1.73-.27-5.88-.93-11.68-1.9-17.41-2.91-.5-.09-1-.18-1.5-.27-2.47-.44-4.92-.88-7.35-1.33-.45-.08-.91-.17-1.36-.25-5.65-1.05-11.22-2.13-16.71-3.25-.51-.1-1.02-.21-1.53-.31-2.47-.51-4.92-1.02-7.35-1.54-.25-.05-.51-.11-.77-.16-2.73-.59-5.44-1.19-8.13-1.79-.29-.06-.57-.13-.85-.19-2.35-.53-4.67-1.07-6.98-1.62-.49-.12-.98-.23-1.47-.35-2.55-.61-5.09-1.22-7.6-1.85H350.33Z"/><path class="cls-28" d="M12.29,306.73c0-1.49-1.22-2.7-2.7-2.7h-1.89s50.4-7.72,50.4-7.72c-.49,.67-.78,1.48-.78,2.36v3.48c0,.68,.19,1.31,.48,1.87h-8.77c-1.49,0-2.7,1.22-2.7,2.7v1.18H24.34c-3.32,0-6.64-.01-9.96-.03-.7,0-1.39,0-2.09-.01v-1.13Z"/><path class="cls-19" d="M237.97,304.03h27.4c1.49,0,2.7,1.22,2.7,2.7v.82c-3.56,.14-6.9,.24-9.92,.36h-22.88v-1.18c0-1.49,1.22-2.7,2.7-2.7Z"/><path class="cls-19" d="M12.29,307.87h0c-.26,0-.52,0-.78,0,.26,0,.52,0,.78,0Z"/><path class="cls-19" d="M1.28,307.76c.85,.01,1.69,.02,2.54,.03-.85,0-1.69-.02-2.54-.03Z"/><path class="cls-17" d="M7.7,304.03h1.89c1.49,0,2.7,1.22,2.7,2.7v1.13c-.26,0-.52,0-.78,0-2.56-.02-5.12-.04-7.68-.07-.85,0-1.69-.02-2.54-.03-3.3-.04-6.6-.09-9.89-.16-.57-.01-1.14-.02-1.71-.04-1.49-.03-2.97-.07-4.46-.1l22.47-3.44Z"/><path class="cls-17" d="M49.04,304.03h8.77c.68,1.28,2.01,2.17,3.56,2.17,.48,0,.94-.1,1.37-.26v1.97h-16.4v-1.18c0-1.49,1.22-2.7,2.7-2.7Z"/><path class="cls-14" d="M64.61,307.27h-6.64c-.4-.78-.65-1.65-.65-2.59v-4.82c-.13-1.77,.13-2.62,.78-3.54l6.42-.98,.09,11.94Z"/><path class="cls-14" d="M64.61,309.92c-.58,.22-1.2,.36-1.85,.36-2.08,0-3.87-1.23-4.79-3h6.64v2.65Z"/><path class="cls-12" d="M79.14,307.91h66.87c.47,4.72,1.36,7.93,2.37,7.93,.04,0,.09-.03,.13-.04v.04c-18.66,4.66-41.87,4.03-69.61-1.85,.15-.33,.23-.7,.23-1.09v-4.99Z"/><path class="cls-12" d="M62.74,307.91h16.4v4.99c0,.39-.09,.75-.23,1.09-5.23-1.11-10.61-2.38-16.17-3.87v-2.21Z"/><rect class="cls-12" x="92.27" y="257.2" height="60.01"/><path class="cls-18" d="M145.66,300.35c0,2.74,.13,5.32,.35,7.56H79.14v-1.18c0-1.49-1.22-2.7-2.7-2.7h-11.52c.3-.56,.48-1.19,.48-1.87v-3.48c0-1.32-.65-2.49-1.64-3.23l76.24-11.67,.69-.37c2.57,.42,5.07,.92,7.49,1.51-1.41,.59-2.52,7.28-2.52,15.43Z"/><path class="cls-12" d="M64.92,304.03h11.52c1.49,0,2.7,1.22,2.7,2.7v1.18h-16.4v-1.97c.94-.35,1.72-1.03,2.18-1.91Z"/><path class="cls-16" d="M62.74,295.61l1.03-.16c.99,.74,1.64,1.91,1.64,3.23v3.48c0,.68-.19,1.31-.48,1.87h-2.18v-8.42Z"/><path class="cls-12" d="M64.92,304.03c-.47,.88-1.24,1.56-2.18,1.91v-1.91h2.18Z"/><path class="cls-13" d="M62.74,292.49L-1.83,304.03h-15.98c-1.49,0-2.7,1.22-2.7,2.7v.6c-.32,0-.65-.02-.97-.02-2.73-.07-5.46-.15-8.18-.23-.6-.02-1.21-.03-1.81-.05-3.28-.1-6.56-.22-9.83-.34-.78-.03-1.56-.06-2.34-.09-2.59-.1-5.17-.21-7.75-.32-.9-.04-1.8-.08-2.7-.12-6.55-.29-13.08-.62-19.58-.99-.84-.05-1.68-.1-2.53-.15-2.59-.15-5.18-.31-7.76-.47-.74-.05-1.48-.09-2.22-.14-3.25-.21-6.49-.42-9.72-.65-.39-.03-.78-.06-1.18-.08-2.84-.2-5.68-.41-8.51-.62-.82-.06-1.65-.13-2.47-.19-2.75-.21-5.49-.43-8.22-.66-.44-.04-.87-.07-1.31-.11l93.44-26.01H154.35s-32.54,5.82-32.54,5.82c-18.49,3.63-59.07,10.56-59.07,10.56Z"/><path class="cls-22" d="M154.35,276.1l-13.66,7.31c-5.89-.96-12.19-1.45-18.88-1.49l32.54-5.82Z"/><path class="cls-22" d="M62.74,292.49v2.41c-.43-.16-.89-.26-1.37-.26-1.34,0-2.52,.67-3.26,1.68l-50.4,7.72H-1.83s64.57-11.55,64.57-11.55Z"/><path class="cls-22" d="M-1.83,304.03H7.7s-22.47,3.44-22.47,3.44c-1.29-.03-2.57-.05-3.86-.08-.57-.01-1.15-.03-1.72-.04l18.52-3.31Z"/><path class="cls-22" d="M61.36,294.64c.48,0,.94,.1,1.37,.26v.71s-4.63,.71-4.63,.71c.74-1.01,1.92-1.68,3.26-1.68Z"/><path class="cls-22" d="M63.76,295.45c-.31-.23-.65-.42-1.03-.55v-2.41s59.07-10.56,59.07-10.56c6.69,.03,12.99,.53,18.88,1.49l-.69,.37-76.24,11.67Z"/><path class="cls-22" d="M62.74,294.9c.37,.14,.71,.32,1.03,.55l-1.03,.16v-.71Z"/><path class="cls-26" d="M201.34,242.55v6.12c0,1.8,1.47,3.27,3.27,3.27h1.63c1.8,0,3.27-1.47,3.27-3.27v-6.12c0-1.8-1.47-3.27-3.27-3.27h-1.63c-1.8,0-3.27,1.47-3.27,3.27Zm1.23,0c0-1.12,.92-2.04,2.04-2.04h1.63c1.12,0,2.04,.92,2.04,2.04v6.12c0,1.12-.92,2.04-2.04,2.04h-1.63c-1.12,0-2.04-.92-2.04-2.04v-6.12Z"/><path class="cls-28" d="M204.26,239.11h2.33c1.6,0,2.92,1.18,2.92,2.63v7.89c0,1.44-1.31,2.63-2.92,2.63h-2.33c-1.6,0-2.92-1.18-2.92-2.63v-7.89c0-1.44,1.31-2.63,2.92-2.63Z"/><path class="cls-26" d="M186.17,242.55v6.12c0,1.8,1.47,3.27,3.27,3.27h1.63c1.8,0,3.27-1.47,3.27-3.27v-6.12c0-1.8-1.47-3.27-3.27-3.27h-1.63c-1.8,0-3.27,1.47-3.27,3.27Zm1.23,0c0-1.12,.92-2.04,2.04-2.04h1.63c1.12,0,2.04,.92,2.04,2.04v6.12c0,1.12-.92,2.04-2.04,2.04h-1.63c-1.12,0-2.04-.92-2.04-2.04v-6.12Z"/><path class="cls-23" d="M189.44,240.51h1.63c1.13,0,2.04,.91,2.04,2.04v6.12c0,1.13-.91,2.04-2.04,2.04h-1.64c-1.13,0-2.04-.91-2.04-2.04v-6.12c0-1.13,.91-2.04,2.04-2.04Z"/><path class="cls-26" d="M171,242.55v6.12c0,1.8,1.47,3.27,3.27,3.27h1.63c1.8,0,3.27-1.47,3.27-3.27v-6.12c0-1.8-1.47-3.27-3.27-3.27h-1.63c-1.8,0-3.27,1.47-3.27,3.27Zm1.23,0c0-1.12,.92-2.04,2.04-2.04h1.63c1.12,0,2.04,.92,2.04,2.04v6.12c0,1.12-.92,2.04-2.04,2.04h-1.63c-1.12,0-2.04-.92-2.04-2.04v-6.12Z"/><rect class="cls-23" x="172.23" y="240.51" width="5.71" height="10.2" rx="2.04" ry="2.04"/><path class="cls-26" d="M155.83,242.55v6.12c0,1.8,1.47,3.27,3.27,3.27h1.63c1.8,0,3.27-1.47,3.27-3.27v-6.12c0-1.8-1.47-3.27-3.27-3.27h-1.63c-1.8,0-3.27,1.47-3.27,3.27Zm1.23,0c0-1.12,.92-2.04,2.04-2.04h1.63c1.12,0,2.04,.92,2.04,2.04v6.12c0,1.12-.92,2.04-2.04,2.04h-1.63c-1.12,0-2.04-.92-2.04-2.04v-6.12Z"/><rect class="cls-23" x="157.06" y="240.51" width="5.71" height="10.2" rx="2.04" ry="2.04"/><path class="cls-26" d="M140.66,242.55v6.12c0,1.8,1.47,3.27,3.27,3.27h1.63c1.8,0,3.27-1.47,3.27-3.27v-6.12c0-1.8-1.47-3.27-3.27-3.27h-1.63c-1.8,0-3.27,1.47-3.27,3.27Zm1.23,0c0-1.12,.92-2.04,2.04-2.04h1.63c1.12,0,2.04,.92,2.04,2.04v6.12c0,1.12-.92,2.04-2.04,2.04h-1.63c-1.12,0-2.04-.92-2.04-2.04v-6.12Z"/><path class="cls-23" d="M143.93,240.51h1.63c1.13,0,2.04,.91,2.04,2.04v6.13c0,1.13-.91,2.04-2.04,2.04h-1.63c-1.13,0-2.04-.91-2.04-2.04v-6.12c0-1.13,.91-2.04,2.04-2.04Z"/><path class="cls-26" d="M125.49,242.55v6.12c0,1.8,1.47,3.27,3.27,3.27h1.63c1.8,0,3.27-1.47,3.27-3.27v-6.12c0-1.8-1.47-3.27-3.27-3.27h-1.63c-1.8,0-3.27,1.47-3.27,3.27Zm1.23,0c0-1.12,.92-2.04,2.04-2.04h1.63c1.12,0,2.04,.92,2.04,2.04v6.12c0,1.12-.92,2.04-2.04,2.04h-1.63c-1.12,0-2.04-.92-2.04-2.04v-6.12Z"/><path class="cls-23" d="M128.75,240.51h1.63c1.13,0,2.04,.91,2.04,2.04v6.13c0,1.13-.91,2.04-2.04,2.04h-1.63c-1.13,0-2.04-.91-2.04-2.04v-6.13c0-1.13,.91-2.04,2.04-2.04Z"/><path class="cls-26" d="M110.32,242.55v6.12c0,1.8,1.47,3.27,3.27,3.27h1.63c1.8,0,3.27-1.47,3.27-3.27v-6.12c0-1.8-1.47-3.27-3.27-3.27h-1.63c-1.8,0-3.27,1.47-3.27,3.27Zm1.23,0c0-1.12,.92-2.04,2.04-2.04h1.63c1.12,0,2.04,.92,2.04,2.04v6.12c0,1.12-.92,2.04-2.04,2.04h-1.63c-1.12,0-2.04-.92-2.04-2.04v-6.12Z"/><path class="cls-23" d="M113.58,240.51h1.63c1.13,0,2.04,.91,2.04,2.04v6.12c0,1.13-.91,2.04-2.04,2.04h-1.63c-1.13,0-2.04-.91-2.04-2.04v-6.12c0-1.13,.91-2.04,2.04-2.04Z"/><path class="cls-26" d="M95.15,242.55v6.12c0,1.8,1.47,3.27,3.27,3.27h1.63c1.8,0,3.27-1.47,3.27-3.27v-6.12c0-1.8-1.47-3.27-3.27-3.27h-1.63c-1.8,0-3.27,1.47-3.27,3.27Zm1.23,0c0-1.12,.92-2.04,2.04-2.04h1.63c1.12,0,2.04,.92,2.04,2.04v6.12c0,1.12-.92,2.04-2.04,2.04h-1.63c-1.12,0-2.04-.92-2.04-2.04v-6.12Z"/><path class="cls-23" d="M98.41,240.51h1.63c1.13,0,2.04,.91,2.04,2.04v6.12c0,1.13-.91,2.04-2.04,2.04h-1.63c-1.13,0-2.04-.91-2.04-2.04v-6.12c0-1.13,.91-2.04,2.04-2.04Z"/><path class="cls-26" d="M79.98,242.55v6.12c0,1.8,1.47,3.27,3.27,3.27h1.63c1.8,0,3.27-1.47,3.27-3.27v-6.12c0-1.8-1.47-3.27-3.27-3.27h-1.63c-1.8,0-3.27,1.47-3.27,3.27Zm1.23,0c0-1.12,.92-2.04,2.04-2.04h1.63c1.12,0,2.04,.92,2.04,2.04v6.12c0,1.12-.92,2.04-2.04,2.04h-1.63c-1.12,0-2.04-.92-2.04-2.04v-6.12Z"/><rect class="cls-23" x="81.2" y="240.51" width="5.71" height="10.2" rx="2.04" ry="2.04"/><path class="cls-26" d="M64.8,242.55v6.12c0,1.8,1.47,3.27,3.27,3.27h1.63c1.8,0,3.27-1.47,3.27-3.27v-6.12c0-1.8-1.47-3.27-3.27-3.27h-1.63c-1.8,0-3.27,1.47-3.27,3.27Zm1.23,0c0-1.12,.92-2.04,2.04-2.04h1.63c1.12,0,2.04,.92,2.04,2.04v6.12c0,1.12-.92,2.04-2.04,2.04h-1.63c-1.12,0-2.04-.92-2.04-2.04v-6.12Z"/><path class="cls-23" d="M68.07,240.51h1.63c1.13,0,2.04,.91,2.04,2.04v6.13c0,1.13-.91,2.04-2.04,2.04h-1.63c-1.13,0-2.04-.91-2.04-2.04v-6.12c0-1.13,.91-2.04,2.04-2.04Z"/><path class="cls-26" d="M49.63,242.55v6.12c0,1.8,1.47,3.27,3.27,3.27h1.63c1.8,0,3.27-1.47,3.27-3.27v-6.12c0-1.8-1.47-3.27-3.27-3.27h-1.63c-1.8,0-3.27,1.47-3.27,3.27Zm1.23,0c0-1.12,.92-2.04,2.04-2.04h1.63c1.12,0,2.04,.92,2.04,2.04v6.12c0,1.12-.92,2.04-2.04,2.04h-1.63c-1.12,0-2.04-.92-2.04-2.04v-6.12Z"/><path class="cls-23" d="M52.9,240.51h1.63c1.13,0,2.04,.91,2.04,2.04v6.13c0,1.13-.91,2.04-2.04,2.04h-1.63c-1.13,0-2.04-.91-2.04-2.04v-6.12c0-1.13,.91-2.04,2.04-2.04Z"/><path class="cls-26" d="M34.46,242.55v6.12c0,1.8,1.47,3.27,3.27,3.27h1.63c1.8,0,3.27-1.47,3.27-3.27v-6.12c0-1.8-1.47-3.27-3.27-3.27h-1.63c-1.8,0-3.27,1.47-3.27,3.27Zm1.23,0c0-1.12,.92-2.04,2.04-2.04h1.63c1.12,0,2.04,.92,2.04,2.04v6.12c0,1.12-.92,2.04-2.04,2.04h-1.63c-1.12,0-2.04-.92-2.04-2.04v-6.12Z"/><path class="cls-23" d="M37.73,240.51h1.63c1.13,0,2.04,.91,2.04,2.04v6.12c0,1.13-.91,2.04-2.04,2.04h-1.63c-1.13,0-2.04-.91-2.04-2.04v-6.12c0-1.13,.91-2.04,2.04-2.04Z"/><path class="cls-26" d="M19.29,242.55v6.12c0,1.8,1.47,3.27,3.27,3.27h1.63c1.8,0,3.27-1.47,3.27-3.27v-6.12c0-1.8-1.47-3.27-3.27-3.27h-1.63c-1.8,0-3.27,1.47-3.27,3.27Zm1.23,0c0-1.12,.92-2.04,2.04-2.04h1.63c1.12,0,2.04,.92,2.04,2.04v6.12c0,1.12-.92,2.04-2.04,2.04h-1.63c-1.12,0-2.04-.92-2.04-2.04v-6.12Z"/><path class="cls-23" d="M22.56,240.51h1.63c1.13,0,2.04,.91,2.04,2.04v6.12c0,1.13-.91,2.04-2.04,2.04h-1.63c-1.13,0-2.04-.91-2.04-2.04v-6.12c0-1.13,.91-2.04,2.04-2.04Z"/><path class="cls-26" d="M4.12,242.55v6.12c0,1.8,1.47,3.27,3.27,3.27h1.63c1.8,0,3.27-1.47,3.27-3.27v-6.12c0-1.8-1.47-3.27-3.27-3.27h-1.63c-1.8,0-3.27,1.47-3.27,3.27Zm1.23,0c0-1.12,.92-2.04,2.04-2.04h1.63c1.12,0,2.04,.92,2.04,2.04v6.12c0,1.12-.92,2.04-2.04,2.04h-1.63c-1.12,0-2.04-.92-2.04-2.04v-6.12Z"/><path class="cls-23" d="M7.39,240.51h1.63c1.13,0,2.04,.91,2.04,2.04v6.12c0,1.13-.91,2.04-2.04,2.04h-1.63c-1.13,0-2.04-.91-2.04-2.04v-6.12c0-1.13,.91-2.04,2.04-2.04Z"/><path class="cls-10" d="M236.52,268.04h0c4.73,0,8.56-3.83,8.56-8.56v-15.11c0-4.73-3.83-8.56-8.56-8.56h0c-4.73,0-8.56,3.83-8.56,8.56v15.11c0,4.73,3.83,8.56,8.56,8.56Z"/><path class="cls-21" d="M345.17,262.95c.05,.06,.1,.12,.15,.18,.54,.64,1.05,1.31,1.52,1.99,.08,.12,.15,.23,.22,.35,.41,.62,.79,1.25,1.14,1.9,.05,.09,.1,.18,.14,.27H-322.21c-.12-.03-.23-.07-.35-.1l-14.93-4.59H345.17Z"/><path class="cls-23" d="M300.22,233.72h.07c.52,.3,.99,.6,1.48,.9-.31-.19-.63-.36-.94-.54-.2-.12-.4-.24-.6-.35Z"/><path class="cls-23" d="M315.28,243.8h0s-.07-.05-.1-.08c.04,.03,.07,.05,.11,.08Z"/><path class="cls-23" d="M300.82,234.08c.31,.18,.63,.35,.94,.54,.28,.17,.56,.34,.83,.51-.58-.36-1.18-.7-1.77-1.05Z"/><path class="cls-23" d="M300.2,233.72h.02c.2,.12,.4,.24,.6,.35-.2-.12-.41-.24-.62-.35Z"/><path class="cls-23" d="M311.56,241.35c-1.32-1.03-2.65-2-4-2.94,2.47,1.71,4.82,3.41,7.6,5.32,.03,.03,.07,.05,.1,.08h-.27c-1.08-.7-2.21-1.5-3.44-2.45Z"/><path class="cls-23" d="M305.92,237.29c-.97-.66-1.95-1.3-2.94-1.91,1.03,.65,2.01,1.29,2.94,1.91Z"/><path class="cls-28" d="M302.59,235.13c.14,.08,.26,.17,.39,.25,.99,.62,1.97,1.26,2.94,1.91,.56,.37,1.1,.75,1.64,1.12,1.35,.95,2.69,1.92,4,2.94,1.22,.96,2.36,1.75,3.44,2.45h-39.77c-1.24-3.89,.55-9.82,6.29-9.82l18.69-.26c.21,.12,.41,.23,.62,.35,.59,.35,1.19,.69,1.77,1.05Z"/><path class="cls-14" d="M62.74,310.24v-8.29c15.92,2.42,36.16,3.52,59.08-.1,9.79-1.54,18.7-3.74,26.7-6.22,0,6.73,0,13.37,0,20.32-22.18,5.54-50.77,3.63-85.77-5.72Z"/><path class="cls-26" d="M150.75,307.91c-.45,4.52-1.28,7.63-2.24,7.89,0-2.67,0-5.29,0-7.89h2.24Z"/><path class="cls-26" d="M148.51,285c-.11-.03-.22-.05-.33-.07,.07-.03,.13-.06,.2-.06,1.5,0,2.72,6.96,2.72,15.49,0,2.74-.13,5.32-.35,7.56h-2.24c0-7.64,0-15.07,0-22.91Z"/><path class="cls-26" d="M146.01,307.91h2.5c0,2.6,0,5.22,0,7.89-.04,.01-.09,.04-.13,.04-1.02,0-1.91-3.21-2.37-7.93Z"/><path class="cls-26" d="M148.51,307.91h-2.5c-.22-2.24-.35-4.81-.35-7.56,0-8.15,1.12-14.84,2.52-15.43,.11,.03,.22,.05,.33,.07,0,7.84,0,15.28,0,22.91Z"/><path class="cls-28" d="M189.09,239.11h2.34c1.6,0,2.92,1.18,2.92,2.63v7.89c0,1.44-1.31,2.63-2.92,2.63h-2.34c-1.6,0-2.92-1.18-2.92-2.63v-7.89c0-1.44,1.31-2.63,2.92-2.63Z"/><path class="cls-28" d="M173.92,239.11h2.34c1.6,0,2.92,1.18,2.92,2.63v7.89c0,1.44-1.31,2.63-2.92,2.63h-2.34c-1.6,0-2.92-1.18-2.92-2.63v-7.89c0-1.44,1.31-2.63,2.92-2.63Z"/><path class="cls-28" d="M158.74,239.11h2.34c1.6,0,2.92,1.18,2.92,2.63v7.89c0,1.44-1.31,2.63-2.92,2.63h-2.34c-1.6,0-2.92-1.18-2.92-2.63v-7.89c0-1.44,1.31-2.63,2.92-2.63Z"/><path class="cls-28" d="M143.57,239.11h2.34c1.6,0,2.92,1.18,2.92,2.63v7.89c0,1.44-1.31,2.63-2.92,2.63h-2.34c-1.6,0-2.92-1.18-2.92-2.63v-7.89c0-1.44,1.31-2.63,2.92-2.63Z"/><path class="cls-28" d="M128.4,239.11h2.33c1.6,0,2.92,1.18,2.92,2.63v7.89c0,1.44-1.31,2.63-2.92,2.63h-2.33c-1.6,0-2.92-1.18-2.92-2.63v-7.89c0-1.44,1.31-2.63,2.92-2.63Z"/><path class="cls-28" d="M113.23,239.11h2.33c1.6,0,2.92,1.18,2.92,2.63v7.89c0,1.44-1.31,2.63-2.92,2.63h-2.33c-1.6,0-2.92-1.18-2.92-2.63v-7.89c0-1.44,1.31-2.63,2.92-2.63Z"/><path class="cls-28" d="M98.06,239.11h2.34c1.6,0,2.92,1.18,2.92,2.63v7.89c0,1.44-1.31,2.63-2.92,2.63h-2.34c-1.6,0-2.92-1.18-2.92-2.63v-7.89c0-1.44,1.31-2.63,2.92-2.63Z"/><path class="cls-28" d="M82.89,239.11h2.34c1.6,0,2.92,1.18,2.92,2.63v7.89c0,1.44-1.31,2.63-2.92,2.63h-2.34c-1.6,0-2.92-1.18-2.92-2.63v-7.89c0-1.44,1.31-2.63,2.92-2.63Z"/><path class="cls-28" d="M67.72,239.11h2.33c1.6,0,2.92,1.18,2.92,2.63v7.89c0,1.44-1.31,2.63-2.92,2.63h-2.33c-1.6,0-2.92-1.18-2.92-2.63v-7.89c0-1.44,1.31-2.63,2.92-2.63Z"/><path class="cls-28" d="M52.55,239.11h2.33c1.6,0,2.92,1.18,2.92,2.63v7.89c0,1.44-1.31,2.63-2.92,2.63h-2.33c-1.6,0-2.92-1.18-2.92-2.63v-7.89c0-1.44,1.31-2.63,2.92-2.63Z"/><path class="cls-28" d="M37.38,239.11h2.33c1.6,0,2.92,1.18,2.92,2.63v7.89c0,1.44-1.31,2.63-2.92,2.63h-2.33c-1.6,0-2.92-1.18-2.92-2.63v-7.89c0-1.44,1.31-2.63,2.92-2.63Z"/><path class="cls-28" d="M22.21,239.11h2.34c1.6,0,2.92,1.18,2.92,2.63v7.89c0,1.44-1.31,2.63-2.92,2.63h-2.34c-1.6,0-2.92-1.18-2.92-2.63v-7.89c0-1.44,1.31-2.63,2.92-2.63Z"/><path class="cls-28" d="M7.04,239.11h2.33c1.6,0,2.92,1.18,2.92,2.63v7.89c0,1.44-1.31,2.63-2.92,2.63h-2.33c-1.6,0-2.92-1.18-2.92-2.63v-7.89c0-1.44,1.31-2.63,2.92-2.63Z"/></g><g><rect class="cls-9" x="366.42" y=".88" width="10" height="395.61"/><rect class="cls-9" x="62.28" y=".88" width="10" height="395.97"/><g><rect class="cls-5" x="216.76" y="127.67" width="226.67" height="41.32"/><rect class="cls-11" x="216.76" y="127.67" width="5.04" height="41.32"/><rect class="cls-11" x="438.4" y="127.67" width="5.04" height="41.32"/><polygon class="cls-8" points="249.83 159.99 248.25 158.12 258.44 149.55 237.28 149.55 237.28 147.1 258.44 147.1 248.25 138.54 249.83 136.66 263.7 148.33 249.83 159.99"/><g><rect class="cls-21" x="277.01" y="134.45" width="27.76" height="27.76"/><path class="cls-24" d="M280.75,148.66h0c.6-.35,1.43-.18,2.14,.43l1.69,1.46,4.8-2.77-5.43-3.17c-.49-.29-.65-1.05-.26-1.28l.61-.35c.95-.55,2.17-.54,3.4,.02l5.58,2.54,3.68-2.13c.81-.47,1.89-.38,2.92,.24l.87,.52c.49,.3,.65,1.06,.26,1.29l-14.66,8.47c-.66,.38-1.59,.11-2.31-.68l-3.23-3.53c-.32-.35-.35-.88-.05-1.05Z"/></g><rect class="cls-8" x="318.08" y="138.68" width="32.1" height="6.83"/><rect class="cls-8" x="318.08" y="150.67" width="46.7" height="6.83"/><rect class="cls-8" x="371.42" y="150.67" width="18.96" height="6.83"/><g><rect class="cls-5" x="229.61" y=".88" width="2.08" height="126.79"/><rect class="cls-5" x="428.5" y=".88" width="2.08" height="126.79"/></g></g><path class="cls-7" d="M387.78,355.26c1.05-1.13,2.28-2.07,3.41-3.13,7.86-7.42,10.48-19.37,16.19-28.32-.1,.15,6.64,5.53,7.32,6.3,2.57,2.88,.97,6.5-.69,9.53-3.17,5.77-6.68,11.46-9.64,17.32-2.49,4.93-2.61,10.98-5.19,16.14-.32,.59-.65,1.19-1.1,1.69-.51,.56-1.15,.97-1.8,1.36-1.54,.93-3.13,1.77-4.76,2.54-.7,.33-1.54,.63-2.2,.24-.56-.33-.76-1.08-.64-1.72,.13-.64,.51-1.19,.91-1.71,1.37-1.77,6.12-4.48,5.36-7.08-1.49-5.14-7.57,7.01-8.36,8.32-.15,.25-.33,.52-.62,.56-.44,.06-.71-.47-.84-.9-.9-3.03-1.68-6.12-1.75-9.27-.1-4.26,1.47-8.7,4.39-11.85Z"/><path class="cls-4" d="M432.96,392.1c-3.78-14.61-6.59-29.54-6.13-44.7,.1-2.62,.31-5.32,1.56-7.62,3.31-6.1,11.75-6.5,18.68-6.11,5,.28,9.99,.56,14.99,.84,.23-2.58,.4-5.17,.51-7.76-.16,3.65-36.29,4.33-39.87,4.68-5.9,.58-10.85-1.82-16.58-3.28-.51,7.83-4.65,14.34-5.52,22.07-.95,8.38-.86,16.66-.43,25.07,.36,7.06,.69,14.13,.82,21.2h33.04c-.34-1.47-.69-2.93-1.07-4.39Z"/><path class="cls-4" d="M466.8,337.48c-.06,0-.12-.13-.14-.44-.05-.73-.11-1.46-.16-2.19-.11-.06-.23-.1-.38-.11-1.35-.08-2.7-.15-4.05-.23-1.84,21-7.27,41.48-12.74,61.98h28.3c-1.74-10.48-3.54-20.94-5.25-31.39-1.48-9.09-4.38-18.43-5.57-27.62Z"/><path class="cls-4" d="M428.39,339.78c-1.25,2.3-1.46,5.01-1.56,7.62-.46,15.15,2.35,30.09,6.13,44.7,.38,1.46,.73,2.92,1.07,4.39h15.28c5.47-20.51,10.9-40.99,12.74-61.98-5-.28-9.99-.56-14.99-.84-6.93-.39-15.37,.02-18.68,6.11Z"/><path class="cls-27" d="M395.2,368.72c-.1-2.03-1.85-2.59-3.12-1.56s-2.15,3.02-2.98,4.87c-3.74,8.41-8.03,16.27-12.02,24.45h6.8c3.78-7.94,7.4-16.04,10.59-24.58,.38-1.02,.78-2.13,.72-3.19Z"/><path class="cls-8" d="M396.42,241.56c-12.39,13.95-22.84,30-25.8,47.78-2.96,17.77,2.74,37.47,17.94,48.86,3.75,2.81,8.87,5.13,13.29,3.32,5.39-2.21,6.13-8.79,6.19-14.19,.19-17.91,1.41-35.8,3.66-53.59,1.28-10.07,4.39-20.85,6.61-31.43,1.82-8.67-8.75-14.43-15.01-8.16-2.46,2.47-4.76,5.02-6.89,7.42Z"/><path class="cls-7" d="M457.69,211.07c.18-.38,.36-.8,.27-1.2-.1-.43-.48-.72-.84-.98-4.57-3.25-9.6-5.84-14.9-7.66-.42-.15-.89-.29-1.31-.14-.61,.21-.87,.91-1.07,1.52-2.15,6.49-5.97,12.42-11,17.05-.35,.32-.72,.67-.84,1.13-.17,.65,.22,1.3,.61,1.84,2.83,3.88,6.83,6.65,11.12,8.71,3.01,1.45,9.77,5.19,13.16,4.54,3.76-.73,2.25-6.51,2.07-9.19-.35-5.36,.48-10.73,2.73-15.62Z"/><path class="cls-15" d="M428.03,218.75c-1.59,.21-3.19,.69-4.77,1.52-5.21,2.73-8.16,8.33-10.79,13.59-6.58,13.16-7.12,26.22-7.25,40.74-.19,20.05-.38,40.1-.57,60.15,0,.69,0,1.43,.39,2,.41,.6,1.16,.87,1.86,1.08,10.2,3.11,21.11,2.56,31.75,1.99,5.35-.29,10.69-.58,16.04-.87,2.74-.15,5.48-.3,8.23-.45,2.99-.16,5.47,1.63,5.51-2.69,.11-14.24,.28-28.4,0-42.62-.21-10.68,.09-21.44-.36-32.11-.21-4.87-2.02-10.01-3.22-14.75-1.24-4.88-3.25-8.58-5.74-12.95-1.26-2.21-2.51-4.68-4.3-6.53-2.11-2.17-4.9-2.66-7.79-3.57-6.11-1.93-12.57-5.39-19-4.54Z"/><path class="cls-7" d="M474.15,175.99c1.66,.8,3.15,2.02,4.27,3.42,2.27,2.84,2.91,6.71,2.52,10.32-.36,3.34-1.73,5.58-2.94,8.62-1.25,3.16,.49,6.82,1.23,9.9,.81,3.4-1.26,2.7-3.45,3.63-1.38,.59-1.36,1.97-1.95,3.12-.61,1.21-1.55,2.45-2.3,3.59-.54,.81-1.09,1.63-1.83,2.25-3.89,3.21-12.75,.18-16.77-1.6-3.99-1.76-7.59-4.67-9.58-8.55-2.36-4.61-1.41-8.59,.17-13.17,2.09-6.05,3.78-11.92,7.74-17.11,2.46-3.23,5.8-5.94,9.88-6.2,2.96-.19,6.45,.58,9.44,.79,1.22,.09,2.43,.44,3.56,.99Z"/><path class="cls-8" d="M411.85,244.33c.03-.16,.05-.32,.08-.48,.35-2.21,.83-4.41,1.64-6.5,.54-1.39,1.22-2.73,1.92-4.04,1.84-3.44,4.12-6.71,8.23-7.43,7.58-1.33,13.81,4.57,16.87,10.95,2.91,6.08,3.63,13.2,2.69,19.83-1.1,7.73-4.28,15.01-7.91,21.92-6.24,11.9-13.91,23.05-22.78,33.15-2.82,3.21-5.8,6.37-7.78,10.15-1.98,3.79-2.87,8.4-1.27,12.36,9.76-9.16,19.56-18.38,27.71-29,4.84-6.31,9.09-13.12,12.23-20.44,3.21-7.45,6.04-15.31,7.1-23.4,.72-5.48,.46-11.09-.75-16.48-1.48-6.54-4.51-12.93-9.61-17.29-5.1-4.36-12.49-6.35-18.76-3.99-11.77,4.44-15.07,18.75-16.04,29.82-.29,3.31-.63,6.63-.87,9.94-.3,4.2,.98,3.91,1.76,.07,.96-4.7,2.41-9.3,4.03-13.82,.68-1.89,1.15-3.4,1.5-5.33Z"/><path class="cls-25" d="M472.62,199.97c-.2,.86,.07,1.66,.62,1.78,.55,.12,1.16-.47,1.36-1.33,.2-.86-.07-1.66-.62-1.78-.55-.12-1.16,.47-1.36,1.33Z"/><path class="cls-25" d="M469.3,194.66c-.49,.22-.57-.19-.27-.52,2.2-2.47,7.29-1.32,6.64-.1-.14,.26-.44,.43-.7,.32-2.34-1.05-4.49-.23-5.67,.3Z"/><g><path class="cls-27" d="M507.35,281.66l30.44-31.15c.5-.51,.49-1.32-.01-1.83l-1.14-1.14c-.52-.52-1.35-.51-1.86,.02l-30.2,31.61c-.54,.56-.46,1.47,.16,1.94l.91,.68c.52,.39,1.25,.34,1.71-.13Z"/><path class="cls-7" d="M507.67,289.97c3.37-1.97,7.72-1.83,10.93-4.06,1.59-1.11,2.76-2.72,3.9-4.29,.81-1.12,1.62-2.25,2.43-3.37,.5-.69,1.01-1.39,1.33-2.18,.33-.79,.49-1.68,1.06-2.32,.4-.45,.96-.73,1.38-1.16,.58-.6,.83-1.49,.65-2.3-.11-.51-.38-.98-.43-1.5-.14-1.55,1.72-2.84,1.39-4.37-.38-1.73-2.87-1.66-4.53-1.04-3.26,1.23-6.93,3.01-10.01,1.37-.71-.38-1.33-.92-2.08-1.21-.78-.3-1.65-.29-2.48-.2-5.75,.59-10.94,4.91-12.57,10.46-.6,2.02-1.58,3.28-2.39,5.23-.1,.25-.21,.51-.21,.78,0,.37,.18,.71,.36,1.03,1.52,2.78,2.7,5.74,3.53,8.8,.11,.42,.26,.9,.65,1.1,.34,.17,.74,.08,1.1-.02,1.96-.52,4.24,.29,5.99-.74Z"/><path class="cls-15" d="M436.49,234.17c3.88,6.31,6.81,13.21,8.64,20.39,1.48,5.79,2.25,11.73,3.58,17.55,1.36,5.97,3.38,13.12,7.72,17.67,1.85,1.94,5.05,1.21,7.57,.31,11.14-3.97,22.11-8.41,32.87-13.3,3.35,3.89,6.25,8.17,8.63,12.73,.4,.77,.79,1.58,.78,2.44-.03,1.63-1.47,2.84-2.81,3.78-12.01,8.36-26.13,13.17-40.27,16.94-5.25,1.4-10.82,2.67-16.06,1.22-7.07-1.95-11.9-8.35-15.79-14.58-8.8-14.06-15.75-29.55-18.09-45.98-.81-5.64-1.1-12.04,.78-17.49,2.21-6.42,9.32-12.96,16.24-8.7,2.61,1.61,4.47,4.18,6.08,6.79,.05,.08,.1,.16,.14,.23Z"/></g><path class="cls-27" d="M489.16,176.07c.95,.09,1.86,.39,2.45,1.11,.99,1.2,.63,3.02-.1,4.4-3.63,6.89-11.92,6.39-17.5,2.57-1.21-.83-2.48-1.8-3.95-1.76-.8,.02-1.56,.35-2.27,.73-2.75,1.46-5.23,3.89-7.6,5.88-.63,.53-3.35,3.84-4.1,2.07-2.41-5.67-8.1-1.59-8.61,2.82-.18,1.58,.8,2.02,1.39,3.25,.79,1.64,.19,2.47-.95,3.9-2.18,2.74-5.55,4.55-9.06,4.73-.56,.03-1.13,.01-1.64-.22-1.15-.53-1.54-1.93-1.76-3.18-1.98-11.07-.7-22.9,7.52-31.22,1.68-1.7,3.58-3.21,5.71-4.3,10.31-5.31,22.89-1.55,31.04,5.84,2.37,2.15,4.52,3.56,7.89,3.36,.5-.03,1.01-.04,1.52,.01Z"/><path class="cls-8" d="M386.18,244.05c-5.9,5.95-9.56,14.89-6.98,22.87,.16,.51,.38,1.04,.82,1.34,.86,.57,2-.04,2.83-.66,11.6-8.62,20.72-20.53,26.01-33.98,.24-.6,.47-1.26,.28-1.88-1.07-3.45-20.93,10.26-22.96,12.3Z"/><path class="cls-6" d="M471.61,217.4c-2.05-.89-3.75-2.54-4.71-4.55-.14-.3-.09-.67,.22-.85,.27-.16,.7-.08,.85,.22,.88,1.84,2.37,3.29,4.24,4.1,.31,.13,.39,.57,.24,.84-.18,.32-.54,.37-.84,.24h0Z"/><path class="cls-8" d="M409.7,311.57c3.6-23.51,2.8-47.44,2-71.2,.08,2.29-2.85,6.59-3.69,8.8-1.17,3.07-2.23,6.17-3.18,9.31-1.94,6.38-3.45,12.88-4.53,19.46-2.17,13.19-2.63,26.65-1.51,39.97,.54,6.46,.57,15.32,3.33,21.22,3.13-.98,3.83-9.04,4.5-11.87,1.24-5.18,2.27-10.41,3.07-15.68Z"/><path class="cls-2" d="M432.02,228.46s6.18,8.47,10.95,23.54,8.4,46.45,23.92,37.74"/><path class="cls-2" d="M418.17,270.16s12,58.36,49.12,41.61"/><path class="cls-2" d="M399.72,257.16s-11.99,12.97-18.3,11.22"/><path class="cls-2" d="M395.91,273.83s-10.12,16.92,0,58.98"/></g><ellipse class="cls-30" cx="73.52" cy="339.13" rx="252.58" ry="7.85"/></g></g></svg>