<?xml version="1.0" encoding="UTF-8"?><svg id="_圖層_2" xmlns="http://www.w3.org/2000/svg" viewBox="0 0 430.2 312.85"><defs><style>.cls-1{stroke:#985742;}.cls-1,.cls-2,.cls-3,.cls-4,.cls-5{fill:none;stroke-linecap:round;stroke-linejoin:round;}.cls-6{fill:#028980;}.cls-7{fill:#0080c4;}.cls-8{fill:#ed8a7c;}.cls-9{fill:#f3bf94;}.cls-10{fill:#ef8b8b;}.cls-11{fill:#fff;}.cls-12{fill:#fff7ee;}.cls-13{fill:#edb286;}.cls-14{fill:#ffcb66;}.cls-15{fill:#ffc052;}.cls-16{fill:#ff9400;}.cls-17{fill:#80c6c3;}.cls-18{fill:#95dd95;}.cls-19{fill:#7c7c7c;}.cls-20{fill:#009c96;}.cls-21{fill:#b8dedd;}.cls-22{fill:#a7a7a7;}.cls-23{fill:#24110d;}.cls-24{fill:#52cfff;}.cls-25{fill:#595959;}.cls-26{fill:#2b2b2b;}.cls-27{fill:#345c7d;}.cls-28{fill:#600b47;}.cls-29{fill:#5fc2b4;}.cls-30{fill:#525252;}.cls-2{stroke:#ffc052;}.cls-2,.cls-3,.cls-4,.cls-5{stroke-width:2px;}.cls-3{stroke:#fff;}.cls-4{stroke:#ff9400;}.cls-5{stroke:#5fc2b4;}</style></defs><g id="_圖層_1-2"><g><path class="cls-20" d="M89.88,268.4s11.75,26.2,18.84,24.92,38.96-2.61,39.41-6.69"/><circle class="cls-15" cx="244.44" cy="62.56" r="54.27"/><path class="cls-7" d="M279.51,103.97l-35.07-41.4-54.08-4.35c-.11,1.44-.19,2.88-.19,4.35,0,29.97,24.3,54.27,54.27,54.27,13.37,0,25.61-4.85,35.07-12.87Z"/><path class="cls-24" d="M244.44,116.83c13.37,0,25.61-4.85,35.07-12.87l-35.07-41.4-34.75,41.69c9.41,7.86,21.53,12.59,34.75,12.59Z"/><path class="cls-16" d="M182.81,57.61h0l61.63,4.95L238.58,1c-29.77,2.8-53.39,26.71-55.76,56.61Z"/><line class="cls-2" x1="153.46" y1="1" x2="182.81" y2="1"/><line class="cls-2" x1="153.46" y1="9.99" x2="182.81" y2="9.99"/><line class="cls-2" x1="153.46" y1="18.98" x2="173.38" y2="18.98"/><line class="cls-4" x1="321.8" y1="38.48" x2="351.15" y2="38.48"/><line class="cls-4" x1="321.8" y1="47.47" x2="351.15" y2="47.47"/><line class="cls-4" x1="321.8" y1="56.46" x2="341.72" y2="56.46"/><polyline class="cls-2" points="191.94 9.99 203.26 9.99 213.63 23.9"/><polyline class="cls-4" points="313.8 46.61 302.48 46.61 292.12 60.52"/><g><rect class="cls-11" x="74.46" y="173.6" width="1.01" height="6.69" transform="translate(-103.16 104.84) rotate(-45)"/><rect class="cls-11" x="66.31" y="165.7" width="1.01" height="6.19" transform="translate(-99.79 96.69) rotate(-45)"/><rect class="cls-11" x="63.64" y="176.42" width="6.76" height="1.01" transform="translate(-105.47 99.21) rotate(-45)"/><rect class="cls-11" x="71.62" y="168.47" width="6.68" height="1.01" transform="translate(-97.52 102.5) rotate(-45)"/></g><g><path class="cls-11" d="M57.14,211.05c1.74-1.74,1.74-4.56,0-6.29-1.74-1.74-4.56-1.74-6.29,0-1.74,1.74-1.74,4.56,0,6.29,1.74,1.74,4.56,1.74,6.29,0Z"/><circle class="cls-11" cx="42.03" cy="219.42" r="2.14" transform="translate(-49.11 15.44) rotate(-13.23)"/></g><path class="cls-17" d="M243.87,278.43c-2.22-2.15-5.32-1.72-8.37-1.68v-2.54c0-1.21-.98-2.19-2.19-2.19h-19.45c-1.21,0-2.19,.98-2.19,2.19v25.26c0,2.54,2.06,4.59,4.59,4.59h14.65c2.54,0,4.59-2.06,4.59-4.59v-.36c3.08,.02,6.23,.24,8.42-1.93,1.73-1.71,1.85-4.59,1.84-9.08,0-4.96-.11-7.94-1.9-9.67Zm-8.37,17.89v-16.77c5.48-.06,7.97-1.03,7.81,8.55-.14,8.72-2.37,8.25-7.81,8.21Z"/><path class="cls-26" d="M86.52,170.62c.04,5.67,17.27,25.94,9.69,40.27-6.57,11.63-40.92,29.85-40.92,29.85,.59-36.85,31.18-75.79,31.22-70.12Z"/><path class="cls-30" d="M90.25,209.32s-.03,0-.04,0c-.1-.02-.17-.13-.14-.23,3.06-12.8-2.42-26.77-4.22-31.36-.46-1.16-.59-1.5-.57-1.66,.01-.11,.11-.18,.21-.17,.1,.01,.18,.1,.17,.2,.01,.13,.26,.76,.54,1.49,1.81,4.62,7.33,18.67,4.24,31.59-.02,.09-.1,.15-.19,.15Z"/><path class="cls-30" d="M85.9,209s-.04,0-.05,0c-.1-.03-.16-.14-.13-.24,3.83-13.03-.42-25.66-1.82-29.81-.32-.94-.42-1.25-.4-1.39,.01-.11,.11-.18,.21-.17,.1,.01,.18,.1,.17,.21,0,.11,.18,.63,.38,1.23,1.41,4.18,5.69,16.9,1.82,30.04-.02,.08-.1,.14-.18,.14Z"/><path class="cls-26" d="M30.32,179.32c-2.61,20.81-64.15,56.86-4.11,98.1,9.04,6.21,34.51-69.7,43.74-70.94,6.34-.85,3.78-12.34,6.6-23.18,2.08-8.01,10.19-15.01,11.01-20.42,.47-3.08,1.44-8.75,.84-11.43-2.58-11.51-17.06-16.76-25.54-17.72-30.76-3.49-30.44,28.92-32.54,45.6Z"/><path class="cls-12" d="M52.03,213.23s12.44,11.15,23.66,4c11.22-7.15-1.07,29.12-1.07,29.12l-12.15-1.03-10.43-32.09Z"/><path class="cls-6" d="M92.65,225.11l-7.07,30.96s9.01,28.86,24.16,37.12c-6.73-14.45-2.7-16.68-4.29-25.54-2.5-13.83-12.07-29.87-12.8-42.55Z"/><path class="cls-9" d="M72.12,204.01h0l2.1-24.97-20.38-.36-4.68,22.32c-.57,2.01,14.58,29.99,22.35,37.61,3.57-6.39,4.62-16.34,4.19-25.96-.12-2.59-1.67-7-3.56-8.64Z"/><g><path class="cls-12" d="M21.41,291.44c-.4,8.32-5.02,14.92-.91,19.18,1.04,.8,4.74,1.42,9.91,2.14h43.79c4.55-.86,8.39-1.87,10.96-3.63,4.16-4.3,.05-14.23,.72-17.37,.66-3.12,9.12-22.97,10.9-35.05,.53-3.63,1.48-9.67-2.79-21.25-1.67-4.53,0-11.46-1.53-15.26-2.08-5.17-5.72-9.38-10.55-11.95l-2.74-1.62-10.78-4.08s-14.54-3.28-20.6,.89c-4.57,3.15-4.34,1.74-6.61,2.31-2.41,.6-4.51,1.19-5.95,1.69-14.57,5.14-21.4,14-22.04,32.63-.57,16.69,8.85,38.09,8.21,51.36Z"/><path class="cls-20" d="M75.78,205.3s.23,8.15,2.42,12.38,11.12,58.56,5.59,73.45c-5.52,14.89-4.37,14.87-4.37,14.87h4.05s12.91-40.07,13.3-49.27c.39-9.2-1.65-40.12-4.09-43.14"/></g><path class="cls-6" d="M48.78,305.95c-7.34-7.02-13.79-14.92-19.73-23.14-4.84-6.71-9.08-13.87-12.49-21.42-.39-.85-.77-1.71-1.14-2.56,2.58,11.96,6.4,24,5.99,32.62-.4,8.32-5.02,14.92-.91,19.18,1.04,.8,4.74,1.42,9.91,2.14h25.06c-1.29-1.42-2.54-2.64-3.77-4.12-.98-.89-1.96-1.79-2.91-2.7Z"/><path class="cls-9" d="M72.93,194.34l1.28-15.29-14.21-.25v8.59c0,5.42,4.4,9.82,9.82,9.82h0c1.62,0,2.98-1.24,3.11-2.86Z"/><path class="cls-20" d="M49.15,201l-7.37,4.29s-44.27,4.27-23.64,59.45c20.64,55.18,51.11,35.92,51.11,35.92l-11.75-47.74s-10.71-33.12-8.36-51.92Z"/><path class="cls-9" d="M52.77,170.17c.85,6.38,2.9,12.11,7.01,16.58,4.15,4.52,11.49,7.5,15.69,7.2,3.88-.27,8.12-4.3,11.13-11.9,2.06-5.19,.85-11.36,.74-17.02-.04-1.87-.23-4.19-.2-5.97,.21-11.82-9.99-18.64-18.06-17.57-18.2,2.41-18.02,15.85-16.3,28.67Z"/><path class="cls-26" d="M55.67,171.48c-1.57,1.25-6.79-3.6-7.13-4.69-4.27-13.93,10.59-25.81,20.86-27.02,6.21-.73,18.25,4.84,17.95,18.11-2.3-10.32-11.56-7.68-15.95-14.97-.49,12.43-13.88,11.83-15.74,28.58Z"/><g><path class="cls-26" d="M83.79,167.32c-.05,.9,.38,1.66,.98,1.7,.59,.04,1.12-.67,1.17-1.57,.05-.9-.38-1.66-.98-1.7-.59-.04-1.12,.67-1.17,1.57Z"/><path class="cls-26" d="M70.41,167.53c.01,.97,.61,1.75,1.34,1.74s1.3-.81,1.29-1.78c-.01-.97-.61-1.75-1.34-1.74-.72,.01-1.3,.81-1.29,1.78Z"/></g><path class="cls-26" d="M67.27,162.75c-.56,.37-.75-.12-.44-.59,2.24-3.53,8.82-3.13,8.26-1.47-.12,.35-.47,.63-.81,.54-3.13-.83-5.65,.63-7.01,1.53Z"/><path class="cls-26" d="M87.27,160.28c-1.19-.89-3-1.04-4.76-.4-.78,.29-.59,1.8,.18,1.48,1.28-.53,3.11-.79,4.57,.19v-1.27Z"/><path class="cls-26" d="M78.06,177.24s-.03,0-.05,0c-.07,0-.12-.06-.12-.12,0-.07,.06-.12,.12-.12,.02,0,.03,0,.05,0,1.57,0,3.39-.49,3.75-1.59,.1-.3-.19-1.01-.55-1.91-.63-1.56-1.5-3.69-1.48-6.13,0-.07,.06-.12,.12-.12h0c.07,0,.12,.06,.12,.12-.02,2.39,.83,4.5,1.46,6.04,.41,1.02,.68,1.69,.56,2.07-.39,1.21-2.33,1.76-3.98,1.76Z"/><path class="cls-26" d="M54.43,310.51c-7.83,0-14.51-1.43-17.42-4.68-8.55-9.53-13.71-21.27-16.54-29.45-.03-.1,.02-.2,.11-.23,.1-.03,.2,.02,.23,.11,2.82,8.14,7.96,19.84,16.46,29.32,2.99,3.34,10.5,4.96,20.6,4.46,9.64-.48,19.7-2.8,26.92-6.2,.09-.04,.2,0,.24,.09,.04,.09,0,.2-.09,.24-8.37,3.94-20.41,6.33-30.53,6.33Z"/><path class="cls-26" d="M92.86,271.07s-.04,0-.07-.01c-.09-.04-.14-.14-.1-.24,4.76-12.24,5.53-23.15,2.23-31.54-2.15-5.47-2.13-13.97-2.13-14.05,0-.1,.08-.18,.18-.18h0c.1,0,.18,.08,.18,.18,0,.08-.02,8.51,2.11,13.92,3.33,8.47,2.56,19.47-2.23,31.8-.03,.07-.1,.12-.17,.12Z"/><path class="cls-26" d="M75.14,284.26s-.02,0-.03,0c-.1-.02-.17-.11-.15-.21,5.02-27.45,1.55-36.39-.53-41.74l-.13-.33-2.65-3.33c-.06-.08-.05-.19,.03-.26,.08-.06,.19-.05,.26,.03l2.66,3.35s.02,.03,.03,.05l.14,.36c2.09,5.38,5.59,14.39,.55,41.94-.02,.09-.09,.15-.18,.15Z"/><path class="cls-30" d="M53.86,170.41c-.09,0-.17-.06-.19-.15-1.05-4.4,1.11-13.06,5.48-17.63,.77-.8,1.66-1.63,2.62-2.5,3.7-3.4,7.89-7.25,6.63-11.82-.03-.1,.03-.21,.13-.24,.1-.03,.21,.03,.24,.13,1.32,4.8-2.96,8.73-6.74,12.2-.95,.87-1.84,1.69-2.6,2.48-4.29,4.48-6.41,12.97-5.38,17.27,.02,.1-.04,.21-.14,.23-.01,0-.03,0-.04,0Z"/><path class="cls-30" d="M41.81,205.3s-.02,0-.03,0c-.11-.01-.18-.11-.16-.22,.75-5.48,3.46-10.38,5.85-14.71,2.35-4.25,4.57-8.27,4.42-11.97,0-.11,.08-.2,.18-.2,.11,0,.2,.08,.2,.18,.15,3.81-2.1,7.87-4.47,12.17-2.37,4.3-5.07,9.17-5.8,14.58-.01,.1-.1,.17-.19,.17Z"/><path class="cls-30" d="M33.84,207.19s-.06,0-.08-.02c-.1-.05-.14-.16-.09-.26,1.46-3.06,3.41-6,5.49-9.1,3.86-5.78,8.24-12.34,10.22-21.33,.18-.82,.16-2.17,.13-3.87-.07-3.62-.17-9.1,1.64-15.13,1.45-4.84,6.2-8.86,10.39-12.42,3.48-2.95,6.49-5.5,6.67-7.75,0-.11,.1-.19,.21-.18,.11,0,.18,.1,.18,.21-.19,2.41-3.25,5-6.8,8.01-4.15,3.52-8.86,7.51-10.27,12.23-1.78,5.97-1.69,11.41-1.62,15.01,.03,1.73,.06,3.1-.13,3.96-2,9.06-6.4,15.65-10.28,21.46-2.07,3.09-4.02,6.02-5.46,9.05-.03,.07-.1,.11-.17,.11Z"/><path class="cls-30" d="M88,151.09c-.08,0-.15-.05-.18-.13-1.18-3.44-4.61-4.63-7.36-5.6-.76-.27-1.48-.52-2.07-.79-5.32-2.49-10.09-7.06-10.14-7.11-.08-.07-.08-.2,0-.27,.07-.08,.2-.08,.27,0,.05,.05,4.77,4.57,10.03,7.04,.57,.27,1.28,.51,2.03,.78,2.68,.94,6.35,2.22,7.59,5.83,.03,.1-.02,.21-.12,.24-.02,0-.04,.01-.06,.01Z"/><path class="cls-26" d="M65.37,209.11c-1.69,0-3.42-.99-3.52-1.05-.06-.03-.08-.11-.04-.17,.03-.06,.11-.08,.17-.04,.03,.02,3.11,1.78,4.95,.61,.06-.04,.13-.02,.17,.04,.04,.06,.02,.13-.04,.17-.51,.32-1.09,.44-1.68,.44Z"/><path class="cls-10" d="M76.15,259.48c.07,.84-.48,1.57-1.23,1.64s-1.42-.56-1.5-1.4,.48-1.57,1.23-1.64,1.42,.56,1.5,1.4Z"/><path class="cls-14" d="M75.1,274.85c0,.84-.61,1.52-1.37,1.52s-1.37-.68-1.37-1.52,.61-1.52,1.37-1.52,1.37,.68,1.37,1.52Z"/><path class="cls-9" d="M56.81,170.97s-4.79-5.99-8.11-4.26c-3.43,1.79-.19,11.82,5.65,13.28,8.66,2.17,2.77-8.63,2.45-9.02Z"/><path class="cls-9" d="M311.56,238.56l-15.55-23.28s-3.32-12.41-4.59-13.61-5.74-7.93-5.74-7.93c0,0-2.28-7.45-3.16-6.66-1.78,1.61-2.62,5.5-1.65,8.25,.8,2.28,4.44,4.84,3.3,7.6-.12,.28-5.96-.87-11.94-3.17-8.31-3.19-16.33-8.64-19.19-5.89-.98,.94,15.92,10.41,15.92,10.41,0,0,.19,1.09-.89,.89s-16.2-8.75-20.97-5.47c-.94,.65,16.19,9.19,17.76,9.84-1.33-.81-14.64-7.81-16.53-4.63-.6,1.01,16.29,10.18,15.38,9.71-.53-.28,1.7-.07,.06-.84-3.35-1.56-11.05-5.46-11.92-3.08-.43,1.15,14.94,8.6,14.94,8.6l17.08,7.27,12.7,24.91,15.01-12.92Z"/><path class="cls-9" d="M264.6,243.02l-20.87-18.66s-6.31-11.19-7.84-12.03c-1.53-.84-7.54-6.25-7.54-6.25,0,0-4.07-6.65-4.72-5.67-1.32,2-1.16,5.98,.45,8.4,1.34,2.01,5.51,3.59,5.09,6.53-.04,.3-5.98,.64-12.35-.09-8.85-1.02-17.97-4.3-20.05-.92-.71,1.15,18.01,6.11,18.01,6.11,0,0,.45,1.01-.64,1.08-1.09,.07-17.87-4.44-21.68-.07-.75,.86,17.97,4.87,19.65,5.1-1.49-.46-16.13-3.91-17.16-.36-.33,1.13,18.32,5.8,17.31,5.57-.59-.14,1.63-.49-.15-.82-3.63-.67-12.06-2.53-12.32-.01-.13,1.22,16.61,4.61,16.61,4.61l18.36,2.79,18.51,20.96,11.31-16.26Z"/><path class="cls-9" d="M331.1,154.15c3.61,13.32,8.06,32.14,9.43,37.45l32.31-15.43c-4.93-9.23-9.3-24.36-12.57-36.21l-29.16,14.19Z"/><path class="cls-13" d="M342.2,148.75l-11.09,5.4c1.35,4.97,2.81,10.71,4.19,16.23,10.07-4.79,6.9-21.63,6.9-21.63Z"/><path class="cls-11" d="M286.11,231.31l9.5,21.13,15.96-13.88-12.71-19.31c-3.47,4.69-7.9,8.89-12.75,12.06Z"/><path class="cls-19" d="M287.82,240.38c9.98,23.91,19.59,58,36.01,60.12,26.33-4.23,51.35-47.96,73.59-80.22l-23.96-31.83-49.62,69.81-21.56-35.25c-2.99,4.66-11.77,13.77-14.46,17.37Z"/><path class="cls-11" d="M245.42,225.8c-2.72,3.86-5.97,9.16-8.26,16.63l16.45,17.3,11.69-16.84-19.88-17.09Z"/><path class="cls-11" d="M376.79,176.6c-1.21-.81-5.95-11.11-7.17-11.23-6.71-.62-20.01,7.45-31.65,15.61-.76,.53-4.56,11.43-5.25,11.99-11.02,8.97,56.22-9.27,44.08-16.37Z"/><path class="cls-22" d="M430.2,312.77c-5.53-31.04-16.46-81.32-32.29-112.69-3.44-6.82-16.13-19.8-19.62-24.18-2.09-2.62-2.14-4.28-4.56-5.7-1.21-.81-12.55-2.05-37.48,18.8-11.02,8.97-19.97,15.38-21.81,21.16,5.21,42.82,16.43,79.94,22.35,102.63h93.41Z"/><path class="cls-28" d="M289.38,285.5s-.02,0-.03,0c-.19-.02-.34-.19-.32-.38,.92-11.44,4.08-15.65,4.21-15.82,.12-.15,.34-.18,.5-.06,.15,.12,.18,.34,.06,.49h0s-.8,1.06-1.69,3.47c-.82,2.23-1.91,6.12-2.37,11.97-.01,.18-.17,.32-.35,.32Z"/><path class="cls-28" d="M283.08,279.15c-.05,0-.11-.01-.16-.04-.17-.09-.24-.3-.15-.48,4.8-9.24,9.52-9.87,9.72-9.89,.19-.02,.37,.12,.39,.31,.02,.19-.12,.37-.31,.39-.05,0-4.58,.67-9.18,9.51-.06,.12-.19,.19-.31,.19Z"/><path class="cls-26" d="M340.89,257.52s-.1-.02-.14-.06c-.07-.07-.06-.19,.01-.26,8.31-7.55,12.63-17,12.67-17.09,.04-.09,.15-.13,.24-.09,.09,.04,.13,.15,.09,.24-.04,.1-4.39,9.61-12.76,17.21-.03,.03-.08,.05-.12,.05Z"/><path class="cls-22" d="M325.44,200.5c-11.66-2.28-25.32,44.85-38.47,58.14-.79,.8-20.6-15.97-36.94-29.38-7.19,10.85-8.99,23.4-8.41,24.5,12.43,18.53,34.78,46.07,48.4,49.35,30.81,.34,52.45-58.99,52.91-67.2,.29-5.19-10.05-33.95-17.48-35.41Z"/><path class="cls-26" d="M311.8,293.2c-.06,0-.12-.03-.15-.08-.05-.09-.03-.2,.06-.25,2.47-1.57,14.12-15.49,18.14-22.53,6.34-11.11,10.43-21.61,12.16-31.22,1.49-8.27,1.22-15.67-.8-22.01-2.14-6.71-6.31-11.92-11.44-14.29-.09-.04-.13-.15-.09-.24,.04-.09,.15-.13,.24-.09,5.22,2.42,9.46,7.71,11.63,14.51,2.04,6.39,2.32,13.86,.82,22.18-1.74,9.65-5.85,20.2-12.21,31.34-4.04,7.08-15.77,21.07-18.27,22.66-.03,.02-.06,.03-.1,.03Z"/><path class="cls-11" d="M317.72,154s6.5-2.17,6.5-1.83-5.82,4.91-5.82,4.91l-.68-3.08Z"/><path class="cls-26" d="M280.23,271.88s-.01,0-.02,0c-.1,0-.18-.1-.17-.2,.19-2.3,1.41-5.21,3.62-8.64,1.64-2.55,3.25-4.45,3.27-4.47,.07-.08,.18-.09,.26-.02,.08,.07,.09,.18,.02,.26-.06,.07-6.36,7.55-6.8,12.9,0,.1-.09,.17-.18,.17Z"/><path class="cls-26" d="M277.72,264.35s-.1-.02-.14-.06c-.07-.07-.06-.19,.01-.26,.21-.19,5.05-4.59,6.43-5.28,.09-.04,.2,0,.25,.08,.05,.09,0,.2-.08,.25-1.33,.67-6.3,5.17-6.35,5.22-.04,.03-.08,.05-.12,.05Z"/><path class="cls-26" d="M332.77,297.75c-.08,0-.15-.05-.18-.13l-6.18-21.94c-.03-.1,.03-.2,.13-.23,.1-.03,.2,.03,.23,.13l6.18,21.94c.03,.1-.03,.2-.13,.23-.02,0-.03,0-.05,0Z"/><path class="cls-26" d="M291.97,252.08s-.09-.01-.12-.05c-.08-.07-.08-.18-.02-.26,1.11-1.27,13.99-25.08,14.12-25.32,.05-.09,.16-.12,.25-.07,.09,.05,.12,.16,.07,.25-.53,.98-13.03,24.09-14.16,25.39-.04,.04-.09,.06-.14,.06Z"/><path class="cls-8" d="M80.8,183.64c-1.61,.38-3.78,.27-5.85-1.79-.17-.17-.17-.44,0-.61,.17-.17,.44-.17,.61,0,3.44,3.43,7.08,.71,7.23,.59,.19-.14,.46-.11,.61,.08,.15,.19,.11,.46-.08,.6-.02,.02-1.03,.78-2.51,1.13Z"/><path class="cls-18" d="M71.11,229.95c.16,.82-.3,1.61-1.05,1.76-.74,.15-1.48-.4-1.64-1.23s.3-1.61,1.05-1.76c.74-.15,1.48,.4,1.64,1.23Z"/><path class="cls-14" d="M73.65,244.64c.16,.82-.3,1.61-1.05,1.76-.74,.15-1.48-.4-1.64-1.23s.3-1.61,1.05-1.76c.74-.15,1.48,.4,1.64,1.23Z"/><path class="cls-9" d="M49.15,201l-.31,8,.31,5s21.91,10.4,28.09,.99l-1.47-9.69-4.64-5.61"/><g><path class="cls-23" d="M322.42,119.01s-7.15,12.14,3.43,20.16l4.58-16.96-8.01-3.21Z"/><path class="cls-9" d="M319.09,150.92l6.04-28.04c3.85,2.13,8.73,1.36,15.1-.35,8.03-2.15,13.9-.39,13.9-.39,0,0-4.7,5.29-2.55,11.75,1.52,4.57,5.04,7.76,6.98,9.24h0c.02-.37,.06-.74,.11-1.11,.01-.07,.02-.15,.04-.22,.07-.37,.14-.74,.25-1.12,.07-.25,.15-.49,.24-.72,.03-.08,.06-.15,.09-.22,.06-.16,.13-.32,.19-.47,.04-.08,.08-.17,.12-.25,.07-.14,.14-.28,.21-.42,.04-.08,.09-.16,.13-.24,.08-.14,.16-.28,.25-.41,.04-.07,.08-.13,.12-.2,.13-.19,.26-.37,.39-.54,.05-.07,.11-.13,.16-.19,.09-.11,.18-.21,.27-.32,.07-.08,.14-.15,.22-.23,.08-.08,.16-.16,.24-.24,.08-.08,.16-.15,.25-.22,.07-.06,.15-.13,.23-.19,.09-.07,.18-.14,.27-.21,.07-.05,.13-.09,.2-.14,.23-.16,.47-.3,.71-.43,.02,0,.04-.02,.05-.03,.12-.06,.24-.11,.35-.16,.06-.02,.12-.05,.17-.07,.12-.05,.23-.09,.35-.12,.06-.02,.12-.04,.18-.05,.12-.03,.24-.06,.36-.09,.05-.01,.11-.02,.16-.03,.13-.02,.26-.04,.39-.06h0c.58-.05,1.17-.01,1.74,.15,3.22,.93,4.83,5.15,3.6,9.44s-4.85,7.01-8.07,6.08c-.36-.1-.69-.25-1.01-.43-1.08,3.77-2.19,6.99-3.21,8.78-3.92,6.85-23.59,10.67-32.79,6.75-9.2-3.92-6.46-14.29-6.46-14.29Z"/><path class="cls-23" d="M336.32,97.96c18.79-2.06,28.88,17.91,28.88,17.91,0,0,2.94-.59,7.05,2.64s0,11.45,0,11.45l-3.48,5.55c-.5-.42-1.08-.74-1.72-.93-3.22-.93-6.83,1.8-8.07,6.08-.24,.83-.37,1.65-.4,2.45-1.94-1.48-5.46-4.67-6.98-9.24-2.15-6.46,2.55-11.75,2.55-11.75,0,0-5.87-1.76-13.9,.39-8.03,2.15-13.7,2.84-17.91-1.93-4.21-4.77-4.8-20.58,14-22.64Z"/><line class="cls-1" x1="361.47" y1="144.12" x2="367.44" y2="138.59"/><line class="cls-1" x1="364.46" y1="141.72" x2="366.56" y2="143.12"/><path class="cls-1" d="M331.21,132.29s-.57,4.44-2.13,7.83c-1.57,3.39-4.14,4.96-2.7,7.31,1.44,2.35,6.2,2.22,6.2,2.22"/><path class="cls-11" d="M341.99,150.56l-9.89,2.22s1.08,4.84,6.76,3.78c4.21-.78,3.13-6,3.13-6Z"/><path class="cls-23" d="M338.4,134.83c0,.83,.53,1.5,1.17,1.5s1.17-.67,1.17-1.5c0-.83-.53-1.5-1.17-1.5s-1.17,.67-1.17,1.5Z"/><ellipse class="cls-23" cx="327.12" cy="134.28" rx="1.17" ry="1.5"/><path class="cls-23" d="M346.53,130.59c-.39-.9-1.01-1.54-1.69-2.05-.68-.53-1.47-.89-2.29-1.13-.82-.24-1.71-.31-2.58-.2-.87,.09-1.75,.41-2.48,1.03l-.03,.03s-.03,.07,0,.1c.02,.02,.04,.03,.06,.03,.78-.04,1.56-.04,2.34,.06,.77,.1,1.54,.24,2.29,.47,.75,.2,1.49,.46,2.21,.76,.72,.31,1.43,.65,2.1,1.04,.03,.02,.08,0,.1-.03,.01-.02,.01-.04,0-.06l-.02-.04Z"/><path class="cls-23" d="M330.44,128.62c-.44-.66-1-1.02-1.58-1.24-.59-.24-1.21-.31-1.83-.25-.62,.06-1.24,.26-1.78,.63-.54,.35-1.02,.89-1.24,1.62l-.02,.06s0,.07,.05,.08c.02,0,.03,0,.05,0,.49-.22,.99-.43,1.51-.57,.52-.13,1.05-.23,1.59-.27,.53-.06,1.07-.08,1.61-.06,.54,.03,1.08,.07,1.61,.15,.04,0,.07-.02,.08-.06,0-.02,0-.03-.01-.05l-.03-.05Z"/></g><g><rect class="cls-21" x="59.53" y="81.37" width="82.02" height="24.28" rx="2.18" ry="2.18"/><rect class="cls-29" x="80.13" y="59.8" width="13.48" height="34.54"/><rect class="cls-20" x="97.17" y="52.6" width="13.48" height="41.74"/><rect class="cls-5" x="115.89" y="44.88" width="13.48" height="49.46"/><line class="cls-3" x1="69.64" y1="94.33" x2="129.38" y2="94.33"/></g><path class="cls-20" d="M76.02,204.7s17.32,7.92,17.86,9.39,15.79,7.54,19.3,17.64c3.51,10.1,.8,42.69,4.82,49.01,4.02,6.32,33.95-23.22,33.95-23.22,0,0,3.99,11.43,4.32,14.5,.33,3.07-49.34,19.38-49.34,19.38"/><path class="cls-25" d="M117.6,291.19h43.44c2.78,0,4.84-2.59,4.21-5.3l-13.77-59.63c-.45-1.96-2.2-3.35-4.21-3.35h-43.44c-2.78,0-4.84,2.59-4.21,5.3l13.77,59.63c.45,1.96,2.2,3.35,4.21,3.35Z"/><path class="cls-11" d="M119.28,287.34h38.54c2.47,0,4.29-2.3,3.74-4.7l-12.21-52.9c-.4-1.74-1.95-2.97-3.74-2.97h-38.54c-2.47,0-4.29,2.3-3.74,4.7l12.21,52.9c.4,1.74,1.95,2.97,3.74,2.97Z"/><path class="cls-9" d="M155.7,244.47l6.72,29.1s7.11-23.92-6.72-29.1Z"/><path class="cls-9" d="M155.7,244.47s-4.85,4.96-4.3,9,1.47-.1,3.13,5.07c1.22,3.79,5.4,4.87,7.4,1.8"/><path class="cls-20" d="M39.58,219.32c10.25,13.19,12.21,58.85,18.6,63.82,2.43,1.89,6.07,3.1,14.64,3.67,3.85,.26,6.63,2.96,6.76,2.99,4.87,1.11,7.17,1.1,9.5,1.69,9.35,2.37-1.19,11.76-1.19,11.76,0,0-35.98,16.84-50.04,2.44-23.47-24.02-23.46-61.42-21.79-75.62,1.14-9.7,11.7-25.98,23.52-10.77Z"/><path class="cls-27" d="M397.8,312.85H15.07v-3.67c0-2.84,2.3-5.14,5.14-5.14H397.8v8.81Z"/><path class="cls-9" d="M83.37,289.34l15.15-11.74s4.08-7.23,5.06-7.77c.99-.54,4.87-4.04,4.87-4.04,0,0,2.63-4.3,3.05-3.66,.86,1.29,.75,3.86-.29,5.42-.87,1.3-3.56,2.32-3.29,4.22,.03,.2,3.87,.42,7.98-.06,5.71-.66,11.61-2.78,12.95-.6,.46,.75-11.63,3.95-11.63,3.95,0,0-.29,.65,.41,.7,.7,.05,11.54-2.87,14-.04,.49,.56-11.61,3.14-12.7,3.3,.96-.29,10.42-2.53,11.09-.23,.21,.73-11.83,3.75-11.18,3.6,.38-.09-1.05-.32,.1-.53,2.35-.44,7.79-1.63,7.96,0,.08,.79-10.73,2.98-10.73,2.98l-11.86,1.8-23.89,17.96,2.96-15.24Z"/><g><path class="cls-20" d="M43.27,257.22c6.53-1.28,14.19,25.13,21.56,32.58,.44,.45,17.37,.4,26.53-7.11,4.03,6.08,6.63,10.96,6.3,11.58-6.97,10.38-34.56,16.67-42.2,18.5-17.26,.19-33.22-28.67-33.47-33.27-.16-2.91,17.12-21.47,21.28-22.28Z"/><path class="cls-20" d="M50.92,309.16s.07-.02,.09-.05c.03-.05,.02-.11-.03-.14-1.38-.88-7.91-8.68-10.17-12.62-3.55-6.22-5.85-12.11-6.82-17.5-.83-4.63-.68-8.78,.45-12.33,1.2-3.76,3.54-6.68,6.41-8.01,.05-.02,.07-.08,.05-.14-.02-.05-.08-.07-.14-.05-2.93,1.36-5.3,4.32-6.52,8.13-1.14,3.58-1.3,7.76-.46,12.43,.97,5.41,3.28,11.32,6.84,17.56,2.26,3.96,8.84,11.81,10.24,12.7,.02,.01,.04,.02,.05,.02Z"/><path class="cls-20" d="M70.01,292.99s.06-.01,.08-.03c.04-.04,.03-.11,0-.14-.12-.1-2.83-2.57-3.6-2.96-.05-.03-.11,0-.14,.05-.03,.05,0,.11,.05,.14,.75,.37,3.53,2.9,3.56,2.92,.02,.02,.04,.03,.07,.03Z"/></g><path class="cls-26" d="M78.21,287.61c-.46-.37-3.37-.68-6.45-1-5.28-.56-11.84-1.25-13.86-2.82-.41-.32-.3-.81-.18-1.33,.12-.54,.26-1.16-.08-1.78-.16-.29-.75-.59-1.32-.88-.77-.39-1.56-.8-1.82-1.37-1.95-4.32-4.1-10.52-6.37-17.08-4.76-13.72-10.16-29.27-16.62-37.18-.06-.08-.05-.19,.03-.26,.08-.06,.19-.05,.26,.03,6.5,7.96,11.91,23.55,16.68,37.3,2.27,6.55,4.42,12.74,6.36,17.05,.21,.46,.97,.85,1.65,1.19,.65,.33,1.25,.64,1.47,1.03,.41,.74,.25,1.46,.12,2.04-.11,.5-.17,.8,.05,.96,1.94,1.51,8.72,2.22,13.68,2.74,3.89,.41,6.12,.66,6.64,1.08"/><path class="cls-26" d="M45.27,286.63s-.09-.02-.13-.06c-.07-.07-.07-.19,0-.26,.05-.05,4.76-4.55,12.24-2.42,.1,.03,.15,.13,.13,.23-.03,.1-.13,.15-.23,.13-7.26-2.07-11.84,2.28-11.88,2.33-.04,.03-.08,.05-.13,.05Z"/></g></g></svg>