<?xml version="1.0" encoding="UTF-8"?><svg id="_圖層_2" xmlns="http://www.w3.org/2000/svg" xmlns:xlink="http://www.w3.org/1999/xlink" viewBox="0 0 1609.9 392.89"><defs><style>.cls-aa,.cls-bb,.cls-cc,.cls-dd,.cls-ee,.cls-ff,.cls-gg,.cls-hh,.cls-ii,.cls-jj,.cls-kk,.cls-ll,.cls-mm,.cls-nn,.cls-oo,.cls-pp,.cls-qq,.cls-rr,.cls-ss,.cls-tt,.cls-uu,.cls-vv,.cls-ww,.cls-xx,.cls-yy{fill:none;}.cls-zz{clip-path:url(#clippath);}.cls-bb{stroke:url(#_未命名漸層_101-6);}.cls-bb,.cls-cc,.cls-dd,.cls-ee,.cls-ff,.cls-gg,.cls-hh,.cls-ii,.cls-jj,.cls-kk,.cls-ll,.cls-mm,.cls-nn,.cls-oo,.cls-pp,.cls-qq,.cls-rr,.cls-ss,.cls-tt,.cls-uu,.cls-vv,.cls-ww,.cls-xx,.cls-yy{stroke-linecap:round;stroke-linejoin:round;stroke-width:.75px;}.cls-cc{stroke:url(#_未命名漸層_101-9);}.cls-dd{stroke:url(#_未命名漸層_101-4);}.cls-ee{stroke:url(#_未命名漸層_101-5);}.cls-ff{stroke:url(#_未命名漸層_101-3);}.cls-gg{stroke:url(#_未命名漸層_101-7);}.cls-hh{stroke:url(#_未命名漸層_101-8);}.cls-ii{stroke:url(#_未命名漸層_101-2);}.cls-jj{stroke:url(#_未命名漸層_101);}.cls-kk{stroke:url(#_未命名漸層_101-11);}.cls-ll{stroke:url(#_未命名漸層_101-18);}.cls-mm{stroke:url(#_未命名漸層_101-15);}.cls-nn{stroke:url(#_未命名漸層_101-16);}.cls-oo{stroke:url(#_未命名漸層_101-13);}.cls-pp{stroke:url(#_未命名漸層_101-14);}.cls-qq{stroke:url(#_未命名漸層_101-12);}.cls-rr{stroke:url(#_未命名漸層_101-23);}.cls-ss{stroke:url(#_未命名漸層_101-24);}.cls-tt{stroke:url(#_未命名漸層_101-22);}.cls-uu{stroke:url(#_未命名漸層_101-21);}.cls-vv{stroke:url(#_未命名漸層_101-20);}.cls-ww{stroke:url(#_未命名漸層_101-17);}.cls-xx{stroke:url(#_未命名漸層_101-19);}.cls-yy{stroke:url(#_未命名漸層_101-10);}</style><clipPath id="clippath"><rect class="cls-aa" x="0" width="1609.9" height="392.89"/></clipPath><linearGradient id="_未命名漸層_101" x1="-287.13" y1="216.32" x2="2750.22" y2="216.32" gradientUnits="userSpaceOnUse"><stop offset=".14" stop-color="#fff4e1"/><stop offset=".36" stop-color="#fff3dd"/><stop offset=".76" stop-color="#93d2ba"/></linearGradient><linearGradient id="_未命名漸層_101-2" x1="-301.39" y1="218.49" x2="2739.3" y2="218.49" xlink:href="#_未命名漸層_101"/><linearGradient id="_未命名漸層_101-3" x1="-315.65" y1="220.61" x2="2728.39" y2="220.61" xlink:href="#_未命名漸層_101"/><linearGradient id="_未命名漸層_101-4" x1="-329.91" y1="222.57" x2="2717.48" y2="222.57" xlink:href="#_未命名漸層_101"/><linearGradient id="_未命名漸層_101-5" x1="-97.3" y1="169.47" x2="2706.56" y2="169.47" xlink:href="#_未命名漸層_101"/><linearGradient id="_未命名漸層_101-6" x1="-84.69" y1="168.93" x2="2695.65" y2="168.93" xlink:href="#_未命名漸層_101"/><linearGradient id="_未命名漸層_101-7" x1="-83.6" y1="168.76" x2="2684.73" y2="168.76" xlink:href="#_未命名漸層_101"/><linearGradient id="_未命名漸層_101-8" x1="-83.39" y1="168.94" x2="2673.82" y2="168.94" xlink:href="#_未命名漸層_101"/><linearGradient id="_未命名漸層_101-9" x1="-83.64" y1="170.29" x2="2662.9" y2="170.29" xlink:href="#_未命名漸層_101"/><linearGradient id="_未命名漸層_101-10" x1="-83.41" y1="175.56" x2="2651.99" y2="175.56" xlink:href="#_未命名漸層_101"/><linearGradient id="_未命名漸層_101-11" x1="-83.75" y1="183.14" x2="2641.07" y2="183.14" xlink:href="#_未命名漸層_101"/><linearGradient id="_未命名漸層_101-12" x1="-83.65" y1="190.13" x2="2630.16" y2="190.13" xlink:href="#_未命名漸層_101"/><linearGradient id="_未命名漸層_101-13" x1="-83.66" y1="196.7" x2="2619.25" y2="196.7" xlink:href="#_未命名漸層_101"/><linearGradient id="_未命名漸層_101-14" x1="-83.23" y1="201.7" x2="2608.33" y2="201.7" xlink:href="#_未命名漸層_101"/><linearGradient id="_未命名漸層_101-15" x1="-83.16" y1="206.55" x2="2597.42" y2="206.55" xlink:href="#_未命名漸層_101"/><linearGradient id="_未命名漸層_101-16" x1="-83.59" y1="209.9" x2="2586.5" y2="209.9" xlink:href="#_未命名漸層_101"/><linearGradient id="_未命名漸層_101-17" x1="-83.44" y1="210.44" x2="2575.59" y2="210.44" xlink:href="#_未命名漸層_101"/><linearGradient id="_未命名漸層_101-18" x1="-83.17" y1="210.61" x2="2564.67" y2="210.61" xlink:href="#_未命名漸層_101"/><linearGradient id="_未命名漸層_101-19" x1="-83.3" y1="210.85" x2="2553.76" y2="210.85" xlink:href="#_未命名漸層_101"/><linearGradient id="_未命名漸層_101-20" x1="-83.5" y1="211.05" x2="2542.84" y2="211.05" xlink:href="#_未命名漸層_101"/><linearGradient id="_未命名漸層_101-21" x1="-83.43" y1="211.32" x2="2531.93" y2="211.32" xlink:href="#_未命名漸層_101"/><linearGradient id="_未命名漸層_101-22" x1="-83.72" y1="211.43" x2="2521.02" y2="211.43" xlink:href="#_未命名漸層_101"/><linearGradient id="_未命名漸層_101-23" x1="-83.44" y1="211.63" x2="2510.1" y2="211.63" xlink:href="#_未命名漸層_101"/><linearGradient id="_未命名漸層_101-24" x1="-83.73" y1="211.92" x2="2499.19" y2="211.92" xlink:href="#_未命名漸層_101"/></defs><g id="_圖層_1-2"><g class="cls-zz"><g><path class="cls-jj" d="M-286.75,415.95C-177.35,222.98-2.61,143.67,163.89,142.29c166.5-1.37,329.57,64.99,492.43,118.23,162.86,53.24,332.16,93.61,495.02,40.43,175.95-57.45,332.33-220.41,509.46-268.52,364.09-98.9,721.73,303.11,1089.04,238.11"/><path class="cls-ii" d="M2738.93,258.79c-264.9,56.69-528.14-129.82-791.69-203.65-98.27-27.53-196.56-39.25-295.28-15.71-149.98,35.32-285.71,148.83-430.96,217.19-26.58,12.5-53.46,23.5-80.78,32.18-162.83,51.91-331.59,17.47-494.17-29.44-162.78-46.79-325.74-106.32-492.16-104.86-36.05,.32-72.48,3.93-108.58,11.13-131.31,26.01-257.87,98.78-346.32,244.54"/><path class="cls-ff" d="M2728.01,247.05c-262.3,66.06-526.43-106.65-790.07-180.11-98.22-27.37-196.27-40.44-294.82-20.5-150.14,30.38-286.77,134.24-432.83,199.26-26.75,11.89-53.76,22.47-81.2,30.97-162.79,50.64-331.02,22.14-493.31-18.45-162.7-40.35-325.55-93.05-491.89-91.49-36.1,.34-72.58,3.62-108.75,10.09-132.03,23.22-259.25,87.33-350.41,227.6"/><path class="cls-dd" d="M2717.1,235.3c-259.71,75.42-524.71-83.47-788.46-156.57-98.17-27.22-196.03-41.77-294.37-25.28-150.36,25.21-287.83,119.65-434.69,181.33-26.91,11.28-54.07,21.45-81.61,29.75-162.76,49.37-330.44,26.81-492.46-7.45-162.62-33.91-325.36-79.77-491.63-78.12-36.16,.36-72.68,3.31-108.92,9.04-132.75,20.43-260.63,75.89-354.5,210.67"/><path class="cls-ee" d="M2706.19,223.55c-163.56,54.9-337.56,13.9-498.56-39.1-105-35-204-73-313-100-47-12-92-22-139-26s-93-4-141,3c-60,10-115,28-171,50-149,62-287,145-450,165-122,15-238,3-360-17-247-42-490-108-730.55-36.89"/><path class="cls-bb" d="M2695.27,211.8c-11.65,4.65-23.65,8.65-36.65,11.65-1,0-3,2-4,2-60,15-118,21-178,19-84-4-164-22-247-44-5-2-9-3-14-5l-24-6c-135-40-258-89-398-113-58-11-114-16-172-9h-10c-3,1-6,2-9,2-24,2-47,6-71,13-8,2-15,3-23,5-1,1-3,2-4,2-106,29-199,75-300,114-41,15-80,30-123,41-19,5-37,10-57,13-14,2-28,5-42,7-52,7-103,10-155,9-69-1-136-7-206-16-117-16-228-35-345-47-8,0-16-1-24-2h-10c-5-1-9-1-14-2l-63-3c-55-1-110,1-166,7-3,1-6,2-9,2-25,2-50,7-74.94,12.18"/><path class="cls-gg" d="M2684.36,200.05c-1.73,.4-2.73,.4-4.73,1.4-22,9-44,16-68,22-1,0-3,2-4,2-171,40-333-1-496-49-83-25-161-49-246-72-65-17-128-28-193-31-124-5-242,32-358,74-6,3-13,5-19,8-111,41-219,84-338,99-100,13-198,12-298,5-248-19-496-70-742.85-28.29"/><path class="cls-hh" d="M2673.44,188.3c-5.82,2.15-11.82,5.15-17.82,8.15-90,36-188,47-285,40-180-15-343-77-521-121-51-13-100-25-152-29-3,0-7-2-10-2-72-7-140-3-213,11-61,13-115,29-173,47-14,5-28,10-42,14-6,2-12,4-18,7-5,1-10,3-15,4-6,3-12,5-18,7-5,1-10,3-15,4-3,1-6,3-9,4-19,6-37,12-56,18-29,9-57,16-87,24-58,14-113,22-171,27-68,5-135,6-202,5-58-2-115-6-173-10-83-6-165-10-248-16-32-2-63-2-95-3-79-2-158,3-235.64,11.37"/><path class="cls-cc" d="M2662.53,176.55c-10.9,4.9-22.9,10.9-33.9,15.9-2,1-3,0-5,1-95,41-199,49-301,41-163-14-313-63-473-106-7-2-13-2-20-4-1,0-3-2-4-2-74-17-144-31-218-34-38-1-74,2-112,5-3,0-6,2-9,2-36,4-69,10-105,18-111,27-211,61-320,91-9,2-18,4-28,6-1,0-3,2-4,2-295,67-579,30-869,27-81-1-163,2-243.89,7.89"/><path class="cls-yy" d="M2651.61,164.81c-36.99,20.65-76.99,35.65-118.99,47.65-1,0-3,2-4,2-32,7-62,15-94,17-3,0-6,1-9,2h-10c-50,5-98,4-148-1h-10c-21-3-42-5-63-8-20-3-38-7-58-10-30-5-57-13-88-19-1,0-3-2-4-2-9-2-17-3-25-5-127-33-244-70-374-88-53-7-104-7-157-4-11,1-23,2-34,3-69,7-133,22-202,39-86,21-163,45-249,65-56,13-107,20-163,28-46,6-91,9-137,13l-54,3c-41,2-82,3-123,4-27,1-53,0-80,0-177,2-353-3-529.66,5.13"/><path class="cls-kk" d="M2640.7,153.06c-110.07,65.4-239.07,89.4-366.07,84.4-46-2-91-6-138-14-35-6-66-12-101-19-1,0-3-2-4-2-15-3-29-6-44-9-105-26-199-54-307-76-26-5-49-8-74-12-20-2-39-4-59-5-13-1-27,0-40,0-31-2-61,1-92,3-122,12-237,40-357,72-186,48-368,67-555,77-196,10-391,12-587,14.04"/><path class="cls-qq" d="M2629.78,141.31c-44.16,29.14-92.16,50.14-143.16,67.14-40,13-79,21-121,26-89,11-174,5-263-7-5-1-9-2-14-3-40-6-77-14-118-22-1,0-3-2-4-2-12-2-22-4-34-7-131-32-252-73-384-86h-10c-59-6-117-5-176-1-52,4-102,12-155,21-87,16-164,38-252,57-355,75-691,94-1038.91,92.52"/><path class="cls-oo" d="M2618.87,129.56c-9.24,5.89-17.24,11.89-27.24,16.89l-3,3c-29,17-58,30-88,44-2,1-3,0-5,1-20,9-41,14-62,22l-15,3c-1,0-3,2-4,2-73,17-144,24-217,22-18-1-37-1-55-3-17-2-33-3-50-5-27-4-52-7-79-12-24-5-46-8-70-15-17-4-34-6-51-11-9-3-19-4-28-7-1-1-3-2-4-2-6-2-13-3-19-5l-15-3c-103-29-201-56-307-69-168-19-334,2-496,43-190,42-377,79-573,104-5,0-10,1-15,1-175,23-346,33-518.91,28.51"/><path class="cls-pp" d="M2607.96,117.81c-4.33,4.64-9.33,6.64-14.33,10.64-8,5-15,10-23,15-29,17-56,33-87,46-22,9-44,17-66,25-3,1-7,1-10,2-71,23-144,31-217,32-48,0-95-3-143-9-70-10-135-22-203-41-6-2-13-2-19-4-59-17-115-32-174-48-41-11-79-18-121-26-158-28-304-23-462,10l-15,3c-16,2-31,4-46,10C648.63,219.45,287.63,315.45-82.85,299.39"/><path class="cls-mm" d="M2597.04,106.06c-78.42,61.39-166.42,103.39-266.42,127.39-92,21-180,25-272,16h-10c-65-7-127-17-192-34-12-3-24-5-36-8-13-4-24-7-37-11-73-20-140-40-214-59-67-16-130-27-197-33h-10c-5-1-9-1-14-2-25-2-49-2-74-3-57,0-112,3-169,11-5,1-9,3-14,3-8,0-15,2-23,4-40,5-78,14-118,23-40,10-77,17-116,28-13,3-25,5-38,8-27,8-52,12-79,20-11,3-22,4-33,7-31,9-61,14-92,23-22,5-43,9-65,14-1,0-3,2-4,2-206,46-402,81-606.41,68.7"/><path class="cls-nn" d="M2586.13,94.31c-22.5,18.14-44.5,35.14-70.5,51.14-3,2-5,4-8,6-29,17-57,33-87,46-12,5-25,10-37,15-14,5-27,9-41,14-17,6-34,9-52,14-34,8-66,12-100,16-58,6-116,5-174-1h-10c-18-3-36-4-54-7-23-4-44-8-68-12-30-7-58-13-87-21-20-6-40-11-60-17-121-37-235-74-361-91-5-1-9-2-14-3-116-15-226-15-343,7-182,36-343,85-520,133-6,2-12,3-19,4-1,0-3,2-4,2-6,2-13,2-19,4-142,37-279,66-423,71-39,1-79,0-117.84-2.28"/><path class="cls-ww" d="M2575.21,82.57c-45.59,39.89-94.59,73.89-149.59,102.89-18,9-36,17-54,25-30,12-60,22-92,31-10,3-18,4-28,6-71,17-139,23-210,20-73-3-144-13-217-31-4-1-9-2-13-4-6-2-13-2-19-4-78-22-151-46-228-71-3-1-7-1-10-2-9-4-18-6-27-9-11-3-21-6-32-9-115-31-229-53-346-51-20,1-40,1-60,3-23,2-44,5-67,8-37,6-72,14-109,22-6,2-12,3-18,5-9,3-19,4-28,6-32,9-62,16-93,25-42,13-82,24-124,38-3,1-7,1-10,2-87,27-169,54-257,79-5,1-9,2-14,3-14,4-27,8-42,11-1,0-3,1-4,2-11,3-21,5-32,7-126,31-249,48-374.69,38"/><path class="cls-ll" d="M2564.3,70.82c-80.67,74.64-175.67,132.64-281.67,167.64-105,33-213,44-322,33h-10c-165-17-313-81-471-130-17-5-33-10-50-15-5-1-9-2-14-3-27-8-53-14-81-20l-9-3c-18-4-36-6-54-9-17-3-33-6-50-7-3,0-7-2-10-2h-9c-168-20-326,27-485,77l-18,6c-83,29-164,58-247,86-11,3-22,7-33,11-12,4-24,7-36,12-3,1-7,1-10,2-19,8-39,12-59,19-3,1-7,1-10,2-128,37-256,61-387.42,50.47"/><path class="cls-xx" d="M2553.38,59.07c-20.76,18.38-38.76,36.38-60.76,54.38-15,12-28,22-44,33-26,18-50,32-77,48-25,14-49,25-75,35-33,12-65,25-101,32-1,0-3,2-4,2-49,11-96,18-145,20-34,1-67,1-101-2-17-2-34-3-52-6h-10c-103-16-197-48-293-84-158-59-316-119-485-122-69-2-136,5-204,23-1,0-3,2-4,2-51,10-96,25-144,41l-18,6c-43,13-84,29-126,44-6,2-12,6-18,8-9,2-16,6-24,9-8,2-15,6-23,8-10,4-19,8-29,12-48,18-95,36-144,54-8,3-15,7-23,10-3,1-6,1-9,2-137,48-279,83-422.55,72.21"/><path class="cls-vv" d="M2542.47,47.32c-17.84,15.13-31.84,33.13-50.84,48.13-1,1-2,3-3,4-66,58-138,103-218,137-2,1-3,0-5,1-85,36-175,53-266,56-111,3-219-19-324-57-20-8-40-14-60-22-2-1-4-3-7-4-11-3-21-7-32-11-105-40-204-84-315-112-1,0-3-2-4-2-40-8-76-18-116-21-3,0-7-2-10-2h-9c-55-7-108-3-163,4-35,5-66,14-101,21-1,0-3,2-4,2-166,44-312,116-467,181-58,24-114,45-174,64-3,1-7,1-10,2-94,29-190,43-286.75,36.93"/><path class="cls-uu" d="M2531.56,35.57c-73.93,80.88-160.93,147.88-260.93,195.88-62,29-124,49-192,61-100,17-193,14-292-9-113-27-212-73-316-117-43-17-84-36-128-51-4-2-9-4-13-6-111-40-226-71-346-58h-10c-3,0-6,2-9,2-36,3-69,11-105,20-50,11-95,27-142,46-88,34-172,73-257,114-11,5-21,9-32,14-1,1-3,2-4,3-17,7-34,15-51,22-1,1-3,2-4,3-27,13-55,23-82,35-18,7-36,14-55,21-102,35-208,62-315.68,54.3"/><path class="cls-tt" d="M2520.64,23.82c-79.02,91.63-174.02,166.63-284.02,219.63-40,19-79,33-122,45-24,6-46,10-70,15-32,6-62,7-93,9-44,2-87-2-131-9-34-6-66-13-99-24-3-1-7-1-10-2-22-8-43-15-65-23-39-16-77-32-116-49-5-2-8-5-13-7-11-4-22-9-33-14-91-43-180-84-277-115-3-1-7-1-10-2-12-5-24-7-37-10-1,0-3-2-4-2-40-9-78-15-117-17-58-2-114,3-171,17-11,3-21,5-32,8-22,6-42,13-64,20-14,5-27,10-41,15-26,10-51,22-77,33-92,40-178,87-269,132-38,20-76,37-115,55-24,10-48,20-72,29-35,13-69,24-106,32-1,0-3,2-4,2-30,7-58,11-88,15H-8.37c-25,3-50,3-74.97,1.93"/><path class="cls-rr" d="M2509.73,12.07c-81.1,97.38-178.1,181.38-294.1,237.38-9,4-18,9-27,13-20,8-39,16-59,23-15,5-30,9-45,13-28,8-55,14-84,18-101,14-198,4-294-26-33-11-64-22-96-36-51-23-101-46-151-71-129-65-254-131-399-152-74-10-146-4-218,16-6,1-12,2-18,4-1,1-3,1-4,2-170,49-311,142-466,223-36,18-70,36-106,53-28,12-55,24-83,35-31,11-60,21-92,28-1,0-3,2-4,2-52,12-101,18-152.69,16.52"/><path class="cls-ss" d="M2498.81,.33c-44.19,55.13-91.19,105.13-147.19,151.13-1,1-2,3-3,4-10,7-17,14-27,21-32,24-62,43-96,64-21,12-42,22-63,32-2,1-3,0-5,1-121,56-251,75-386,47-165-33-294-118-438-193-69-36-136-67-211-89-59-17-118-25-179-22-71,4-138,23-204,49-15,6-30,11-45,18-26,12-51,24-76,37-17,10-33,17-50,28-4,2-9,4-13,6-64,36-121,72-185,108l-24,15c-3,2-6,2-9,4-57,33-112,61-171,87-19,8-38,15-58,22-17,6-33,10-50,15-47,12-94,19-141.98,17.95"/></g></g></g></svg>