<?xml version="1.0" encoding="UTF-8"?><svg id="_圖層_2" xmlns="http://www.w3.org/2000/svg" xmlns:xlink="http://www.w3.org/1999/xlink" viewBox="0 0 371.25 106.12"><defs><style>.cls-1{stroke:url(#_未命名漸層_5);stroke-linecap:round;stroke-linejoin:round;}.cls-1,.cls-2{fill:#fff;}.cls-3{fill:#00c08b;}.cls-4{fill:#efb625;}.cls-5{fill:#ec8b19;}.cls-6{fill:#699c99;}.cls-7{fill:#d74747;}.cls-8{fill:#2091cf;}.cls-9{fill:#098d85;}.cls-10{fill:#0c9280;}.cls-11{fill:none;stroke:#098d85;stroke-width:.49px;}</style><linearGradient id="_未命名漸層_5" x1="0" y1="53.06" x2="371.25" y2="53.06" gradientUnits="userSpaceOnUse"><stop offset=".14" stop-color="#ffe169"/><stop offset=".76" stop-color="#93d2ba"/></linearGradient></defs><g id="_圖層_1-2"><g><rect class="cls-1" x=".5" y=".5" width="370.25" height="105.12" rx="12" ry="12"/><g><path d="M126.38,45.62v1.62h-16.08v-1.62h6.99v-5.35h-5.35v-1.64h5.35v-4.47h-6.16v-1.64h14.4v1.64h-6.43v4.47h5.69v1.64h-5.69v5.35h7.27Zm-4.66-4.79c1.04,.99,2.49,2.34,3.21,3.19l-1.24,1.12c-.68-.86-2.12-2.29-3.17-3.33l1.21-.97Z"/><path d="M143.45,35.12v12.75h-1.73v-1.3h-12.5v-11.4h1.73v9.69h4.47v-13.29h1.76v13.29h4.54v-9.74h1.73Z"/><path d="M153.02,44.43l.14,1.4c-2.29,.56-4.72,1.17-6.55,1.6l-.41-1.62c.79-.14,1.78-.34,2.88-.56v-4.77h-2.61v-1.46h2.61v-1.69h-1.67v-.81c-.25,.22-.5,.43-.74,.59-.11-.34-.5-1.21-.72-1.6,1.44-.97,2.95-2.52,3.84-4.14l1.39,.52c-.11,.18-.22,.4-.34,.59,1.06,.81,2.14,1.76,2.79,2.47l-1.01,1.19c-.63-.68-1.64-1.64-2.57-2.45-.59,.79-1.26,1.55-1.95,2.21h4.18v1.42h-1.73v1.69h2.43v1.46h-2.43v4.46l2.48-.52Zm-5.06-3.17c.34,1.03,.67,2.34,.77,3.22l-1.21,.34c-.07-.88-.4-2.25-.7-3.29l1.13-.27Zm2.88,2.9c.27-.86,.61-2.21,.77-3.15l1.26,.36c-.34,1.04-.72,2.3-1.04,3.12l-.99-.32Zm11.61-2.45c-.79,.65-1.78,1.35-2.63,1.87,.77,1.17,1.73,2.12,2.9,2.7-.4,.32-.9,.97-1.15,1.42-2.43-1.42-3.87-4.2-4.72-7.56h-1.26v5.44l2.7-.74c0,.45,.07,1.1,.14,1.48-3.66,1.12-4.25,1.35-4.61,1.64-.09-.4-.34-1.1-.58-1.44,.34-.14,.72-.43,.72-1.1v-13.25h7.85v7.98h-3.51c.23,.77,.5,1.51,.83,2.21,.77-.54,1.66-1.24,2.23-1.8l1.08,1.15Zm-6.86-8.1v1.84h4.61v-1.84h-4.61Zm0,5.08h4.61v-1.87h-4.61v1.87Z"/><path d="M170.36,35.82c-.56,.92-1.22,1.85-1.96,2.75v9.38h-1.67v-7.53c-.59,.59-1.21,1.15-1.78,1.62-.22-.36-.81-1.1-1.15-1.42,1.84-1.31,3.78-3.37,4.99-5.4l1.58,.59Zm-.68-3.78c-1.22,1.6-3.1,3.38-4.75,4.55-.2-.38-.65-1.03-.95-1.35,1.49-.97,3.22-2.58,4.1-3.87l1.6,.67Zm10.8,6.91h-2.59v6.93c0,.95-.22,1.44-.9,1.71-.67,.25-1.73,.27-3.4,.27-.07-.49-.31-1.19-.54-1.67,1.15,.04,2.36,.04,2.68,.02,.34,0,.45-.09,.45-.34v-6.91h-5.69v-1.6h9.99v1.6Zm-.5-4.92h-8.73v-1.6h8.73v1.6Z"/><path d="M116.18,58.65v.07c-1.53,1.29-2.77,3.61-2.77,6.46s1.25,5.17,2.77,6.46v.07h-4.2v-13.06h4.2Z"/><path d="M121.44,68.68c-1.5,.5-3.1,1.05-4.34,1.46l-.24-1.05c.52-.15,1.16-.35,1.88-.59v-3.77h-1.6v-.98h1.6v-3.04h-1.74v-.98h4.34v.98h-1.61v3.04h1.42v.98h-1.42v3.46l1.53-.5,.18,.99Zm8.36,1.49v.95h-9.02v-.95h4.26v-1.92h-3.18v-.95h3.18v-1.64h-3.01v-6.23h7.12v6.23h-3.05v1.64h3.26v.95h-3.26v1.92h3.71Zm-6.82-8.07h2.13v-1.77h-2.13v1.77Zm0,2.65h2.13v-1.79h-2.13v1.79Zm5.17-4.41h-2.14v1.77h2.14v-1.77Zm0,2.62h-2.14v1.79h2.14v-1.79Z"/><path d="M133.54,68.61c-.43,1.12-1.15,2.25-1.86,2.97-.18-.17-.6-.48-.84-.62,.71-.64,1.34-1.61,1.71-2.61l.99,.25Zm2.93-.56h-4.89v-8.73h4.89v8.73Zm-1.01-7.86h-2.9v1.76h2.9v-1.76Zm0,2.59h-2.9v1.78h2.9v-1.78Zm0,2.61h-2.9v1.82h2.9v-1.82Zm-.11,2.97c.6,.69,1.23,1.61,1.53,2.23l-.88,.46c-.29-.63-.91-1.6-1.47-2.3l.83-.39Zm8.39-5.29h-1.79v7.2c0,.62-.15,.92-.55,1.11-.39,.17-1.04,.21-2.1,.21-.04-.28-.21-.74-.36-1.01,.79,.01,1.47,.01,1.68,0,.22,0,.31-.07,.31-.31v-5.86c-.94,2.03-2.25,3.87-3.61,4.96-.18-.25-.49-.6-.71-.77,1.57-1.11,3.07-3.32,3.95-5.53h-3.64v-.97h4.02v-3.26h1.02v3.26h1.79v.97Z"/><path d="M144.76,65.04c.36-.91,.62-2.44,.71-3.56l.8,.1c-.08,1.13-.34,2.73-.7,3.75l-.81-.29Zm1.97-6.26h1.02v12.79h-1.02v-12.79Zm2.09,5.17c-.15-.67-.62-1.76-1.02-2.59l.73-.34c.43,.83,.91,1.91,1.08,2.55l-.78,.38Zm8.96,1.23v1h-4.54c-.36,1.99-1.37,4.01-4.02,5.46-.15-.22-.49-.6-.73-.81,2.45-1.22,3.38-2.94,3.73-4.65h-3.28v-1h3.42c.06-.6,.07-1.19,.07-1.75v-1.44h-2.73v-.98h2.73v-2.23h1.04v2.23h3.11v4.17h1.21Zm-4.31-1.75c0,.56-.01,1.15-.07,1.75h2.16v-3.19h-2.09v1.44Zm1.09,3.1c1.05,1.42,2.39,3.35,3.07,4.47l-.94,.53c-.62-1.13-1.95-3.11-2.98-4.57l.85-.43Z"/><path d="M170.85,65.95s-.01,.32-.04,.48c-.27,3.12-.55,4.33-.97,4.76-.27,.28-.53,.38-.94,.39-.35,.03-1.02,.03-1.72-.01-.01-.28-.13-.66-.28-.91,.67,.07,1.32,.07,1.57,.07,.24,0,.38-.01,.5-.15,.31-.28,.55-1.28,.77-3.68h-1.71c-.74,1.96-1.92,3.66-3.25,4.76-.18-.17-.59-.5-.84-.64,1.29-.97,2.35-2.45,3.03-4.12h-1.89c-1.02,1.81-2.61,3.38-4.2,4.4-.17-.18-.56-.56-.8-.74,1.5-.84,2.93-2.16,3.85-3.66h-1.95c-.71,.71-1.5,1.34-2.27,1.82-.17-.2-.56-.56-.81-.73,1.36-.77,2.7-1.92,3.59-3.21h-1.54v-5.35h8.95v5.35h-6.21c-.24,.41-.55,.8-.84,1.18h8Zm-8.88-4.27h6.88v-1.39h-6.88v1.39Zm0,2.21h6.88v-1.39h-6.88v1.39Z"/><path d="M176.36,65.47c-.27,1.23-.67,2.59-1.16,3.61,.28,.15,.6,.42,1.13,.73,.98,.6,2.25,.7,3.91,.7,1.81,0,4.06-.14,5.63-.29-.14,.28-.28,.77-.31,1.08-1.05,.07-3.7,.15-5.36,.15-1.83,0-3.07-.15-4.09-.77-.56-.34-1.09-.81-1.4-.81s-.78,.88-1.18,1.76l-.73-.94c.49-.7,.97-1.27,1.4-1.55,.42-.8,.79-1.91,1-2.91h-1.82c.38-.83,.83-2.02,1.21-3.12h-1.57v-.94h2.87c-.34,1.01-.79,2.19-1.15,3.15h.97l.17-.04,.49,.2Zm-1.9-4.05c-.15-.6-.48-1.57-.71-2.3l.92-.27c.25,.73,.56,1.65,.74,2.26l-.95,.31Zm3.95,8.07h-1v-7.21h4.01c-.84-.41-1.83-.85-2.67-1.16l.66-.57c.6,.2,1.29,.48,1.95,.76,.67-.29,1.36-.71,1.92-1.11h-5.84v-.83h6.84l.21-.06,.63,.49c-.74,.71-1.79,1.42-2.83,1.92,.41,.21,.79,.39,1.08,.56h1.76v6.16c0,.52-.11,.76-.48,.91-.36,.15-.95,.17-1.89,.17-.04-.27-.15-.62-.28-.87,.66,.03,1.25,.01,1.42,.01,.18,0,.24-.06,.24-.24v-1.27h-2.44v2.28h-.94v-2.28h-2.34v2.34Zm0-6.42v1.23h2.34v-1.23h-2.34Zm2.34,3.28v-1.27h-2.34v1.27h2.34Zm3.38-3.28h-2.44v1.23h2.44v-1.23Zm0,3.28v-1.27h-2.44v1.27h2.44Z"/><path d="M186.96,66.09h3.59v.98h-3.59v-.98Z"/><path d="M196.3,68.68c-1.5,.5-3.1,1.05-4.34,1.46l-.24-1.05c.52-.15,1.16-.35,1.88-.59v-3.77h-1.6v-.98h1.6v-3.04h-1.74v-.98h4.34v.98h-1.61v3.04h1.42v.98h-1.42v3.46l1.53-.5,.18,.99Zm8.36,1.49v.95h-9.02v-.95h4.26v-1.92h-3.18v-.95h3.18v-1.64h-3.01v-6.23h7.12v6.23h-3.05v1.64h3.26v.95h-3.26v1.92h3.71Zm-6.82-8.07h2.13v-1.77h-2.13v1.77Zm0,2.65h2.13v-1.79h-2.13v1.79Zm5.17-4.41h-2.14v1.77h2.14v-1.77Zm0,2.62h-2.14v1.79h2.14v-1.79Z"/><path d="M208.39,68.61c-.43,1.12-1.15,2.25-1.86,2.97-.18-.17-.6-.48-.84-.62,.71-.64,1.34-1.61,1.71-2.61l.99,.25Zm2.93-.56h-4.89v-8.73h4.89v8.73Zm-1.01-7.86h-2.9v1.76h2.9v-1.76Zm0,2.59h-2.9v1.78h2.9v-1.78Zm0,2.61h-2.9v1.82h2.9v-1.82Zm-.11,2.97c.6,.69,1.23,1.61,1.53,2.23l-.88,.46c-.29-.63-.91-1.6-1.47-2.3l.83-.39Zm8.39-5.29h-1.79v7.2c0,.62-.15,.92-.55,1.11-.39,.17-1.04,.21-2.1,.21-.04-.28-.21-.74-.36-1.01,.79,.01,1.47,.01,1.68,0,.22,0,.31-.07,.31-.31v-5.86c-.94,2.03-2.25,3.87-3.61,4.96-.18-.25-.49-.6-.71-.77,1.57-1.11,3.07-3.32,3.95-5.53h-3.64v-.97h4.02v-3.26h1.02v3.26h1.79v.97Z"/><path d="M232.3,60.29v.9h-12.21v-.9h5.79c-.14-.42-.32-.92-.49-1.32l.97-.25c.2,.49,.45,1.11,.6,1.57h5.35Zm-.77,10.13c0,.55-.14,.78-.55,.94-.42,.13-1.12,.14-2.31,.14-.06-.25-.18-.57-.32-.8,.87,.03,1.68,.01,1.91,0,.22-.01,.31-.07,.31-.29v-6.33h-2.83v.91c0,.31,.04,.42,.27,.42h1.26c.21,0,.58-.01,.77-.06,.01,.24,.04,.52,.07,.74-.17,.07-.5,.07-.81,.07h-1.47c-.85,0-1.02-.36-1.02-1.19v-.9h-1.58c-.21,1.46-.87,2.23-2.8,2.66-.08-.22-.31-.56-.5-.73,1.64-.29,2.19-.85,2.38-1.93h-2.41v7.48h-.99v-8.35h6.47c.36-.56,.8-1.34,1.02-1.91l1.05,.24c-.34,.56-.71,1.18-1.08,1.67h3.18v7.21Zm-7.59-9.19c.31,.49,.7,1.15,.88,1.56l-.9,.36c-.2-.41-.58-1.11-.87-1.62l.88-.29Zm.56,8.56v.64h-.91v-3.82h5.11v3.18h-4.2Zm0-2.39v1.62h3.33v-1.62h-3.33Z"/><path d="M234.38,65.49h4.94v5.97h-1.02v-.63h-2.93v.76h-.99v-6.09Zm.99,1.01v3.32h2.93v-3.32h-2.93Zm8.66-2.48h-7.62v-4.64h7.62v4.64Zm-1.05-3.64h-5.56v2.65h5.56v-2.65Zm3.08,5.11v6h-1.02v-.66h-3.18v.76h-1.01v-6.09h5.21Zm-1.02,4.33v-3.32h-3.18v3.32h3.18Z"/><path d="M250.79,66.31v3.94c0,.59-.15,.87-.52,1.02-.35,.17-.94,.2-1.89,.2-.04-.27-.2-.69-.32-.97,.67,.03,1.27,.01,1.44,.01,.2,0,.27-.07,.27-.27v-3.61l-1.77,.52-.31-1.01c.57-.14,1.29-.34,2.07-.56v-3.01h-1.91v-.98h1.91v-2.8h1.02v2.8h1.74v.98h-1.74v2.73l1.3-.38,.14,.95-1.44,.43Zm8.78-1.12c-.56,1.68-1.53,3-2.73,4.01,1.05,.66,2.31,1.15,3.71,1.44-.24,.22-.52,.66-.66,.95-1.5-.36-2.83-.95-3.92-1.75-1.22,.83-2.63,1.39-4.1,1.76-.1-.29-.32-.73-.52-.95,1.34-.29,2.65-.78,3.78-1.49-.95-.88-1.72-1.96-2.28-3.21l.14-.06h-.55v-.98h6.26l.2-.04,.67,.31Zm-4.79-4.34c0,1.25-.38,2.75-2.1,3.74-.13-.21-.49-.6-.67-.77,1.54-.85,1.79-2,1.79-3v-1.54h4.41v3.24c0,.39,.04,.53,.27,.53h1.08c.21,0,.52-.03,.7-.07,.01,.27,.04,.66,.08,.9-.18,.06-.48,.07-.76,.07h-1.18c-.97,0-1.19-.41-1.19-1.44v-2.24h-2.44v.59Zm-.92,5.06c.49,1.02,1.23,1.92,2.13,2.68,.91-.73,1.68-1.61,2.19-2.68h-4.31Z"/><path d="M265.91,62.63h-4.01v-.84h4.01v.84Zm1.11,7.23c-1.12,.67-2.88,1.33-4.27,1.71-.18-.21-.53-.6-.77-.78,1.43-.29,3.11-.8,4.1-1.34l.94,.42Zm-1.46-9.43h-3.35v-.81h3.35v.81Zm-1.82,3.29h9.06v5.62h-9.06v-5.62Zm1.01,1.65h7.02v-.95h-7.02v.95Zm0,1.62h7.02v-.95h-7.02v.95Zm0,1.65h7.02v-.98h-7.02v.98Zm3.36-8.11c-.31,.53-.67,1.02-1.05,1.4-.17-.15-.56-.42-.78-.53,.73-.66,1.3-1.64,1.61-2.66l.94,.21c-.08,.27-.2,.52-.29,.77h4.69l.17-.04,.7,.24c-.35,.71-.8,1.53-1.18,2.02l-.83-.29c.21-.29,.46-.7,.66-1.11h-2.23v.18c0,.14-.01,.29-.04,.46,.74,.84,2.27,1.39,4.1,1.54-.2,.2-.46,.57-.59,.83-1.6-.22-2.94-.78-3.81-1.64-.46,.69-1.57,1.33-4.03,1.71-.11-.22-.38-.6-.56-.77,3.63-.49,3.96-1.44,3.96-2.17v-.14h-1.44Zm2.1,8.88c1.5,.46,3.14,1.06,4.12,1.51l-.91,.6c-.9-.45-2.41-1.05-3.92-1.55l.71-.56Z"/><path d="M280.41,67.22c-.04-.22-.1-.52-.18-.84-3.32,.5-3.77,.6-4.05,.76-.06-.21-.21-.73-.32-.98,.28-.07,.63-.42,1.06-.92,.24-.24,.73-.84,1.27-1.61-1.58,.2-1.91,.27-2.12,.36-.04-.21-.2-.67-.31-.94,.24-.06,.49-.34,.8-.77,.31-.41,1.34-2,1.96-3.54l.95,.41c-.66,1.33-1.47,2.68-2.28,3.73l1.64-.14c.38-.59,.77-1.22,1.09-1.83l.9,.55c-.98,1.61-2.13,3.21-3.32,4.47l2.48-.32c-.14-.46-.31-.91-.45-1.3l.8-.24c.38,.94,.78,2.16,.94,2.9l-.87,.28Zm-3.08,.66c-.15,1.2-.42,2.52-.7,3.39-.21-.11-.63-.25-.85-.32,.32-.87,.53-2.09,.67-3.21l.88,.14Zm1.6-.18c.18,.94,.35,2.17,.41,3l-.88,.17c-.03-.81-.18-2.07-.35-3.01l.83-.15Zm1.5-.36c.31,.76,.62,1.74,.74,2.38l-.83,.28c-.11-.66-.42-1.65-.69-2.41l.77-.25Zm8.12,3v.95h-7.75v-.95h1.23v-10.84h5.58v10.84h.94Zm-5.55-9.89v2.61h3.61v-2.61h-3.61Zm3.61,3.54h-3.61v2.68h3.61v-2.68Zm-3.61,6.35h3.61v-2.73h-3.61v2.73Z"/><path d="M297.31,59.2c-.14,.22-.29,.42-.45,.63,1.64,1.74,3.59,2.89,5.81,3.82-.27,.22-.56,.62-.71,.94-.8-.39-1.55-.78-2.27-1.25v.95h-7.02v-.71c-.7,.42-1.42,.81-2.14,1.13-.18-.28-.46-.67-.76-.91,2.65-1.05,5.21-2.9,6.62-5.06l.91,.45Zm-5.37,6.78h8.63v5.52h-1.08v-.73h-6.5v.78h-1.05v-5.58Zm1.05,.92v2.9h6.5v-2.9h-6.5Zm6.67-3.57c-1.23-.76-2.35-1.64-3.4-2.76-.91,1.05-2.02,1.98-3.21,2.76h6.61Z"/><path d="M307.52,71.71h-4.2v-.07c1.53-1.29,2.77-3.61,2.77-6.46s-1.25-5.17-2.77-6.46v-.07h4.2v13.06Z"/><path d="M314.92,62.25c-.31,.59-.7,1.16-1.12,1.71v7.61h-1.01v-6.42c-.52,.57-1.06,1.11-1.61,1.54-.1-.24-.38-.77-.56-1.02,1.25-.91,2.59-2.34,3.39-3.78l.91,.36Zm-.17-3.05c-.81,1.19-2.16,2.51-3.39,3.33-.11-.24-.36-.63-.53-.84,1.09-.71,2.34-1.89,2.94-2.87l.98,.38Zm3.71,1.4v-1.75h1.05v1.75h3.95v.97h-3.95v1.75h3.31v.95h-7.82v-.95h3.46v-1.75h-4.02v-.97h4.02Zm5.02,6.18h-1.95v3.57c0,.62-.14,.9-.59,1.06-.45,.15-1.19,.17-2.31,.15-.04-.29-.21-.69-.35-.98,.87,.03,1.67,.03,1.91,.01,.24-.01,.29-.07,.29-.27v-3.56h-5.87v-.95h5.87v-1.15h1.05v1.15h1.95v.95Zm-6.91,.43c.63,.71,1.43,1.72,1.78,2.37l-.9,.53c-.35-.66-1.11-1.69-1.74-2.44l.85-.46Z"/><path d="M337.49,70.98h-5.66v.6h-.98v-6.68c-.29,.28-.63,.55-.95,.8-.11-.21-.39-.6-.6-.81v4.88h-2.47v1.13h-.9v-4.58c-.22,.42-.46,.84-.73,1.19-.11-.21-.41-.69-.6-.9,1.01-1.43,1.62-3.57,1.99-5.88h-1.65v-.95h4.59v.95h-1.93c-.18,1.08-.41,2.14-.7,3.11h2.4v.98c1.29-.9,2.33-2.18,3.08-3.71h-1.64v1.5h-.91v-2.4h2.97c.18-.46,.35-.95,.49-1.44l.98,.2c-.13,.42-.27,.85-.43,1.25h3.35v2.37h-.94v-1.47h-2.77c-.35,.76-.74,1.46-1.19,2.1h1.82c-.18-.42-.41-.9-.6-1.29l.87-.35c.28,.52,.62,1.16,.78,1.64h1.92v.88h-2.19v1.41h2v.81h-2v1.49h2v.81h-2v1.47h2.61v.9Zm-9.11-6.23h-1.55v4.09h1.55v-4.09Zm5.53-.66h-2.09v1.41h2.09v-1.41Zm0,2.23h-2.09v1.49h2.09v-1.49Zm-2.09,3.77h2.09v-1.47h-2.09v1.47Z"/><path d="M343.71,61.97h-4.93v-.87h4.93v.87Zm-.34,1.85h-4.23v-.83h4.23v.83Zm-4.23,1.02h4.23v.84h-4.23v-.84Zm4.16,5.94h-3.28v.64h-.88v-4.69h4.16v4.05Zm-3.28-3.19v2.34h2.38v-2.34h-2.38Zm1.05-6.57c-.15-.5-.53-1.3-.87-1.9l.88-.31c.36,.57,.73,1.34,.92,1.85l-.94,.36Zm2.26,8.87c.48-.76,.81-1.99,.98-2.94l.74,.22c-.18,1.01-.49,2.28-.97,3.05l-.76-.34Zm4.73-9.65c-.25,2.52-.95,4.61-3.53,5.77-.11-.24-.39-.59-.6-.74,1.25-.53,2-1.27,2.47-2.21-.52-.53-1.37-1.27-2.03-1.82l.55-.59c.59,.46,1.32,1.06,1.85,1.53,.18-.6,.28-1.25,.35-1.93h-2.88v-.9h6.82s-.01,.31-.01,.45c-.15,3.54-.31,4.8-.64,5.24-.24,.28-.5,.38-.88,.41-.35,.03-.97,.03-1.58,0-.03-.28-.13-.66-.29-.92,.64,.06,1.23,.07,1.46,.07s.34-.03,.46-.17c.22-.25,.36-1.34,.48-4.17h-1.96Zm.46,10.2c.46,0,.55-.24,.59-1.86,.2,.15,.58,.29,.83,.35-.1,1.91-.35,2.35-1.32,2.35h-1.82c-1.11,0-1.39-.28-1.39-1.25v-3.4h.91v3.4c0,.34,.1,.41,.57,.41h1.62Zm-1.33-4.82c.59,.62,1.23,1.47,1.54,2l-.69,.48c-.29-.55-.92-1.43-1.5-2.07l.64-.41Zm3.25,.77c.5,.92,1.04,2.14,1.23,2.89l-.8,.31c-.2-.76-.69-2-1.18-2.94l.74-.25Z"/></g><g><rect class="cls-6" x="24.14" y="17.41" width="71.31" height="71.31" rx="10.82" ry="10.82"/><path class="cls-2" d="M84.63,88.72H34.96c-5.97,0-10.82-4.84-10.82-10.82v-7.27s71.31,0,71.31,0v7.27c0,5.97-4.84,10.82-10.82,10.82Z"/><g><rect class="cls-8" x="53.14" y="76.65" width="3.26" height="1.48" rx=".3" ry=".3"/><path class="cls-4" d="M65.36,78.72h0s0,0,0,0c0-1.43-1.17-2.59-2.59-2.59-.4,0-.78,.09-1.11,.25-.02-.14-.14-.25-.29-.25h-.89c-.16,0-.3,.13-.3,.3v4.96c0,.16,.13,.3,.3,.3h.89c.16,0,.3-.13,.3-.3v-2.67h0c0-.61,.5-1.11,1.11-1.11s1.11,.5,1.11,1.11v2.67c0,.16,.13,.3,.3,.3h.89c.16,0,.3-.13,.3-.3v-2.67h0s0,0,0,0Z"/><path class="cls-7" d="M75.55,76.13c-1.53,0-2.78,1.25-2.78,2.78,0,1.53,1.25,2.78,2.78,2.78,1.53,0,2.78-1.25,2.78-2.78,0-1.53-1.25-2.78-2.78-2.78Zm0,4.07c-.71,0-1.3-.58-1.3-1.3s.58-1.3,1.3-1.3,1.3,.58,1.3,1.3-.58,1.3-1.3,1.3Z"/><rect class="cls-3" x="57.58" y="76.13" width="1.48" height="5.56" rx=".3" ry=".3"/><path class="cls-5" d="M71.73,76.13h-.89c-.16,0-.3,.13-.3,.3v.26c-.46-.35-1.04-.56-1.67-.56-1.53,0-2.78,1.25-2.78,2.78,0,1.53,1.25,2.78,2.78,2.78,.62,0,1.2-.21,1.67-.56v.56s0,.74,0,.74c0,.74-.61,1.35-1.35,1.35-.66,0-1.21-.48-1.33-1.11-.03-.14-.15-.24-.29-.24h-.9c-.18,0-.32,.15-.29,.33,.16,1.41,1.36,2.5,2.81,2.5,1.56,0,2.83-1.27,2.83-2.83v-.74s0-2.96,0-2.96v-2.3c0-.16-.13-.3-.3-.3Zm-2.85,4.07c-.71,0-1.3-.58-1.3-1.3s.58-1.3,1.3-1.3,1.3,.58,1.3,1.3c0,.71-.58,1.3-1.3,1.3Z"/><path class="cls-8" d="M55.36,73.53h-4.14c-.16,0-.3,.13-.3,.3v7.56c0,.16,.13,.3,.29,.3h.89c.16,0,.3-.13,.3-.3v-6.37h4.45c0-.82-.66-1.48-1.48-1.48Z"/><circle class="cls-3" cx="49.43" cy="80.91" r=".74"/><path class="cls-3" d="M58.58,73.72c-.11-.2-.4-.2-.51,0l-.47,.82c-.11,.2,.03,.44,.26,.44h.95c.23,0,.37-.25,.26-.44l-.47-.82Z"/><path class="cls-3" d="M44.63,75.01c-1.84-.01-3.33,1.46-3.36,3.29-.03,1.85,1.48,3.38,3.33,3.39,1.19,0,2.23-.62,2.82-1.55,.13-.2-.01-.46-.25-.46h-1.16c-.07,0-.14,.03-.2,.07-.32,.28-.75,.45-1.21,.45-.82,0-1.51-.53-1.76-1.26h4.66s0,0,0,0h.12c.15,0,.28-.12,.3-.27,.01-.12,.02-.25,.02-.37-.03-1.81-1.51-3.27-3.31-3.29Zm-1.78,2.74c.25-.73,.94-1.26,1.76-1.26s1.51,.53,1.76,1.26h-3.51Z"/></g><g><path class="cls-2" d="M78.84,37.13c3.04,7.73,.89,16.86-5.28,22.31-5.32,4.82-13.22,6.59-20.28,4.23-7.9-2.62-13.44-9.76-13.86-18.13-.42-7.9,3.72-15.04,10.65-18.8,6.34-3.64,15.85-3.04,21.63,1.35,3.17,2.16,5.7,5.54,7.14,9.04"/><path class="cls-9" d="M58.81,33.75c.72-.21,1.65-.76,2.37-.21,.51,.76,1.9,1.01,1.52,2.07,.72,.89,1.52,1.9,2.45,2.58,.21,.04,.3-.08,.38-.21l-.25-.13c.3-.25,1.01,.17,1.48-.08,.3,0,.72,.08,.93,.38,.21,.34,.25,.76,.55,1.1l.17-.08c.21,.38,.3,.72,.55,1.06,1.52,.51,2.24,2.32,3.59,3.08,1.65,1.23,3.38,2.45,5.32,3.17-.08,.25,.21,.25,.34,.34v.04c-.25-.13-.59-.25-.84-.17,.25,.38,.89,.21,1.02,.63h-.68c0,.13,.17,.13,.25,.17-.34-.13-.68,.13-.89-.29-1.39-.59-2.66-1.44-3.89-2.2l-.04,.04c.97,.93,2.32,1.61,3.42,2.24,.38,.21,.93,.34,1.14,.72-.13,.04-.34,.04-.38,.21l-.3-.17c-.08,.04,0,.13-.04,.17l.21,.17c-1.44-.59-3.04-1.48-4.35-2.54-.63-.42-1.27-.76-1.9-1.23-.08,0-.21-.04-.25,.08,.72,.55,1.48,.89,2.2,1.4-1.31-.63-2.87-1.56-3.93-2.83-.46-.47-1.14-1.44-1.94-1.27-.3,.17-.76,.13-1.1,.3-.25,0-.47-.3-.72-.08-.21,.47-.89,.08-1.01,.59-.42,.17-1.18,.04-1.31,.55l.04,.21c-.85,.38-1.99,.25-2.58,1.06-.17,.17-.51-.04-.68,.17,.04-.08-.04-.17-.13-.17-.21-.08-.34,.13-.51,.17-.12-.21,.17-.25,.13-.38-.38-.17-.55,.34-.85,.51,.04-.34,.42-.38,.55-.68-.21-.12-.38,.08-.55,.13,.08-.04,.25-.34,0-.34,.21-.34,.68-.21,.8-.59h-.34c.34-.25,.72-.55,1.01-.8-.12,0-.38-.34-.59-.04,0-.04,.08-.08,.04-.13-.17-.17-.38,.13-.59,.13,0,.04,.04-.13-.09-.17h-.13c.13-.08,.3-.3,.47-.42l-.09-.08c.63-.38,1.27-.81,1.9-1.1l.12-.13c-.17-.21-.51-.21-.68,0,.55-.04,.04-.63,.59-.72,.09-.47,.51-.8,.85-1.01-.55-.51-.76-1.44-1.4-1.73-.04-.38-.42,0-.46-.38-.76-.04-1.65,.34-2.16-.34-.38-.13-.89-.08-1.27-.04-.34,.3-.47,.72-.68,1.06-.34,.25-.51,.68-.76,1.06-.38,.51-.85,1.14-1.52,1.35v-.08c-.47,.63-1.48,.38-2.07,1.06l-.04-.17c-.21-.04-.38,.08-.42,.25v.08c-.3-.08-.51,.25-.63,.42-.72,.76-1.9,.76-2.66,1.4-.09,.04,.04,0,0-.04-1.4,.3-2.07,1.35-3,2.37-.25,.42-.68,.68-1.01,1.01,.09,.34-.42,.47-.59,.64,.17-.3,.55-.55,.59-.89-.34,.17-.42,.55-.8,.72-.21-.17,.21-.3,.08-.47l-.51,.38,.47-.63c-.25,.04-.51,.47-.8,.51-.08,.13-.21,.13-.38,.13v-.04c.17-.13,.47-.42,.72-.68-.29-.17-.63,.21-.85,.17-.08-.04-.04-.25-.25-.17,.21-.17,.42-.29,.51-.55-.17-.04-.38,.08-.55,.17,.04-.21,.47-.34,.34-.68-.55-.08-.46,.47-.93,.59,.46-.63,1.14-1.01,1.61-1.69l-.04-.04c.89-.97,1.99-1.56,3.08-2.2,.89-.51,2.07-.76,2.7-1.6,.25-.34,.51-.64,.68-.97,.13,.04,.17-.09,.21-.17,.64-.38,1.31-.63,2.07-.63,.34-.34,.97-.13,1.23-.59,.89-1.06,1.22-2.37,1.99-3.42,.25-.34,.55-.89,1.06-1.01,1.27,.13,2.49,.34,3.67,.68"/><path class="cls-11" d="M58.81,33.75c.72-.21,1.65-.76,2.37-.21,.51,.76,1.9,1.01,1.52,2.07,.72,.89,1.52,1.9,2.45,2.58,.21,.04,.3-.08,.38-.21l-.25-.13c.3-.25,1.01,.17,1.48-.08,.3,0,.72,.08,.93,.38,.21,.34,.25,.76,.55,1.1l.17-.08c.21,.38,.3,.72,.55,1.06,1.52,.51,2.24,2.32,3.59,3.08,1.65,1.23,3.38,2.45,5.32,3.17-.08,.25,.21,.25,.34,.34v.04c-.25-.13-.59-.25-.84-.17,.25,.38,.89,.21,1.02,.63h-.68c0,.13,.17,.13,.25,.17-.34-.13-.68,.13-.89-.29-1.39-.59-2.66-1.44-3.89-2.2l-.04,.04c.97,.93,2.32,1.61,3.42,2.24,.38,.21,.93,.34,1.14,.72-.13,.04-.34,.04-.38,.21l-.3-.17c-.08,.04,0,.13-.04,.17l.21,.17c-1.44-.59-3.04-1.48-4.35-2.54-.63-.42-1.27-.76-1.9-1.23-.08,0-.21-.04-.25,.08,.72,.55,1.48,.89,2.2,1.4-1.31-.63-2.87-1.56-3.93-2.83-.46-.47-1.14-1.44-1.94-1.27-.3,.17-.76,.13-1.1,.3-.25,0-.47-.3-.72-.08-.21,.47-.89,.08-1.01,.59-.42,.17-1.18,.04-1.31,.55l.04,.21c-.85,.38-1.99,.25-2.58,1.06-.17,.17-.51-.04-.68,.17,.04-.08-.04-.17-.13-.17-.21-.08-.34,.13-.51,.17-.12-.21,.17-.25,.13-.38-.38-.17-.55,.34-.85,.51,.04-.34,.42-.38,.55-.68-.21-.12-.38,.08-.55,.13,.08-.04,.25-.34,0-.34,.21-.34,.68-.21,.8-.59h-.34c.34-.25,.72-.55,1.01-.8-.12,0-.38-.34-.59-.04,0-.04,.08-.08,.04-.13-.17-.17-.38,.13-.59,.13,0,.04,.04-.13-.09-.17h-.13c.13-.08,.3-.3,.47-.42l-.09-.08c.63-.38,1.27-.81,1.9-1.1l.12-.13c-.17-.21-.51-.21-.68,0,.55-.04,.04-.63,.59-.72,.09-.47,.51-.8,.85-1.01-.55-.51-.76-1.44-1.4-1.73-.04-.38-.42,0-.46-.38-.76-.04-1.65,.34-2.16-.34-.38-.13-.89-.08-1.27-.04-.34,.3-.47,.72-.68,1.06-.34,.25-.51,.68-.76,1.06-.38,.51-.85,1.14-1.52,1.35v-.08c-.47,.63-1.48,.38-2.07,1.06l-.04-.17c-.21-.04-.38,.08-.42,.25v.08c-.3-.08-.51,.25-.63,.42-.72,.76-1.9,.76-2.66,1.4-.09,.04,.04,0,0-.04-1.4,.3-2.07,1.35-3,2.37-.25,.42-.68,.68-1.01,1.01,.09,.34-.42,.47-.59,.64,.17-.3,.55-.55,.59-.89-.34,.17-.42,.55-.8,.72-.21-.17,.21-.3,.08-.47l-.51,.38,.47-.63c-.25,.04-.51,.47-.8,.51-.08,.13-.21,.13-.38,.13v-.04c.17-.13,.47-.42,.72-.68-.29-.17-.63,.21-.85,.17-.08-.04-.04-.25-.25-.17,.21-.17,.42-.29,.51-.55-.17-.04-.38,.08-.55,.17,.04-.21,.47-.34,.34-.68-.55-.08-.46,.47-.93,.59,.46-.63,1.14-1.01,1.61-1.69l-.04-.04c.89-.97,1.99-1.56,3.08-2.2,.89-.51,2.07-.76,2.7-1.6,.25-.34,.51-.64,.68-.97,.13,.04,.17-.09,.21-.17,.64-.38,1.31-.63,2.07-.63,.34-.34,.97-.13,1.23-.59,.89-1.06,1.22-2.37,1.99-3.42,.25-.34,.55-.89,1.06-1.01,1.27,.13,2.49,.34,3.67,.68Z"/><polygon class="cls-2" points="68.23 38.77 68.06 38.23 68.23 38.69 68.23 38.77"/><path class="cls-2" d="M68.53,39.62c-.17-.04-.13-.17-.21-.3,.08,.04,.17,.17,.21,.3"/><path class="cls-10" d="M48.37,39.92c-.13-.25,.21-.34,.34-.55-.04,.21-.17,.42-.34,.55"/><polygon class="cls-10" points="52.43 40 52.43 39.96 52.56 39.96 52.43 40"/><path class="cls-10" d="M51.54,40.26c-.08,.08-.13,.21-.25,.17,0-.13,.17-.25,.25-.17"/><path class="cls-2" d="M59.66,40.97c-.21,.17-.64,.3-.68,.55-.38-.04-.63,.34-.93,.34,.04-.34,.55-.13,.59-.47l.34-.25,.04,.13c.13-.13,.55-.04,.42-.38l.21,.08Z"/><path class="cls-2" d="M58.3,41.23c-.08,.17-.25,.29-.46,.34,.08-.21,.25-.21,.46-.34"/><path class="cls-10" d="M49.6,41.73c.08,.13-.09,0-.13,.08,.04-.04,.08-.08,.13-.08"/><rect class="cls-2" x="59.1" y="41.95" width=".13" height=".13"/><path class="cls-2" d="M58.94,42.24c0,.08-.08,.08-.13,.17h-.13c-.04-.13,.09-.17,.17-.21,.04,0,.04,.04,.08,.04"/><path class="cls-2" d="M59.74,43.04c-.04,.17-.25,.17-.34,.21-.13-.04,.04-.09,.04-.17,.13,.04,.17-.09,.3-.04"/><path class="cls-10" d="M59.82,43.3c-.04,.17-.34,.17-.51,.3-.04-.17,.21-.25,.34-.34,.04,.04,.17,0,.17,.04"/><path class="cls-10" d="M69.96,43.72c.17,.08,.25,.29,.38,.42l-.13,.13c-.3-.3-.47-.59-.63-.97,.13,.13,.21,.34,.38,.42"/><path class="cls-2" d="M76.05,45.96c-.13,.08-.3-.09-.42-.13l.42,.13Z"/><path class="cls-2" d="M77.23,46.59c-.34-.21-.8-.21-1.06-.47,.38,.04,.76,.25,1.06,.47"/><polygon class="cls-2" points="73.51 46.55 73.01 46.17 73.35 46.34 73.51 46.55"/><polygon class="cls-2" points="77.11 47.82 77.15 47.73 77.27 47.82 77.11 47.82"/><path class="cls-2" d="M76.94,48.03h-.17v-.08s.13,.04,.17,.08"/></g></g></g></g></svg>