<?xml version="1.0" encoding="UTF-8"?><svg id="_圖層_2" xmlns="http://www.w3.org/2000/svg" xmlns:xlink="http://www.w3.org/1999/xlink" viewBox="0 0 1495.16 786.65"><defs><style>.cls-1,.cls-2,.cls-3,.cls-4,.cls-5,.cls-6,.cls-7,.cls-8,.cls-9,.cls-10,.cls-11,.cls-12,.cls-13,.cls-14,.cls-15,.cls-16,.cls-17,.cls-18,.cls-19,.cls-20,.cls-21,.cls-22,.cls-23,.cls-24,.cls-25,.cls-26,.cls-27,.cls-28,.cls-29,.cls-30,.cls-31,.cls-32,.cls-33,.cls-34,.cls-35,.cls-36,.cls-37,.cls-38,.cls-39,.cls-40,.cls-41,.cls-42,.cls-43,.cls-44,.cls-45,.cls-46,.cls-47,.cls-48,.cls-49{fill:none;}.cls-50{clip-path:url(#clippath);}.cls-2{stroke:url(#_未命名漸層_99);}.cls-2,.cls-3,.cls-4,.cls-5,.cls-6,.cls-7,.cls-8,.cls-9,.cls-10,.cls-11,.cls-12,.cls-13,.cls-14,.cls-15,.cls-16,.cls-17,.cls-18,.cls-19,.cls-20,.cls-21,.cls-22,.cls-23,.cls-24,.cls-25,.cls-26,.cls-27,.cls-28,.cls-29,.cls-30,.cls-31,.cls-32,.cls-33,.cls-34,.cls-35,.cls-36,.cls-37,.cls-38,.cls-39,.cls-40,.cls-41,.cls-42,.cls-43,.cls-44,.cls-45,.cls-46,.cls-47,.cls-48,.cls-49{stroke-linecap:round;stroke-linejoin:round;}.cls-3{stroke:url(#_未命名漸層_99-2);}.cls-4{stroke:url(#_未命名漸層_99-5);}.cls-5{stroke:url(#_未命名漸層_99-7);}.cls-6{stroke:url(#_未命名漸層_99-6);}.cls-7{stroke:url(#_未命名漸層_99-8);}.cls-8{stroke:url(#_未命名漸層_99-9);}.cls-9{stroke:url(#_未命名漸層_99-3);}.cls-10{stroke:url(#_未命名漸層_99-4);}.cls-11{stroke:url(#_未命名漸層_99-19);}.cls-12{stroke:url(#_未命名漸層_99-18);}.cls-13{stroke:url(#_未命名漸層_99-24);}.cls-14{stroke:url(#_未命名漸層_99-20);}.cls-15{stroke:url(#_未命名漸層_99-22);}.cls-16{stroke:url(#_未命名漸層_99-21);}.cls-17{stroke:url(#_未命名漸層_99-23);}.cls-18{stroke:url(#_未命名漸層_99-14);}.cls-19{stroke:url(#_未命名漸層_99-13);}.cls-20{stroke:url(#_未命名漸層_99-12);}.cls-21{stroke:url(#_未命名漸層_99-10);}.cls-22{stroke:url(#_未命名漸層_99-17);}.cls-23{stroke:url(#_未命名漸層_99-11);}.cls-24{stroke:url(#_未命名漸層_99-15);}.cls-25{stroke:url(#_未命名漸層_99-16);}.cls-26{stroke:url(#_未命名漸層_101-9);}.cls-27{stroke:url(#_未命名漸層_101-3);}.cls-28{stroke:url(#_未命名漸層_101-7);}.cls-29{stroke:url(#_未命名漸層_101-5);}.cls-30{stroke:url(#_未命名漸層_101-4);}.cls-31{stroke:url(#_未命名漸層_101-2);}.cls-32{stroke:url(#_未命名漸層_101-8);}.cls-33{stroke:url(#_未命名漸層_101-6);}.cls-34{stroke:url(#_未命名漸層_101);}.cls-35{stroke:url(#_未命名漸層_101-21);}.cls-36{stroke:url(#_未命名漸層_101-20);}.cls-37{stroke:url(#_未命名漸層_101-22);}.cls-38{stroke:url(#_未命名漸層_101-24);}.cls-39{stroke:url(#_未命名漸層_101-23);}.cls-40{stroke:url(#_未命名漸層_101-15);}.cls-41{stroke:url(#_未命名漸層_101-11);}.cls-42{stroke:url(#_未命名漸層_101-18);}.cls-43{stroke:url(#_未命名漸層_101-12);}.cls-44{stroke:url(#_未命名漸層_101-13);}.cls-45{stroke:url(#_未命名漸層_101-14);}.cls-46{stroke:url(#_未命名漸層_101-16);}.cls-47{stroke:url(#_未命名漸層_101-10);}.cls-48{stroke:url(#_未命名漸層_101-19);}.cls-49{stroke:url(#_未命名漸層_101-17);}</style><clipPath id="clippath"><rect class="cls-1" x="0" width="1495.16" height="786.65"/></clipPath><linearGradient id="_未命名漸層_101" x1="-1039.99" y1="541.38" x2="4001.74" y2="541.38" gradientUnits="userSpaceOnUse"><stop offset=".14" stop-color="#fff4e1"/><stop offset=".36" stop-color="#fff3dd"/><stop offset=".76" stop-color="#93d2ba"/></linearGradient><linearGradient id="_未命名漸層_101-2" x1="-1063.66" y1="544.99" x2="3983.62" y2="544.99" xlink:href="#_未命名漸層_101"/><linearGradient id="_未命名漸層_101-3" x1="-1087.34" y1="548.51" x2="3965.5" y2="548.51" xlink:href="#_未命名漸層_101"/><linearGradient id="_未命名漸層_101-4" x1="-1111.01" y1="551.75" x2="3947.39" y2="551.75" xlink:href="#_未命名漸層_101"/><linearGradient id="_未命名漸層_101-5" x1="-1134.69" y1="554.73" x2="3929.27" y2="554.73" xlink:href="#_未命名漸層_101"/><linearGradient id="_未命名漸層_101-6" x1="-1158.36" y1="557.38" x2="3911.15" y2="557.38" xlink:href="#_未命名漸層_101"/><linearGradient id="_未命名漸層_101-7" x1="-1182.04" y1="559.64" x2="3893.03" y2="559.64" xlink:href="#_未命名漸層_101"/><linearGradient id="_未命名漸層_101-8" x1="-1205.71" y1="561.43" x2="3874.92" y2="561.43" xlink:href="#_未命名漸層_101"/><linearGradient id="_未命名漸層_101-9" x1="-1229.38" y1="562.66" x2="3856.8" y2="562.66" xlink:href="#_未命名漸層_101"/><linearGradient id="_未命名漸層_101-10" x1="-1253.06" y1="563.15" x2="3838.68" y2="563.15" xlink:href="#_未命名漸層_101"/><linearGradient id="_未命名漸層_101-11" x1="-1276.73" y1="562.61" x2="3820.56" y2="562.61" xlink:href="#_未命名漸層_101"/><linearGradient id="_未命名漸層_101-12" x1="-1300.41" y1="560.69" x2="3802.44" y2="560.69" xlink:href="#_未命名漸層_101"/><linearGradient id="_未命名漸層_101-13" x1="-1324.08" y1="556.99" x2="3784.33" y2="556.99" xlink:href="#_未命名漸層_101"/><linearGradient id="_未命名漸層_101-14" x1="-1347.76" y1="551.24" x2="3766.21" y2="551.24" xlink:href="#_未命名漸層_101"/><linearGradient id="_未命名漸層_101-15" x1="-1371.43" y1="543.45" x2="3748.09" y2="543.45" xlink:href="#_未命名漸層_101"/><linearGradient id="_未命名漸層_101-16" x1="-1395.1" y1="533.9" x2="3729.97" y2="533.9" xlink:href="#_未命名漸層_101"/><linearGradient id="_未命名漸層_101-17" x1="-1418.78" y1="531.34" x2="3711.86" y2="531.34" xlink:href="#_未命名漸層_101"/><linearGradient id="_未命名漸層_101-18" x1="-1442.45" y1="531.72" x2="3693.74" y2="531.72" xlink:href="#_未命名漸層_101"/><linearGradient id="_未命名漸層_101-19" x1="-1466.13" y1="532.1" x2="3675.62" y2="532.1" xlink:href="#_未命名漸層_101"/><linearGradient id="_未命名漸層_101-20" x1="-1489.8" y1="532.48" x2="3657.5" y2="532.48" xlink:href="#_未命名漸層_101"/><linearGradient id="_未命名漸層_101-21" x1="-1513.48" y1="532.87" x2="3639.38" y2="532.87" xlink:href="#_未命名漸層_101"/><linearGradient id="_未命名漸層_101-22" x1="-1537.15" y1="533.26" x2="3621.27" y2="533.26" xlink:href="#_未命名漸層_101"/><linearGradient id="_未命名漸層_101-23" x1="-1560.82" y1="533.65" x2="3603.15" y2="533.65" xlink:href="#_未命名漸層_101"/><linearGradient id="_未命名漸層_101-24" x1="-1584.5" y1="534.03" x2="3585.03" y2="534.03" xlink:href="#_未命名漸層_101"/><linearGradient id="_未命名漸層_99" x1="210.02" y1="16.2" x2="3012.56" y2="16.2" gradientUnits="userSpaceOnUse"><stop offset=".03" stop-color="#ffd455" stop-opacity="0"/><stop offset=".27" stop-color="#ffd455"/><stop offset=".3" stop-color="#f2d362"/><stop offset=".37" stop-color="#d3d282"/><stop offset=".45" stop-color="#bad29d"/><stop offset=".53" stop-color="#a6d1b1"/><stop offset=".62" stop-color="#98d1bf"/><stop offset=".74" stop-color="#90d1c8"/><stop offset=".92" stop-color="#8ed1cb"/></linearGradient><linearGradient id="_未命名漸層_99-2" x1="196.87" y1="18.2" x2="3002.49" y2="18.2" xlink:href="#_未命名漸層_99"/><linearGradient id="_未命名漸層_99-3" x1="183.71" y1="20.16" x2="2992.42" y2="20.16" xlink:href="#_未命名漸層_99"/><linearGradient id="_未命名漸層_99-4" x1="170.55" y1="21.96" x2="2982.35" y2="21.96" xlink:href="#_未命名漸層_99"/><linearGradient id="_未命名漸層_99-5" x1="157.39" y1="23.61" x2="2972.28" y2="23.61" xlink:href="#_未命名漸層_99"/><linearGradient id="_未命名漸層_99-6" x1="144.23" y1="25.09" x2="2962.21" y2="25.09" xlink:href="#_未命名漸層_99"/><linearGradient id="_未命名漸層_99-7" x1="131.08" y1="26.34" x2="2952.15" y2="26.34" xlink:href="#_未命名漸層_99"/><linearGradient id="_未命名漸層_99-8" x1="117.92" y1="27.34" x2="2942.08" y2="27.34" xlink:href="#_未命名漸層_99"/><linearGradient id="_未命名漸層_99-9" x1="104.76" y1="28.02" x2="2932.01" y2="28.02" xlink:href="#_未命名漸層_99"/><linearGradient id="_未命名漸層_99-10" x1="91.6" y1="28.3" x2="2921.94" y2="28.3" xlink:href="#_未命名漸層_99"/><linearGradient id="_未命名漸層_99-11" x1="78.45" y1="28" x2="2911.87" y2="28" xlink:href="#_未命名漸層_99"/><linearGradient id="_未命名漸層_99-12" x1="65.29" y1="26.93" x2="2901.8" y2="26.93" xlink:href="#_未命名漸層_99"/><linearGradient id="_未命名漸層_99-13" x1="52.13" y1="24.87" x2="2891.73" y2="24.87" xlink:href="#_未命名漸層_99"/><linearGradient id="_未命名漸層_99-14" x1="38.97" y1="21.68" x2="2881.66" y2="21.68" xlink:href="#_未命名漸層_99"/><linearGradient id="_未命名漸層_99-15" x1="25.82" y1="17.34" x2="2871.59" y2="17.34" xlink:href="#_未命名漸層_99"/><linearGradient id="_未命名漸層_99-16" x1="12.66" y1="12.04" x2="2861.52" y2="12.04" xlink:href="#_未命名漸層_99"/><linearGradient id="_未命名漸層_99-17" x1="-.5" y1="10.62" x2="2851.45" y2="10.62" xlink:href="#_未命名漸層_99"/><linearGradient id="_未命名漸層_99-18" x1="-13.66" y1="10.83" x2="2841.38" y2="10.83" xlink:href="#_未命名漸層_99"/><linearGradient id="_未命名漸層_99-19" x1="-26.82" y1="11.04" x2="2831.31" y2="11.04" xlink:href="#_未命名漸層_99"/><linearGradient id="_未命名漸層_99-20" x1="-39.97" y1="11.25" x2="2821.24" y2="11.25" xlink:href="#_未命名漸層_99"/><linearGradient id="_未命名漸層_99-21" x1="-53.13" y1="11.47" x2="2811.17" y2="11.47" xlink:href="#_未命名漸層_99"/><linearGradient id="_未命名漸層_99-22" x1="-66.29" y1="11.68" x2="2801.1" y2="11.68" xlink:href="#_未命名漸層_99"/><linearGradient id="_未命名漸層_99-23" x1="-79.45" y1="11.9" x2="2791.03" y2="11.9" xlink:href="#_未命名漸層_99"/><linearGradient id="_未命名漸層_99-24" x1="-92.6" y1="12.11" x2="2780.96" y2="12.11" xlink:href="#_未命名漸層_99"/></defs><g id="_圖層_1-2"><g class="cls-50"><g><path class="cls-34" d="M-1039.49,872.76c181.61-320.33,471.68-451.99,748.06-454.27,276.39-2.28,547.09,107.88,817.44,196.26,270.35,88.37,551.38,155.39,821.74,67.12,292.07-95.36,551.66-365.87,845.69-445.74,604.39-164.17,1198.07,503.15,1807.8,395.26"/><path class="cls-31" d="M3983.12,611.89c-439.73,94.11-876.7-215.51-1314.2-338.06-163.12-45.7-326.28-65.16-490.16-26.08-248.97,58.63-474.28,247.06-715.4,360.53-44.12,20.75-88.74,39-134.09,53.43-270.3,86.17-550.44,29-820.32-48.87C238.74,535.17-31.77,436.34-308.03,438.78c-59.84,.53-120.32,6.52-180.24,18.48-217.98,43.18-428.05,163.97-574.89,405.93"/><path class="cls-27" d="M3965,592.39c-435.42,109.65-873.86-177.03-1311.52-298.98-163.04-45.44-325.81-67.13-489.4-34.02-249.23,50.43-476.04,222.84-718.49,330.77-44.4,19.74-89.25,37.31-134.78,51.41-270.24,84.07-549.49,36.75-818.9-30.62C221.82,543.95-48.5,456.48-324.63,459.07c-59.93,.57-120.48,6.01-180.53,16.74-219.17,38.54-430.35,144.97-581.68,377.82"/><path class="cls-30" d="M3946.89,572.88c-431.12,125.19-871.02-138.56-1308.83-259.91-162.96-45.18-325.41-69.34-488.65-41.97-249.6,41.85-477.8,198.61-721.59,301-44.67,18.72-89.76,35.61-135.48,49.39-270.17,81.96-548.53,44.5-817.48-12.37-269.96-56.28-540.09-132.42-816.1-129.67-60.02,.6-120.64,5.5-180.81,15-220.36,33.91-432.64,125.97-588.46,349.7"/><path class="cls-29" d="M3928.77,553.38c-426.82,140.73-868.18-100.09-1306.15-220.84-162.88-44.92-325.03-71.57-487.9-49.91-249.99,33.25-479.56,174.39-724.68,271.24-44.94,17.71-90.26,33.92-136.18,47.38-270.11,79.86-547.58,52.25-816.06,5.88-269.83-45.59-539.77-110.38-815.65-107.48-60.11,.64-120.79,5.14-181.09,13.26-221.48,29.84-434.93,106.97-595.25,321.59"/><path class="cls-33" d="M3910.65,533.88c-422.52,156.27-865.34-61.61-1303.46-181.77-162.8-44.67-324.66-73.83-487.15-57.86-250.41,24.61-481.31,150.16-727.77,241.47-45.21,16.69-90.77,32.22-136.87,45.36-270.05,77.75-546.55,59.41-814.64,24.12-269.62-35.49-539.45-88.34-815.2-85.29-60.2,.67-120.95,4.65-181.38,11.52-222.67,25.31-437.23,87.97-602.03,293.48"/><path class="cls-28" d="M3892.53,514.38c-418.21,171.81-862.49-23.14-1300.78-142.69-162.72-44.41-324.31-76.1-486.39-65.8-250.85,15.94-483.07,125.94-730.87,211.71-45.49,15.68-91.28,30.53-137.57,43.34-269.99,75.65-545.61,67.07-813.23,42.37-269.5-24.88-539.13-66.3-814.75-63.09-60.28,.71-121.11,4.16-181.66,9.78-223.86,20.77-439.52,68.97-608.82,265.36"/><path class="cls-32" d="M3874.42,494.87c-413.91,187.35-859.65,15.34-1298.09-103.62-162.64-44.15-323.96-78.4-485.64-73.75-251.3,7.24-484.83,101.72-733.96,181.94-45.76,14.67-91.78,28.83-138.26,41.33-269.93,73.54-544.69,74.75-811.81,60.62-269.4-14.25-538.82-44.26-814.31-40.9-60.37,.74-121.28,3.67-181.95,8.04-225.07,16.21-441.81,49.97-615.61,237.25"/><path class="cls-26" d="M3856.3,475.37c-409.61,202.89-856.81,53.81-1295.4-64.55-162.56-43.89-323.63-80.73-484.89-81.69-251.77-1.51-486.59,77.49-737.06,152.17-46.03,13.65-92.29,27.14-138.96,39.31-269.86,71.44-543.76,82.45-810.39,78.87-269.3-3.61-538.5-22.22-813.86-18.7-60.46,.78-121.45,3.17-182.23,6.3-226.27,11.63-444.11,30.97-622.39,209.14"/><path class="cls-47" d="M3838.18,455.87c-405.31,218.43-853.97,92.28-1292.72-25.47-162.48-43.64-323.3-83.08-484.14-89.64-252.24-10.29-488.34,53.27-740.15,122.41-46.3,12.64-92.8,25.44-139.65,37.29-269.8,69.33-542.84,90.16-808.97,97.12-269.2,7.04-538.18-.18-813.41,3.49-60.55,.82-121.62,2.67-182.52,4.56-227.48,7.05-446.4,11.97-629.18,181.02"/><path class="cls-41" d="M3820.06,436.37c-401,233.97-851.13,130.76-1290.03,13.6-162.4-43.38-322.97-85.45-483.38-97.58-252.72-19.11-490.1,29.04-743.25,92.64-46.57,11.62-93.33,23.66-140.35,35.27-269.87,66.69-541.93,97.88-807.55,115.37-269.11,17.71-537.86,21.86-812.96,25.68-60.63,.85-121.78,2.16-182.8,2.82-228.69,2.44-448.69-7.03-635.96,152.91"/><path class="cls-43" d="M3801.94,416.86c-396.7,249.51-848.28,169.23-1287.35,52.67-162.32-43.12-322.64-87.86-482.63-105.53-253.2-27.96-491.86,4.82-746.34,62.88-46.85,10.61-93.83,21.96-141.05,33.26-269.81,64.57-541.01,105.63-806.13,133.61-269.01,28.4-537.54,43.9-812.52,47.88-60.72,.89-121.95,1.65-183.09,1.08-229.9-2.18-450.99-26.03-642.75,124.8"/><path class="cls-44" d="M3783.83,397.36c-392.4,265.05-845.44,207.71-1284.66,91.74-162.24-42.86-322.3-90.28-481.88-113.47-253.67-36.86-493.62-19.41-749.43,33.11-47.12,9.59-94.34,20.26-141.74,31.24-269.74,62.47-540.09,113.38-804.72,151.86-268.92,39.1-537.22,65.93-812.07,70.07-60.81,.92-122.12,1.14-183.37-.67-231.11-6.81-453.28-45.04-649.53,96.68"/><path class="cls-45" d="M3765.71,377.86c-388.1,280.59-842.6,246.18-1281.98,130.82-162.16-42.6-321.97-92.73-481.13-121.42-254.13-45.8-495.38-43.63-752.53,3.35-47.39,8.58-94.85,18.57-142.44,29.22-269.68,60.37-539.17,121.16-803.3,170.11-268.82,49.82-536.9,87.97-811.62,92.27-60.9,.96-122.29,.62-183.66-2.41-232.32-11.46-455.57-64.04-656.32,68.57"/><path class="cls-40" d="M3747.59,358.36c-383.79,296.13-839.76,284.65-1279.29,169.89-162.08-42.35-321.62-95.21-480.38-129.36-254.59-54.77-497.13-67.85-755.62-26.42-47.66,7.57-95.33,16.97-143.13,27.21-269.49,58.81-538.25,128.95-801.88,188.36-268.71,60.56-536.58,110.01-811.17,114.46-60.98,1-122.46,.1-183.94-4.15-233.52-16.13-457.87-83.04-663.1,40.46"/><path class="cls-46" d="M3729.47,338.85c-379.49,311.67-836.92,323.13-1276.6,208.96-162-42.09-321.27-97.7-479.62-137.31-255.02-63.78-498.89-92.08-758.72-56.19-47.94,6.55-95.84,15.28-143.83,25.19-269.43,56.71-537.31,136.75-800.46,206.61C1.64,657.43-266.02,718.18-540.49,722.78c-61.07,1.03-122.62-.43-184.23-5.89-234.73-20.81-460.16-102.04-669.89,12.34"/><path class="cls-49" d="M3711.36,319.35c-375.19,327.21-834.07,361.6-1273.92,248.03-161.92-41.83-320.9-100.21-478.87-145.25-255.44-72.83-500.65-116.3-761.81-85.95-48.21,5.54-96.35,13.58-144.52,23.17-269.37,54.6-536.37,144.56-799.04,224.86-268.48,82.07-535.94,154.09-810.28,158.85-61.16,1.07-122.79-.96-184.51-7.63-235.93-25.51-462.45-121.04-676.68-15.77"/><path class="cls-42" d="M3693.24,299.85c-370.89,342.75-831.23,400.08-1271.23,287.11-161.84-41.57-320.52-102.75-478.12-153.2-255.84-81.9-502.41-140.53-764.91-115.72-48.48,4.52-96.85,11.89-145.22,21.16-269.31,52.5-535.42,152.39-797.62,243.1-268.35,92.84-535.62,176.13-809.83,181.04-61.25,1.1-122.95-1.49-184.79-9.37-237.12-30.22-464.75-140.04-683.46-43.88"/><path class="cls-48" d="M3675.12,280.34c-366.58,358.29-828.39,438.55-1268.55,326.18-161.76-41.32-320.13-105.3-477.37-161.14-256.22-91-504.16-164.75-768-145.48-48.75,3.51-97.36,10.19-145.92,19.14-269.24,50.4-534.46,160.23-796.21,261.35-268.21,103.63-535.3,198.17-809.39,203.24-61.34,1.14-123.12-2.03-185.08-11.11-238.31-34.94-467.04-159.04-690.25-72"/><path class="cls-36" d="M3657,260.84c-362.28,373.83-825.55,477.02-1265.86,365.25-161.68-41.06-319.72-107.86-476.61-169.09-256.57-100.13-505.92-188.98-771.1-175.25-49.02,2.49-97.87,8.5-146.61,17.12-269.18,48.29-533.31,168.51-794.79,279.6-267.87,114.87-534.98,220.21-808.94,225.43-61.42,1.18-123.28-2.57-185.36-12.85-239.5-39.68-469.33-178.04-697.03-100.11"/><path class="cls-35" d="M3638.88,241.34c-357.98,389.37-822.71,515.5-1263.18,404.33-161.6-40.8-319.3-110.43-475.86-177.03-256.89-109.27-507.68-213.2-774.19-205.01-49.3,1.48-98.37,6.8-147.31,15.11-269.12,46.19-532.35,176.26-793.37,297.85-267.74,125.56-534.66,242.25-808.49,247.63-61.51,1.21-123.42-3.22-185.65-14.59-240.6-44.85-471.63-197.04-703.82-128.22"/><path class="cls-37" d="M3620.77,221.84c-353.68,404.91-819.86,553.97-1260.49,443.4-161.52-40.54-318.86-113.02-475.11-184.97-257.19-118.44-509.44-237.43-777.28-234.78-49.57,.47-98.88,5.11-148,13.09-269.06,44.08-531.4,184.01-791.95,316.1-267.61,136.26-534.34,264.29-808.04,269.82-61.6,1.25-123.58-3.73-185.93-16.33-241.79-49.48-473.92-216.04-710.6-156.34"/><path class="cls-39" d="M3602.65,202.33c-349.37,420.45-817.02,592.45-1257.8,482.47-161.44-40.28-318.31-115.8-474.36-192.92-257.3-127.94-511.19-261.65-780.38-264.55-49.84-.55-99.39,3.41-148.7,11.07-269,41.98-530.45,191.76-790.53,334.35-267.48,146.96-534.02,286.33-807.6,292.01-61.69,1.28-123.75-4.24-186.22-18.07-242.98-54.11-476.21-235.04-717.39-184.45"/><path class="cls-38" d="M3584.53,182.83c-345.07,435.99-814.18,630.92-1255.12,521.54-428.49-106.29-823.14-481.64-1257.08-495.18C406.24,188.43-201.6,1023.6-859.82,865.25c-244.17-58.74-478.51-254.04-724.17-212.56"/></g><g><path class="cls-2" d="M210.52,200.37C311.46,22.34,472.67-50.83,626.28-52.1c153.61-1.27,304.06,59.96,454.32,109.07,150.25,49.12,306.44,86.36,456.7,37.3,162.33-53,306.6-203.35,470.02-247.73,335.91-91.24,665.87,279.64,1004.74,219.68"/><path class="cls-3" d="M3001.99,55.38c-244.39,52.31-487.26-119.78-730.41-187.88-90.66-25.4-181.34-36.21-272.42-14.49-138.37,32.59-263.6,137.31-397.6,200.38-24.52,11.53-49.32,21.68-74.52,29.69-150.23,47.89-305.92,16.12-455.92-27.16C920.94,12.74,770.59-42.18,617.05-40.83c-33.26,.29-66.87,3.62-100.17,10.27C395.73-6.56,278.98,60.58,197.37,195.05"/><path class="cls-9" d="M2991.92,44.54c-242,60.94-485.68-98.39-728.92-166.17-90.62-25.25-181.08-37.31-272-18.91-138.52,28.03-264.57,123.85-399.32,183.83-24.67,10.97-49.6,20.74-74.91,28.57-150.19,46.72-305.39,20.43-455.13-17.02C911.54,17.63,761.29-30.99,607.83-29.55c-33.31,.31-66.96,3.34-100.33,9.3C385.68,1.17,268.31,60.32,184.21,189.74"/><path class="cls-10" d="M2981.85,33.7c-239.61,69.58-484.1-77.01-727.42-144.45-90.57-25.11-180.86-38.54-271.58-23.33-138.72,23.26-265.55,110.39-401.04,167.29-24.83,10.41-49.88,19.79-75.3,27.45-150.16,45.55-304.86,24.73-454.34-6.88C902.13,22.51,751.99-19.8,598.6-18.28c-33.36,.33-67.05,3.06-100.49,8.34C375.63,8.91,257.65,60.07,171.05,184.42"/><path class="cls-4" d="M2971.78,22.87c-237.22,78.22-482.52-55.63-725.93-122.74-90.53-24.97-180.65-39.78-271.17-27.74-138.94,18.48-266.53,96.92-402.76,150.75-24.98,9.84-50.17,18.85-75.68,26.33-150.12,44.38-304.34,29.04-453.55,3.27C892.73,27.39,742.69-8.62,589.37-7c-33.41,.35-67.13,2.85-100.65,7.37-123.09,16.58-241.73,59.45-330.83,178.73"/><path class="cls-6" d="M2961.71,12.03c-234.83,86.85-480.94-34.24-724.44-101.02-90.48-24.82-180.44-41.03-270.75-32.16-139.17,13.68-267.51,83.46-404.48,134.2-25.13,9.28-50.45,17.91-76.07,25.21-150.09,43.21-303.76,33.02-452.76,13.41C883.37,31.95,733.4,2.57,580.14,4.27c-33.46,.37-67.22,2.59-100.81,6.4-123.75,14.07-243,48.89-334.6,163.11"/><path class="cls-5" d="M2951.65,1.19c-232.43,95.49-479.36-12.86-722.95-79.31-90.44-24.68-180.24-42.3-270.33-36.57-139.42,8.86-268.48,69.99-406.2,117.66-25.28,8.71-50.73,16.97-76.46,24.09-150.05,42.04-303.24,37.28-451.98,23.55-149.78-13.83-299.64-36.85-452.82-35.06-33.5,.39-67.31,2.31-100.97,5.43-124.42,11.54-244.28,38.33-338.37,147.48"/><path class="cls-7" d="M2941.58-9.65c-230.04,104.13-477.78,8.52-721.45-57.59-90.39-24.54-180.05-43.57-269.91-40.99-139.67,4.02-269.46,56.53-407.92,101.12-25.43,8.15-51.01,16.03-76.84,22.97-150.02,40.87-302.73,41.55-451.19,33.69-149.73-7.92-299.46-24.6-452.58-22.73-33.55,.41-67.41,2.04-101.12,4.47-125.09,9.01-245.55,27.77-342.14,131.86"/><path class="cls-8" d="M2931.51-20.49c-227.65,112.76-476.2,29.91-719.96-35.87-90.35-24.39-179.87-44.87-269.49-45.4-139.93-.84-270.44,43.07-409.64,84.58-25.58,7.59-51.29,15.08-77.23,21.85-149.99,39.7-302.21,45.82-450.4,43.83-149.67-2.01-299.29-12.35-452.33-10.39-33.6,.43-67.5,1.76-101.28,3.5-125.76,6.47-246.83,17.21-345.91,116.23"/><path class="cls-21" d="M2921.44-31.33c-225.26,121.4-474.62,51.29-718.47-14.16-90.31-24.25-179.68-46.17-269.07-49.82-140.19-5.72-271.41,29.6-411.36,68.03-25.73,7.02-51.57,14.14-77.62,20.73-149.95,38.53-301.7,50.11-449.61,53.98-149.62,3.91-299.11-.1-452.08,1.94-33.65,.45-67.59,1.48-101.44,2.53-126.43,3.92-248.1,6.65-349.68,100.61"/><path class="cls-23" d="M2911.37-42.17c-222.87,130.04-473.04,72.67-716.98,7.56-90.26-24.11-179.5-47.49-268.66-54.23-140.46-10.62-272.39,16.14-413.08,51.49-25.89,6.46-51.87,13.15-78,19.61-149.99,37.06-301.19,54.4-448.82,64.12-149.56,9.84-298.93,12.15-451.83,14.28-33.7,.47-67.69,1.2-101.6,1.57-127.1,1.36-249.38-3.91-353.46,84.99"/><path class="cls-20" d="M2901.3-53.01c-220.48,138.67-471.46,94.06-715.48,29.27-90.22-23.97-179.31-48.83-268.24-58.65-140.72-15.54-273.37,2.68-414.8,34.95-26.04,5.9-52.15,12.2-78.39,18.48-149.96,35.89-300.68,58.7-448.03,74.26-149.51,15.78-298.75,24.4-451.58,26.61-33.75,.49-67.78,.92-101.76,.6-127.77-1.21-250.65-14.47-357.23,69.36"/><path class="cls-19" d="M2891.23-63.85c-218.09,147.31-469.88,115.44-713.99,50.99-90.17-23.82-179.13-50.18-267.82-63.07-140.98-20.49-274.34-10.79-416.52,18.4-26.19,5.33-52.43,11.26-78.78,17.36-149.92,34.72-300.17,63.02-447.25,84.4-149.46,21.73-298.57,36.65-451.33,38.95-33.8,.51-67.87,.63-101.91-.37-128.44-3.79-251.92-25.03-361,53.74"/><path class="cls-18" d="M2881.16-74.69C2665.46,81.26,2412.86,62.14,2168.66-1.98c-90.13-23.68-178.94-51.54-267.4-67.48-141.24-25.45-275.32-24.25-418.24,1.86-26.34,4.77-52.71,10.32-79.16,16.24-149.88,33.56-299.66,67.34-446.46,94.54-149.4,27.69-298.4,48.89-451.08,51.28-33.85,.53-67.97,.35-102.07-1.34-129.12-6.37-253.2-35.59-364.77,38.11"/><path class="cls-24" d="M2871.09-85.53c-213.3,164.58-466.72,158.21-711,94.42-90.08-23.54-178.75-52.91-266.98-71.9-141.49-30.44-276.3-37.71-419.96-14.68-26.49,4.2-52.98,9.43-79.55,15.12-149.78,32.69-299.15,71.67-445.67,104.69-149.34,33.66-298.22,61.14-450.83,63.62-33.89,.55-68.06,.06-102.23-2.3-129.79-8.97-254.47-46.15-368.54,22.49"/><path class="cls-25" d="M2861.02-96.37c-210.91,173.22-465.14,179.59-709.51,116.14-90.04-23.39-178.55-54.3-266.56-76.31-141.74-35.45-277.27-51.18-421.68-31.23-26.64,3.64-53.27,8.49-79.94,14-149.74,31.52-298.63,76-444.88,114.83-149.28,39.63-298.04,73.39-450.59,75.95-33.94,.57-68.15-.24-102.39-3.27-130.46-11.57-255.75-56.71-372.31,6.86"/><path class="cls-22" d="M2850.95-107.2c-208.52,181.86-463.56,200.97-708.02,137.85-89.99-23.25-178.35-55.7-266.15-80.73-141.97-40.48-278.25-64.64-423.4-47.77-26.79,3.08-53.55,7.55-80.32,12.88-149.71,30.35-298.1,80.35-444.09,124.97-149.22,45.61-297.86,85.64-450.34,88.29-33.99,.59-68.24-.53-102.55-4.24C244.96,109.87,119.06,56.78,0,115.28"/><path class="cls-12" d="M2840.88-118.04c-206.13,190.49-461.98,222.35-706.53,159.57-89.95-23.11-178.14-57.1-265.73-85.14-142.19-45.52-279.23-78.1-425.12-64.31-26.94,2.51-53.83,6.61-80.71,11.76-149.67,29.18-297.58,84.7-443.3,135.11-149.15,51.6-297.69,97.89-450.09,100.62-34.04,.61-68.34-.83-102.71-5.21C234.91,117.56,108.4,56.52-13.16,109.96"/><path class="cls-11" d="M2830.81-128.88c-203.74,199.13-460.4,243.74-705.03,181.28-89.91-22.96-177.92-58.52-265.31-89.56-142.4-50.58-280.2-91.57-426.84-80.86-27.1,1.95-54.11,5.66-81.1,10.64-149.64,28.01-297.04,89.05-442.52,145.26-149.07,57.59-297.51,110.14-449.84,112.96-34.09,.63-68.43-1.13-102.86-6.17C224.86,125.24,97.74,56.27-26.32,104.65"/><path class="cls-14" d="M2820.74-139.72c-201.35,207.77-458.82,265.12-703.54,203-89.86-22.82-177.7-59.95-264.89-93.97-142.59-55.65-281.18-105.03-428.56-97.4-27.25,1.39-54.39,4.72-81.48,9.52-149.61,26.84-296.4,93.65-441.73,155.4-148.88,63.84-297.33,122.39-449.59,125.29-34.14,.65-68.52-1.43-103.02-7.14C214.81,132.92,87.08,56.02-39.47,99.33"/><path class="cls-16" d="M2810.67-150.56c-198.96,216.4-457.24,286.5-702.05,224.72-89.82-22.68-177.46-61.38-264.47-98.39-142.78-60.73-282.16-118.49-430.28-113.94-27.4,.82-54.67,3.78-81.87,8.4-149.57,25.67-295.87,97.96-440.94,165.54-148.81,69.79-297.15,134.64-449.34,137.63-34.19,.67-68.59-1.79-103.18-8.11C204.82,140.35,76.42,55.76-52.63,94.01"/><path class="cls-15" d="M2800.6-161.4c-196.57,225.04-455.66,307.89-700.56,246.43-89.77-22.53-177.22-62.81-264.06-102.81-142.94-65.83-283.13-131.96-432-130.49-27.55,.26-54.96,2.84-82.26,7.28-149.54,24.5-295.34,102.27-440.15,175.68-148.73,75.73-296.98,146.89-449.09,149.96-34.24,.69-68.69-2.07-103.34-9.08C194.77,148.08,65.76,55.51-65.79,88.69"/><path class="cls-17" d="M2790.53-172.24c-194.18,233.68-454.08,329.27-699.06,268.15-89.73-22.39-176.91-64.36-263.64-107.22-143-71.1-284.11-145.42-433.72-147.03-27.7-.3-55.24,1.9-82.64,6.15-149.5,23.33-294.81,106.57-439.36,185.82-148.66,81.68-296.8,159.14-448.85,162.3-34.28,.71-68.78-2.36-103.5-10.04C184.72,155.81,55.09,55.26-78.95,83.37"/><path class="cls-13" d="M2780.46-183.08c-191.78,242.32-452.5,350.65-697.57,289.86-238.15-59.07-457.48-267.69-698.66-275.21-370.21-11.55-708.03,452.63-1073.86,364.62C174.67,163.55,44.43,55-92.1,78.06"/></g></g></g></svg>